<svg width="345" height="280" viewBox="0 0 345 280" fill="none" xmlns="http://www.w3.org/2000/svg">
<g clip-path="url(#clip0_233_823)">
<path d="M82.7933 34.8163C85.9635 26.7327 91.3643 19.5229 98.2358 14.1992C107.117 7.31597 119.071 3.66614 129.864 6.7934C137.537 9.0225 143.934 14.3625 151.402 17.204C168.119 23.5565 186.569 16.5018 203.515 10.778C230.069 1.80449 258.952 -3.97645 286.03 3.28238C309.382 9.5369 330.266 26.1612 339.433 48.5174C348.601 70.8737 344.818 98.5862 328.288 116.223C318.443 126.723 304.275 134.17 299.43 147.716C297.477 153.162 297.289 159.074 297.461 164.855C297.836 177.952 299.765 191.906 293.58 203.46C288.481 212.988 278.448 219.194 267.932 221.676C257.408 224.158 246.378 223.317 235.715 221.546C197.566 215.209 161.926 197.189 131.735 173.044C115.672 160.201 100.932 145.405 89.4769 128.267C83.8146 119.791 78.659 110.622 75.211 101.003C72.1224 92.397 77.0085 81.2189 77.5886 72.0739C78.3812 59.5731 78.1605 46.6639 82.8096 34.8163H82.7933Z" fill="#FDEFB8"/>
<path d="M164.856 44.7462L148.809 126.864L153.724 127.823L169.771 45.7056L164.856 44.7462Z" fill="#F8FAFB"/>
<path d="M164.189 48.1663L156.182 89.1391C157.751 89.1146 159.434 89.3105 161.15 89.8331L168.945 49.9544L164.189 48.1663Z" fill="#A7A9AC"/>
<path d="M195.352 87.1224L125.55 73.5029C122.151 72.8415 119.913 69.5183 120.574 66.1134L128.9 23.4994C129.562 20.1027 132.888 17.8654 136.295 18.5268L206.097 32.1463C209.496 32.8077 211.734 36.1309 211.073 39.5358L202.747 82.1498C202.085 85.5465 198.751 87.7919 195.352 87.1224Z" fill="#F8FAFB"/>
<path d="M168.202 45.5126C168.275 45.431 168.34 45.3575 168.414 45.2759C169.264 44.2634 169.86 43.0304 170.154 41.724C170.375 40.7197 170.587 39.2173 171.715 38.8907C172.597 38.6294 173.512 39.4051 173.798 40.3196C174.084 41.2341 173.896 42.2302 173.692 43.1692C173.333 44.8023 172.908 46.4271 172.418 48.0275C173.929 48.5338 175.433 49.04 176.944 49.5462C177.818 49.8402 178.733 50.1505 179.412 50.8037C180.09 51.4569 180.482 52.551 180.065 53.4165C179.493 54.625 177.867 54.6658 176.625 54.3392C178.023 54.8046 179.036 56.4295 178.709 57.9319C178.382 59.4343 176.634 60.4467 175.302 59.7935C176.25 60.0385 176.781 61.2388 176.544 62.2349C176.307 63.2311 175.473 63.9741 174.558 64.3252C173.643 64.6763 172.638 64.6926 171.666 64.66C167.932 64.5538 164.206 63.8843 160.652 62.6758C160.121 62.4962 159.581 62.2921 159.181 61.8838C158.756 61.4429 158.544 60.8223 158.446 60.2018C158.152 58.3483 158.74 56.4703 159.434 54.7393C160.023 53.2614 160.701 51.8243 161.453 50.4281C161.861 49.6769 162.294 48.9175 162.923 48.3541C163.765 47.5866 164.729 47.8234 165.685 47.3825C166.641 46.9497 167.515 46.3128 168.234 45.5208L168.202 45.5126Z" fill="#22AD57"/>
<path d="M155.684 59.3607C155.774 60.0385 155.806 60.757 155.357 61.1163C154.989 61.4102 154.466 61.3449 154.001 61.2632C153.225 61.1244 152.448 60.9774 151.664 60.8386C151.402 60.7897 151.133 60.7407 150.912 60.5855C150.487 60.2834 150.397 59.6955 150.373 59.1729C150.177 55.1149 151.59 50.9996 154.246 47.9213C154.565 47.5539 154.916 47.1865 155.39 47.0477C155.749 46.9415 156.133 46.9905 156.509 47.0477C157.408 47.162 158.339 47.2273 159.238 47.3988C159.826 47.5131 160.407 47.5376 159.998 48.2479C159.557 49.0073 158.895 49.6769 158.429 50.4362C157.555 51.8488 156.738 53.3104 156.207 54.8862C155.839 55.9722 155.602 57.1153 155.586 58.2666C155.586 58.5606 155.651 58.9525 155.708 59.3607H155.684Z" fill="#22AD57"/>
<path d="M257.294 211.47C257.294 211.47 265.399 217.683 260.864 229.498C257.31 238.758 253.723 240.309 237.088 242.138C219.17 244.106 164.974 250.14 164.974 250.14C164.974 250.14 149.49 251.34 135.045 234.463C120.583 217.577 10.5403 90.3068 10.5403 90.3068C10.5403 90.3068 0.915271 80.1411 2.24709 72.719C3.5789 65.2969 3.61975 58.5443 16.9216 58.2585C30.2152 57.9727 94.7551 57.5318 94.7551 57.5318C94.7551 57.5318 106.259 55.3109 121.833 71.2003C137.414 87.0897 257.294 211.47 257.294 211.47Z" fill="#34414C"/>
<path d="M260.864 229.498C257.31 238.758 253.723 240.309 237.088 242.138C219.169 244.106 164.974 250.14 164.974 250.14C164.974 250.14 149.49 251.34 135.045 234.463C120.583 217.577 10.5403 90.3068 10.5403 90.3068C10.5403 90.3068 0.915271 80.1411 2.24709 72.719C3.34195 66.6523 3.57073 61.0265 10.8916 59.0178C5.18852 64.7089 12.779 70.939 12.779 70.939C12.779 70.939 133.884 209.085 145.699 221.929C157.514 234.773 173.357 233.165 173.357 233.165C173.357 233.165 236.246 226.796 252.971 225.244C257.923 224.787 260.586 222.444 261.902 219.341C262.482 222.052 262.417 225.44 260.864 229.49V229.498Z" fill="#1B242B"/>
<path d="M195.27 211.339C194.184 214.671 197.77 218.827 203.277 220.615C208.784 222.403 214.128 221.146 215.215 217.814C216.301 214.483 212.715 210.327 207.208 208.539C201.701 206.75 196.357 208.008 195.27 211.339Z" fill="#1B242B"/>
<path d="M240.25 199.744L140.11 207.681L27.3145 80.2472L121.71 77.52L240.25 199.744Z" fill="#F6F8FC"/>
<path d="M74.8104 118.942L148.027 113.006C148.738 112.949 149.441 113.21 149.948 113.725L179.002 143.56C180.342 144.932 179.607 147.251 177.72 147.594L107.468 160.568C106.635 160.723 105.777 160.421 105.213 159.784L73.2007 122.91C71.9098 121.424 72.8576 119.105 74.8185 118.942H74.8104Z" fill="#E6E8FF"/>
<path d="M73.4375 120.24L135.412 132.447L149.947 113.733" stroke="#B29CE5" stroke-miterlimit="10"/>
<g opacity="0.2">
<path d="M87.3115 78.5081L102.06 78.0835L110.541 174.277L93.7173 155.269L87.3115 78.5081Z" fill="white"/>
</g>
<g opacity="0.3">
<path d="M121.776 186.966L108.539 77.8956L121.71 77.52L143.542 100.031L158.282 206.244L140.11 207.681L121.776 186.966Z" fill="white"/>
</g>
<path d="M49.22 68.7835C48.983 69.5183 50.0125 70.5145 51.5241 71.0044C53.0356 71.4943 54.4573 71.2984 54.7025 70.5635C54.9476 69.8286 53.9099 68.8325 52.3983 68.3426C50.8868 67.8527 49.4651 68.0486 49.22 68.7835Z" fill="#1B242B"/>
<path d="M79.3371 67.6239C78.9204 68.8977 80.7098 70.6123 83.3162 71.4615C85.9227 72.3107 88.382 71.9678 88.7987 70.694C89.2154 69.4202 87.4261 67.7055 84.8114 66.8564C82.1968 66.0072 79.7456 66.3501 79.3371 67.6239Z" fill="#1B242B"/>
<path d="M44.0155 71.5187L28.5975 71.8534C28.5975 71.8534 25.6724 72.1801 25.0841 70.7103C24.4958 69.2488 25.1903 68.8323 27.2983 68.718C29.4064 68.6037 41.6051 68.62 41.6051 68.62C41.6051 68.62 44.7999 68.1056 45.6986 69.51C46.5974 70.9145 45.6006 71.4779 44.0073 71.5105L44.0155 71.5187Z" fill="#1B242B"/>
<path d="M109.299 69.9755L93.8807 70.3102C93.8807 70.3102 90.9556 70.6368 90.3673 69.1671C89.779 67.6974 90.4735 67.2891 92.5815 67.1748C94.6896 67.0605 106.888 67.0768 106.888 67.0768C106.888 67.0768 110.083 66.5624 110.982 67.9668C111.881 69.3712 110.876 69.9346 109.291 69.9673L109.299 69.9755Z" fill="#1B242B"/>
<path d="M23.5643 98.4557L27.8049 103.281C28.8589 104.473 30.7299 104.449 31.7431 103.224C32.5602 102.244 32.5357 100.815 31.6941 99.8601L27.4535 95.0345C26.3995 93.8424 24.5284 93.8669 23.5153 95.0917C22.6982 96.0715 22.7227 97.5004 23.5643 98.4557Z" fill="#34414C"/>
<path d="M70.0143 88.0042L84.5581 85.8322C84.5581 85.8322 105.794 90.1108 111.178 68.7344L59.0493 62.3982C59.0493 62.3982 60.9531 74.4337 71.5667 79.8145L70.0143 88.0042Z" fill="#D1D3D4"/>
<path d="M191.643 196.544L200.933 192.674L242.219 195.842C239.384 192.902 236.222 189.62 232.814 186.084L197.836 185.562L191.643 196.544Z" fill="#D1D3D4"/>
<path d="M191.496 184.41V197.197L200.998 185.17L191.496 184.41Z" fill="url(#paint0_linear_233_823)"/>
<path d="M314.35 187.954H191.782C186.569 187.954 182.304 183.692 182.304 178.483V161.956C182.304 156.747 186.569 152.485 191.782 152.485H314.35C319.562 152.485 323.827 156.747 323.827 161.956V178.483C323.827 183.692 319.562 187.954 314.35 187.954Z" fill="url(#paint1_linear_233_823)"/>
<path d="M202.174 160.838L204.756 166.072L210.533 166.904L206.35 170.979L207.338 176.727L202.174 174.016L197.002 176.727L197.991 170.979L193.816 166.904L199.593 166.072L202.174 160.838Z" fill="#FBB040"/>
<path d="M227.561 160.838L230.151 166.072L235.927 166.904L231.744 170.979L232.733 176.727L227.561 174.016L222.397 176.727L223.386 170.979L219.202 166.904L224.979 166.072L227.561 160.838Z" fill="#FBB040"/>
<path d="M252.955 160.838L255.537 166.072L261.314 166.904L257.139 170.979L258.127 176.727L252.955 174.016L247.791 176.727L248.78 170.979L244.597 166.904L250.373 166.072L252.955 160.838Z" fill="#FBB040"/>
<path d="M278.349 160.838L280.931 166.072L286.708 166.904L282.524 170.979L283.513 176.727L278.349 174.016L273.177 176.727L274.166 170.979L269.991 166.904L275.767 166.072L278.349 160.838Z" fill="#FBB040"/>
<path d="M303.736 160.838L306.326 166.072L312.102 166.904L307.919 170.979L308.908 176.727L303.736 174.016L298.572 176.727L299.56 170.979L295.377 166.904L301.154 166.072L303.736 160.838Z" fill="white"/>
<path d="M66.7056 221.619C66.9997 221.366 67.2857 221.113 67.5798 220.852" stroke="#383838" stroke-linecap="round" stroke-linejoin="round"/>
<path d="M69.2546 219.268C77.1066 211.519 82.3766 201.174 83.9536 190.249C84.2559 188.166 84.4193 185.978 83.7003 184.002C82.0907 179.536 75.9872 177.699 71.812 179.96C67.6286 182.214 65.7167 187.603 66.7789 192.224C67.8411 196.846 71.4443 200.626 75.6931 202.741C79.9418 204.856 84.8033 205.477 89.5586 205.444C99.1591 205.387 108.931 202.684 116.432 196.699C123.328 191.196 128.067 182.745 128.287 173.975" stroke="#383838" stroke-linecap="round" stroke-linejoin="round"/>
<path d="M128.296 172.824C128.296 172.44 128.271 172.056 128.247 171.665" stroke="#383838" stroke-linecap="round" stroke-linejoin="round"/>
<path d="M86.9441 87.2531C103.189 87.2531 116.358 74.0927 116.358 57.8585C116.358 41.6243 103.189 28.4639 86.9441 28.4639C70.699 28.4639 57.5298 41.6243 57.5298 57.8585C57.5298 74.0927 70.699 87.2531 86.9441 87.2531Z" fill="#EA4E4E"/>
<path d="M75.2929 79.929L70.0146 93.4505L91.6342 83.7911L75.2929 79.929Z" fill="#EA4E4E"/>
<path d="M98.9306 50.7384C95.3927 44.737 87.2466 49.9382 87.2057 49.9708C87.1731 49.9382 79.0269 44.737 75.4809 50.7384C70.6193 58.977 87.124 68.8814 87.1976 68.9222C87.2711 68.8814 103.776 58.977 98.9143 50.7384H98.9306Z" fill="white"/>
<path d="M218.802 105.584L214.005 108.36L215.394 109.332L222.691 114.41L227.487 111.626L220.191 106.547L218.802 105.584Z" fill="url(#paint2_linear_233_823)"/>
<path d="M244.098 81.6436L239.302 84.4197L243.109 87.0734L253.51 94.3077L258.307 91.5316L247.905 84.2891L244.098 81.6436Z" fill="url(#paint3_linear_233_823)"/>
<path d="M300.018 34.3181L299.176 72.9149L303.972 70.1387L304.789 35.649L300.018 34.3181Z" fill="url(#paint4_linear_233_823)"/>
<path d="M266.24 46.6067L300.018 34.3181L299.176 72.9149L289.527 65.207L259.892 105.331L256.705 109.642L252.783 106.212L241.851 96.6428L225.346 118.983L224.023 120.779L222.388 119.35L214.937 112.826L201.341 131.222L213.327 109.585L214.005 108.36L215.394 109.332L222.691 114.41L237.447 87.7755L239.302 84.4196L243.109 87.0733L253.51 94.3076L275.726 54.1921L266.24 46.6067Z" fill="white"/>
<mask id="mask0_233_823" style="mask-type:luminance" maskUnits="userSpaceOnUse" x="0" y="210" width="71" height="70">
<path d="M11.2221 210.027L0.00732422 268.778L58.7972 279.985L70.0119 221.234L11.2221 210.027Z" fill="white"/>
</mask>
<g mask="url(#mask0_233_823)">
<path d="M6.58541 270.047C16.3575 271.908 30.746 267.711 41.7519 257.872L49.0482 259.26C54.3265 260.265 58.0932 256.909 60.9692 253.145L64.8176 248.107L51.6547 245.6L40.5916 229.327L43.1 216.173L36.9965 217.896C32.4373 219.186 27.919 221.456 26.914 226.722L25.525 234.014C12.3212 240.619 3.11289 252.443 1.24998 262.208L-0.00830078 268.789L6.57724 270.047H6.58541ZM20.835 258.607C18.3185 258.125 16.668 255.7 17.1501 253.186C17.6321 250.671 20.0588 249.021 22.5754 249.503C25.0919 249.985 26.7424 252.41 26.2603 254.925C25.7782 257.44 23.3516 259.089 20.835 258.607ZM55.6746 236.929L58.3873 235.083C62.3092 232.422 65.1199 224.567 65.1199 224.567C65.1199 224.567 57.2107 223.995 52.8558 226.951L50.1431 228.796L55.6746 236.929Z" fill="url(#paint5_linear_233_823)"/>
</g>
</g>
<defs>
<linearGradient id="paint0_linear_233_823" x1="191.496" y1="190.804" x2="200.998" y2="190.804" gradientUnits="userSpaceOnUse">
<stop stop-color="#232650"/>
<stop offset="1" stop-color="#5359A4"/>
</linearGradient>
<linearGradient id="paint1_linear_233_823" x1="182.304" y1="170.219" x2="323.827" y2="170.219" gradientUnits="userSpaceOnUse">
<stop stop-color="#242651"/>
<stop offset="0.18" stop-color="#2F3265"/>
<stop offset="0.52" stop-color="#424787"/>
<stop offset="0.81" stop-color="#4E549C"/>
<stop offset="1" stop-color="#5359A4"/>
</linearGradient>
<linearGradient id="paint2_linear_233_823" x1="214.005" y1="109.993" x2="227.487" y2="109.993" gradientUnits="userSpaceOnUse">
<stop stop-color="#242651"/>
<stop offset="0.18" stop-color="#2F3265"/>
<stop offset="0.52" stop-color="#424787"/>
<stop offset="0.81" stop-color="#4E549C"/>
<stop offset="1" stop-color="#5359A4"/>
</linearGradient>
<linearGradient id="paint3_linear_233_823" x1="239.302" y1="87.9797" x2="258.307" y2="87.9797" gradientUnits="userSpaceOnUse">
<stop stop-color="#242651"/>
<stop offset="0.18" stop-color="#2F3265"/>
<stop offset="0.52" stop-color="#424787"/>
<stop offset="0.81" stop-color="#4E549C"/>
<stop offset="1" stop-color="#5359A4"/>
</linearGradient>
<linearGradient id="paint4_linear_233_823" x1="299.176" y1="53.6124" x2="304.789" y2="53.6124" gradientUnits="userSpaceOnUse">
<stop stop-color="#242651"/>
<stop offset="0.18" stop-color="#2F3265"/>
<stop offset="0.52" stop-color="#424787"/>
<stop offset="0.81" stop-color="#4E549C"/>
<stop offset="1" stop-color="#5359A4"/>
</linearGradient>
<linearGradient id="paint5_linear_233_823" x1="69.5886" y1="239.41" x2="-23.6818" y2="248.191" gradientUnits="userSpaceOnUse">
<stop stop-color="#5153B8"/>
<stop offset="0.52" stop-color="#9FB4FF"/>
<stop offset="0.65" stop-color="#A7BAFF"/>
<stop offset="0.86" stop-color="#BFCDFF"/>
<stop offset="1" stop-color="#D2DCFF"/>
</linearGradient>
<clipPath id="clip0_233_823">
<rect width="344.311" height="280" fill="white"/>
</clipPath>
</defs>
</svg>
