<svg width="368" height="173" viewBox="0 0 368 173" fill="none" xmlns="http://www.w3.org/2000/svg">
<rect x="204" y="67" width="150" height="41" rx="8" fill="#242552"/>
<path d="M253.322 85.292C253.289 84.9819 253.149 84.7404 252.903 84.5676C252.659 84.3947 252.342 84.3083 251.951 84.3083C251.677 84.3083 251.441 84.3498 251.245 84.4326C251.048 84.5155 250.898 84.6279 250.794 84.77C250.69 84.912 250.636 85.0742 250.634 85.2565C250.634 85.408 250.668 85.5394 250.737 85.6507C250.808 85.7619 250.904 85.8566 251.025 85.9347C251.145 86.0105 251.279 86.0744 251.426 86.1265C251.573 86.1786 251.721 86.2224 251.87 86.2579L252.551 86.4284C252.826 86.4923 253.09 86.5787 253.343 86.6876C253.599 86.7965 253.828 86.9338 254.029 87.0995C254.232 87.2652 254.393 87.4653 254.512 87.6997C254.63 87.934 254.689 88.2087 254.689 88.5235C254.689 88.9497 254.58 89.3249 254.363 89.6492C254.145 89.9712 253.83 90.2233 253.418 90.4056C253.008 90.5856 252.512 90.6755 251.93 90.6755C251.364 90.6755 250.873 90.5879 250.456 90.4127C250.042 90.2375 249.718 89.9819 249.483 89.6457C249.251 89.3095 249.126 88.8999 249.107 88.417H250.403C250.422 88.6703 250.5 88.881 250.637 89.0491C250.775 89.2172 250.953 89.3427 251.174 89.4255C251.396 89.5084 251.645 89.5498 251.919 89.5498C252.206 89.5498 252.457 89.5072 252.672 89.422C252.89 89.3344 253.06 89.2136 253.184 89.0597C253.307 88.9035 253.369 88.7212 253.372 88.5129C253.369 88.3235 253.314 88.1672 253.205 88.0441C253.096 87.9186 252.943 87.8145 252.747 87.7316C252.553 87.6464 252.325 87.5706 252.065 87.5044L251.238 87.2913C250.639 87.1374 250.165 86.9042 249.817 86.5917C249.471 86.2768 249.299 85.859 249.299 85.3382C249.299 84.9097 249.415 84.5344 249.647 84.2124C249.881 83.8905 250.199 83.6407 250.602 83.4632C251.004 83.2832 251.46 83.1933 251.969 83.1933C252.485 83.1933 252.937 83.2832 253.326 83.4632C253.716 83.6407 254.023 83.8881 254.245 84.2053C254.468 84.5202 254.583 84.8824 254.59 85.292H253.322ZM258.222 90.672C257.675 90.672 257.203 90.5583 256.805 90.3311C256.41 90.1014 256.105 89.7771 255.892 89.358C255.679 88.9366 255.573 88.4407 255.573 87.8701C255.573 87.309 255.679 86.8166 255.892 86.3928C256.108 85.9667 256.408 85.6353 256.794 85.3985C257.18 85.1594 257.633 85.0399 258.154 85.0399C258.49 85.0399 258.808 85.0943 259.106 85.2032C259.407 85.3097 259.672 85.4755 259.901 85.7004C260.133 85.9253 260.316 86.2117 260.448 86.5597C260.581 86.9054 260.647 87.3173 260.647 87.7955V88.1897H256.176V87.3232H259.415C259.413 87.077 259.359 86.858 259.255 86.6663C259.151 86.4722 259.005 86.3195 258.818 86.2082C258.634 86.0969 258.418 86.0413 258.172 86.0413C257.909 86.0413 257.678 86.1052 257.48 86.233C257.281 86.3585 257.126 86.5242 257.014 86.7302C256.905 86.9338 256.85 87.1575 256.847 87.4014V88.1578C256.847 88.475 256.905 88.7472 257.021 88.9745C257.137 89.1994 257.3 89.3722 257.508 89.493C257.716 89.6114 257.96 89.6705 258.24 89.6705C258.427 89.6705 258.596 89.6445 258.747 89.5924C258.899 89.538 259.03 89.4587 259.142 89.3545C259.253 89.2503 259.337 89.1213 259.394 88.9674L260.594 89.1024C260.518 89.4196 260.374 89.6966 260.161 89.9333C259.95 90.1677 259.68 90.35 259.351 90.4802C259.022 90.608 258.646 90.672 258.222 90.672ZM264.114 90.672C263.569 90.672 263.102 90.5524 262.711 90.3133C262.323 90.0742 262.024 89.7439 261.813 89.3225C261.605 88.8988 261.5 88.4111 261.5 87.8595C261.5 87.3055 261.607 86.8166 261.82 86.3928C262.033 85.9667 262.334 85.6353 262.722 85.3985C263.113 85.1594 263.574 85.0399 264.107 85.0399C264.55 85.0399 264.941 85.1215 265.282 85.2849C265.626 85.4459 265.899 85.6743 266.103 85.9703C266.306 86.2638 266.422 86.6071 266.451 87.0001H265.222C265.172 86.7373 265.054 86.5183 264.867 86.3431C264.682 86.1656 264.435 86.0768 264.125 86.0768C263.862 86.0768 263.631 86.1478 263.432 86.2899C263.233 86.4295 263.078 86.6308 262.967 86.8936C262.858 87.1563 262.804 87.4712 262.804 87.8382C262.804 88.2098 262.858 88.5294 262.967 88.797C263.076 89.0621 263.229 89.2669 263.425 89.4113C263.624 89.5534 263.857 89.6244 264.125 89.6244C264.314 89.6244 264.483 89.5889 264.632 89.5178C264.784 89.4445 264.911 89.3391 265.012 89.2018C265.114 89.0645 265.184 88.8976 265.222 88.7011H266.451C266.42 89.087 266.306 89.4291 266.11 89.7274C265.913 90.0233 265.646 90.2553 265.307 90.4234C264.969 90.5891 264.571 90.672 264.114 90.672ZM270.983 88.2714V85.1109H272.268V90.5654H271.022V89.596H270.965C270.842 89.9014 270.64 90.1511 270.358 90.3453C270.078 90.5394 269.734 90.6365 269.324 90.6365C268.967 90.6365 268.651 90.5571 268.376 90.3985C268.104 90.2375 267.891 90.0044 267.737 89.699C267.583 89.3912 267.506 89.0195 267.506 88.5839V85.1109H268.792V88.385C268.792 88.7307 268.886 89.0053 269.076 89.2089C269.265 89.4125 269.514 89.5143 269.822 89.5143C270.011 89.5143 270.194 89.4681 270.372 89.3758C270.55 89.2835 270.695 89.1462 270.809 88.9639C270.925 88.7792 270.983 88.5484 270.983 88.2714ZM273.59 90.5654V85.1109H274.837V86.02H274.893C274.993 85.7051 275.163 85.4624 275.405 85.292C275.649 85.1192 275.927 85.0328 276.239 85.0328C276.31 85.0328 276.39 85.0363 276.477 85.0434C276.567 85.0481 276.642 85.0564 276.701 85.0683V86.2508C276.647 86.2319 276.56 86.2153 276.442 86.2011C276.326 86.1845 276.213 86.1762 276.104 86.1762C275.87 86.1762 275.659 86.2271 275.472 86.3289C275.288 86.4284 275.142 86.5669 275.036 86.7444C274.929 86.922 274.876 87.1267 274.876 87.3588V90.5654H273.59ZM279.745 90.672C279.198 90.672 278.726 90.5583 278.328 90.3311C277.933 90.1014 277.629 89.7771 277.416 89.358C277.203 88.9366 277.096 88.4407 277.096 87.8701C277.096 87.309 277.203 86.8166 277.416 86.3928C277.631 85.9667 277.932 85.6353 278.318 85.3985C278.704 85.1594 279.157 85.0399 279.678 85.0399C280.014 85.0399 280.331 85.0943 280.629 85.2032C280.93 85.3097 281.195 85.4755 281.425 85.7004C281.657 85.9253 281.839 86.2117 281.972 86.5597C282.104 86.9054 282.171 87.3173 282.171 87.7955V88.1897H277.7V87.3232H280.938C280.936 87.077 280.883 86.858 280.779 86.6663C280.674 86.4722 280.529 86.3195 280.342 86.2082C280.157 86.0969 279.942 86.0413 279.695 86.0413C279.433 86.0413 279.202 86.1052 279.003 86.233C278.804 86.3585 278.649 86.5242 278.538 86.7302C278.429 86.9338 278.373 87.1575 278.371 87.4014V88.1578C278.371 88.475 278.429 88.7472 278.545 88.9745C278.661 89.1994 278.823 89.3722 279.031 89.493C279.24 89.6114 279.484 89.6705 279.763 89.6705C279.95 89.6705 280.119 89.6445 280.271 89.5924C280.422 89.538 280.554 89.4587 280.665 89.3545C280.776 89.2503 280.86 89.1213 280.917 88.9674L282.117 89.1024C282.042 89.4196 281.897 89.6966 281.684 89.9333C281.473 90.1677 281.204 90.35 280.874 90.4802C280.545 90.608 280.169 90.672 279.745 90.672ZM285.282 90.6613C284.854 90.6613 284.47 90.5512 284.132 90.3311C283.793 90.1109 283.526 89.7913 283.329 89.3722C283.133 88.9532 283.034 88.4442 283.034 87.8453C283.034 87.2392 283.134 86.7278 283.333 86.3112C283.534 85.8921 283.805 85.5761 284.146 85.363C284.487 85.1476 284.867 85.0399 285.286 85.0399C285.605 85.0399 285.868 85.0943 286.074 85.2032C286.28 85.3097 286.444 85.4388 286.564 85.5903C286.685 85.7394 286.779 85.8803 286.845 86.0129H286.898V83.2927H288.187V90.5654H286.923V89.7061H286.845C286.779 89.8386 286.683 89.9795 286.557 90.1286C286.432 90.2754 286.266 90.4009 286.06 90.5051C285.854 90.6092 285.595 90.6613 285.282 90.6613ZM285.641 89.6066C285.913 89.6066 286.145 89.5332 286.337 89.3865C286.529 89.2373 286.674 89.0302 286.774 88.765C286.873 88.4999 286.923 88.1909 286.923 87.8382C286.923 87.4854 286.873 87.1788 286.774 86.9184C286.677 86.658 286.532 86.4556 286.341 86.3112C286.151 86.1668 285.918 86.0945 285.641 86.0945C285.355 86.0945 285.115 86.1691 284.924 86.3183C284.732 86.4674 284.587 86.6734 284.49 86.9362C284.393 87.199 284.345 87.4996 284.345 87.8382C284.345 88.1791 284.393 88.4833 284.49 88.7508C284.59 89.016 284.735 89.2255 284.927 89.3794C285.121 89.5309 285.359 89.6066 285.641 89.6066ZM292.094 90.5654V83.2927H294.822C295.38 83.2927 295.849 83.3969 296.228 83.6052C296.609 83.8135 296.897 84.1 297.091 84.4646C297.287 84.8268 297.385 85.2387 297.385 85.7004C297.385 86.1668 297.287 86.5811 297.091 86.9433C296.894 87.3055 296.604 87.5908 296.221 87.7991C295.837 88.0051 295.365 88.108 294.804 88.108H292.996V87.0249H294.626C294.953 87.0249 295.22 86.9681 295.429 86.8545C295.637 86.7409 295.791 86.5846 295.89 86.3857C295.992 86.1869 296.043 85.9584 296.043 85.7004C296.043 85.4423 295.992 85.2151 295.89 85.0186C295.791 84.8221 295.636 84.6694 295.425 84.5605C295.217 84.4492 294.948 84.3936 294.619 84.3936H293.412V90.5654H292.094ZM299.945 90.6755C299.599 90.6755 299.288 90.614 299.011 90.4909C298.736 90.3654 298.519 90.1807 298.358 89.9369C298.199 89.693 298.12 89.3924 298.12 89.0349C298.12 88.7271 298.176 88.4726 298.29 88.2714C298.404 88.0702 298.559 87.9092 298.755 87.7884C298.952 87.6677 299.173 87.5766 299.419 87.515C299.668 87.4511 299.925 87.4049 300.19 87.3765C300.51 87.3434 300.769 87.3138 300.968 87.2877C301.167 87.2593 301.311 87.2167 301.401 87.1599C301.493 87.1007 301.539 87.0096 301.539 86.8865V86.8651C301.539 86.5976 301.46 86.3905 301.301 86.2437C301.143 86.0969 300.914 86.0235 300.616 86.0235C300.301 86.0235 300.051 86.0922 299.867 86.2295C299.685 86.3668 299.561 86.529 299.498 86.716L298.297 86.5455C298.392 86.2141 298.548 85.9371 298.766 85.7146C298.984 85.4897 299.25 85.3216 299.565 85.2103C299.88 85.0967 300.228 85.0399 300.609 85.0399C300.872 85.0399 301.133 85.0706 301.394 85.1322C301.654 85.1937 301.892 85.2955 302.108 85.4376C302.323 85.5773 302.496 85.7678 302.626 86.0093C302.759 86.2508 302.825 86.5526 302.825 86.9149V90.5654H301.589V89.8161H301.547C301.468 89.9677 301.358 90.1097 301.216 90.2423C301.077 90.3725 300.9 90.4778 300.687 90.5583C300.476 90.6365 300.229 90.6755 299.945 90.6755ZM300.279 89.7309C300.537 89.7309 300.761 89.68 300.95 89.5782C301.139 89.474 301.285 89.3367 301.387 89.1663C301.491 88.9958 301.543 88.81 301.543 88.6088V87.966C301.503 87.9991 301.434 88.0299 301.337 88.0583C301.242 88.0867 301.136 88.1116 301.017 88.1329C300.899 88.1542 300.782 88.1731 300.666 88.1897C300.55 88.2063 300.449 88.2205 300.364 88.2323C300.172 88.2584 300.001 88.301 299.849 88.3602C299.698 88.4194 299.578 88.5022 299.49 88.6088C299.403 88.7129 299.359 88.8479 299.359 89.0136C299.359 89.2503 299.445 89.4291 299.618 89.5498C299.791 89.6705 300.011 89.7309 300.279 89.7309ZM304.721 92.6109C304.546 92.6109 304.384 92.5967 304.235 92.5683C304.088 92.5422 303.971 92.5115 303.883 92.4759L304.181 91.4745C304.368 91.529 304.535 91.555 304.682 91.5526C304.829 91.5503 304.958 91.5041 305.069 91.4142C305.183 91.3266 305.279 91.1798 305.357 90.9738L305.467 90.6791L303.489 85.1109H304.853L306.11 89.2302H306.167L307.427 85.1109H308.794L306.61 91.2259C306.509 91.5148 306.374 91.7622 306.206 91.9681C306.038 92.1765 305.832 92.3351 305.588 92.444C305.346 92.5552 305.057 92.6109 304.721 92.6109ZM309.684 90.5654V85.1109H310.913V86.0377H310.977C311.09 85.7252 311.278 85.4814 311.541 85.3062C311.804 85.1286 312.118 85.0399 312.482 85.0399C312.852 85.0399 313.163 85.1298 313.416 85.3097C313.672 85.4873 313.852 85.73 313.956 86.0377H314.013C314.134 85.7347 314.337 85.4932 314.624 85.3133C314.912 85.131 315.254 85.0399 315.65 85.0399C316.152 85.0399 316.561 85.1985 316.879 85.5157C317.196 85.8329 317.354 86.2958 317.354 86.9042V90.5654H316.065V87.1031C316.065 86.7645 315.975 86.5171 315.795 86.3609C315.616 86.2023 315.395 86.123 315.135 86.123C314.825 86.123 314.582 86.22 314.407 86.4142C314.234 86.6059 314.148 86.8557 314.148 87.1634V90.5654H312.887V87.0498C312.887 86.7681 312.802 86.5432 312.631 86.3751C312.463 86.207 312.243 86.123 311.971 86.123C311.786 86.123 311.618 86.1703 311.467 86.265C311.315 86.3573 311.194 86.4887 311.104 86.6592C311.014 86.8273 310.969 87.0238 310.969 87.2487V90.5654H309.684ZM321.073 90.672C320.526 90.672 320.054 90.5583 319.656 90.3311C319.261 90.1014 318.957 89.7771 318.744 89.358C318.531 88.9366 318.424 88.4407 318.424 87.8701C318.424 87.309 318.531 86.8166 318.744 86.3928C318.959 85.9667 319.26 85.6353 319.646 85.3985C320.032 85.1594 320.485 85.0399 321.006 85.0399C321.342 85.0399 321.659 85.0943 321.958 85.2032C322.258 85.3097 322.523 85.4755 322.753 85.7004C322.985 85.9253 323.167 86.2117 323.3 86.5597C323.432 86.9054 323.499 87.3173 323.499 87.7955V88.1897H319.028V87.3232H322.267C322.264 87.077 322.211 86.858 322.107 86.6663C322.003 86.4722 321.857 86.3195 321.67 86.2082C321.485 86.0969 321.27 86.0413 321.024 86.0413C320.761 86.0413 320.53 86.1052 320.331 86.233C320.132 86.3585 319.977 86.5242 319.866 86.7302C319.757 86.9338 319.701 87.1575 319.699 87.4014V88.1578C319.699 88.475 319.757 88.7472 319.873 88.9745C319.989 89.1994 320.151 89.3722 320.36 89.493C320.568 89.6114 320.812 89.6705 321.091 89.6705C321.278 89.6705 321.447 89.6445 321.599 89.5924C321.75 89.538 321.882 89.4587 321.993 89.3545C322.104 89.2503 322.188 89.1213 322.245 88.9674L323.445 89.1024C323.37 89.4196 323.225 89.6966 323.012 89.9333C322.802 90.1677 322.532 90.35 322.203 90.4802C321.874 90.608 321.497 90.672 321.073 90.672ZM325.872 87.3694V90.5654H324.586V85.1109H325.815V86.0377H325.879C326.004 85.7323 326.204 85.4897 326.479 85.3097C326.756 85.1298 327.098 85.0399 327.505 85.0399C327.882 85.0399 328.21 85.1204 328.489 85.2813C328.771 85.4423 328.989 85.6755 329.142 85.9809C329.299 86.2863 329.376 86.6568 329.373 87.0924V90.5654H328.088V87.2913C328.088 86.9267 327.993 86.6414 327.804 86.4355C327.617 86.2295 327.357 86.1265 327.026 86.1265C326.801 86.1265 326.601 86.1762 326.426 86.2757C326.253 86.3727 326.117 86.5136 326.017 86.6982C325.92 86.8829 325.872 87.1066 325.872 87.3694ZM333.404 85.1109V86.1052H330.268V85.1109H333.404ZM331.042 83.8041H332.328V88.9248C332.328 89.0976 332.354 89.2302 332.406 89.3225C332.46 89.4125 332.531 89.474 332.619 89.5072C332.707 89.5403 332.804 89.5569 332.91 89.5569C332.991 89.5569 333.064 89.551 333.13 89.5392C333.199 89.5273 333.251 89.5167 333.287 89.5072L333.503 90.5122C333.435 90.5358 333.336 90.5619 333.208 90.5903C333.083 90.6187 332.929 90.6353 332.747 90.64C332.425 90.6495 332.135 90.6009 331.877 90.4944C331.619 90.3855 331.414 90.2174 331.262 89.9901C331.113 89.7629 331.04 89.4788 331.042 89.1379V83.8041ZM338.712 86.5526L337.54 86.6805C337.507 86.5621 337.449 86.4508 337.366 86.3467C337.285 86.2425 337.177 86.1585 337.039 86.0945C336.902 86.0306 336.734 85.9987 336.535 85.9987C336.267 85.9987 336.043 86.0567 335.86 86.1727C335.68 86.2887 335.592 86.439 335.594 86.6237C335.592 86.7823 335.65 86.9113 335.768 87.0107C335.889 87.1102 336.088 87.1919 336.365 87.2558L337.295 87.4546C337.811 87.5659 338.195 87.7423 338.445 87.9838C338.699 88.2252 338.827 88.5413 338.829 88.9319C338.827 89.2752 338.726 89.5782 338.527 89.841C338.331 90.1014 338.057 90.305 337.707 90.4518C337.356 90.5986 336.954 90.672 336.499 90.672C335.832 90.672 335.294 90.5323 334.887 90.2529C334.48 89.9712 334.237 89.5794 334.159 89.0775L335.413 88.9568C335.47 89.203 335.59 89.3888 335.775 89.5143C335.96 89.6398 336.2 89.7025 336.496 89.7025C336.801 89.7025 337.046 89.6398 337.231 89.5143C337.418 89.3888 337.512 89.2338 337.512 89.0491C337.512 88.8928 337.451 88.7638 337.33 88.662C337.212 88.5602 337.027 88.4821 336.776 88.4276L335.846 88.2323C335.323 88.1234 334.936 87.94 334.685 87.6819C334.434 87.4215 334.31 87.0924 334.312 86.6947C334.31 86.3585 334.401 86.0673 334.585 85.8211C334.772 85.5725 335.032 85.3808 335.363 85.2458C335.697 85.1085 336.082 85.0399 336.517 85.0399C337.156 85.0399 337.66 85.176 338.026 85.4482C338.396 85.7205 338.624 86.0886 338.712 86.5526Z" fill="white"/>
<path d="M1.29119 39V25.9091H3.66264V31.924H3.82244L8.92969 25.9091H11.8253L6.76278 31.7834L11.87 39H9.01918L5.11364 33.3878L3.66264 35.1009V39H1.29119ZM12.5779 25.9091H15.2562L18.4586 31.7003H18.5865L21.7889 25.9091H24.4672L19.7051 34.1165V39H17.34V34.1165L12.5779 25.9091ZM36.6136 30.326H34.223C34.1548 29.9339 34.0291 29.5866 33.8459 29.2841C33.6626 28.9773 33.4347 28.7173 33.1619 28.5043C32.8892 28.2912 32.5781 28.1314 32.2287 28.0249C31.8835 27.9141 31.5107 27.8587 31.1101 27.8587C30.3984 27.8587 29.7678 28.0376 29.218 28.3956C28.6683 28.7493 28.2379 29.2692 27.9268 29.9553C27.6158 30.6371 27.4602 31.4702 27.4602 32.4545C27.4602 33.456 27.6158 34.2997 27.9268 34.9858C28.2422 35.6676 28.6726 36.1832 29.218 36.5327C29.7678 36.8778 30.3963 37.0504 31.1037 37.0504C31.4957 37.0504 31.8622 36.9993 32.2031 36.897C32.5483 36.7905 32.8572 36.6349 33.13 36.4304C33.407 36.2259 33.6392 35.9744 33.8267 35.6761C34.0185 35.3778 34.1506 35.0369 34.223 34.6534L36.6136 34.6662C36.5241 35.2884 36.3303 35.8722 36.032 36.4176C35.7379 36.9631 35.3523 37.4446 34.875 37.8622C34.3977 38.2756 33.8395 38.5994 33.2003 38.8338C32.5611 39.0639 31.8516 39.179 31.0717 39.179C29.9212 39.179 28.8942 38.9126 27.9908 38.38C27.0874 37.8473 26.3757 37.0781 25.8558 36.0724C25.3359 35.0668 25.076 33.8608 25.076 32.4545C25.076 31.044 25.3381 29.8381 25.8622 28.8366C26.3864 27.831 27.1001 27.0618 28.0036 26.5291C28.907 25.9964 29.9297 25.7301 31.0717 25.7301C31.8004 25.7301 32.478 25.8324 33.1044 26.0369C33.7308 26.2415 34.2891 26.5419 34.7791 26.9382C35.2692 27.3303 35.6719 27.8118 35.9872 28.3828C36.3068 28.9496 36.5156 29.5973 36.6136 30.326ZM43.2502 39V25.9091H48.1593C49.165 25.9091 50.0087 26.0966 50.6905 26.4716C51.3766 26.8466 51.8944 27.3622 52.2438 28.0185C52.5975 28.6705 52.7743 29.4119 52.7743 30.2429C52.7743 31.0824 52.5975 31.8281 52.2438 32.4801C51.8901 33.1321 51.3681 33.6456 50.6777 34.0206C49.9874 34.3913 49.1373 34.5767 48.1273 34.5767H44.8738V32.6271H47.8077C48.3958 32.6271 48.8773 32.5249 49.2523 32.3203C49.6273 32.1158 49.9043 31.8345 50.0833 31.4766C50.2665 31.1186 50.3581 30.7074 50.3581 30.2429C50.3581 29.7784 50.2665 29.3693 50.0833 29.0156C49.9043 28.6619 49.6252 28.3871 49.2459 28.1911C48.8709 27.9908 48.3873 27.8906 47.7949 27.8906H45.6216V39H43.2502ZM54.7319 39V29.1818H56.9755V30.8182H57.0778C57.2567 30.2514 57.5636 29.8146 57.9982 29.5078C58.4371 29.1967 58.9379 29.0412 59.5004 29.0412C59.6282 29.0412 59.771 29.0476 59.9286 29.0604C60.0906 29.0689 60.2248 29.0838 60.3313 29.1051V31.2337C60.2333 31.1996 60.0778 31.1697 59.8647 31.1442C59.6559 31.1143 59.4535 31.0994 59.2575 31.0994C58.8356 31.0994 58.4563 31.1911 58.1197 31.3743C57.7873 31.5533 57.5252 31.8026 57.3335 32.1222C57.1417 32.4418 57.0458 32.8104 57.0458 33.228V39H54.7319ZM65.747 39.1918C64.7882 39.1918 63.9572 38.9808 63.2541 38.5589C62.551 38.1371 62.0055 37.5469 61.6177 36.7884C61.2342 36.0298 61.0424 35.1435 61.0424 34.1293C61.0424 33.1151 61.2342 32.2266 61.6177 31.4638C62.0055 30.701 62.551 30.1087 63.2541 29.6868C63.9572 29.2649 64.7882 29.054 65.747 29.054C66.7058 29.054 67.5368 29.2649 68.2399 29.6868C68.943 30.1087 69.4863 30.701 69.8699 31.4638C70.2576 32.2266 70.4515 33.1151 70.4515 34.1293C70.4515 35.1435 70.2576 36.0298 69.8699 36.7884C69.4863 37.5469 68.943 38.1371 68.2399 38.5589C67.5368 38.9808 66.7058 39.1918 65.747 39.1918ZM65.7598 37.3381C66.2797 37.3381 66.7143 37.1953 67.0637 36.9098C67.4132 36.62 67.6731 36.2322 67.8436 35.7464C68.0183 35.2607 68.1056 34.7195 68.1056 34.1229C68.1056 33.522 68.0183 32.9787 67.8436 32.4929C67.6731 32.0028 67.4132 31.6129 67.0637 31.3232C66.7143 31.0334 66.2797 30.8885 65.7598 30.8885C65.2271 30.8885 64.7839 31.0334 64.4302 31.3232C64.0808 31.6129 63.8187 32.0028 63.644 32.4929C63.4735 32.9787 63.3883 33.522 63.3883 34.1229C63.3883 34.7195 63.4735 35.2607 63.644 35.7464C63.8187 36.2322 64.0808 36.62 64.4302 36.9098C64.7839 37.1953 65.2271 37.3381 65.7598 37.3381ZM76.6982 39.1918C75.718 39.1918 74.8764 38.9766 74.1733 38.5462C73.4744 38.1158 72.9354 37.5213 72.5561 36.7628C72.1811 36 71.9936 35.1222 71.9936 34.1293C71.9936 33.1321 72.1854 32.2521 72.5689 31.4893C72.9524 30.7223 73.4936 30.1257 74.1925 29.6996C74.8956 29.2692 75.7266 29.054 76.6854 29.054C77.4822 29.054 78.1875 29.201 78.8011 29.495C79.419 29.7848 79.9112 30.196 80.2777 30.7287C80.6442 31.2571 80.853 31.875 80.9041 32.5824H78.6925C78.603 32.1094 78.3899 31.7152 78.0533 31.3999C77.7209 31.0803 77.2756 30.9205 76.7173 30.9205C76.2443 30.9205 75.8288 31.0483 75.4709 31.304C75.1129 31.5554 74.8338 31.9176 74.6335 32.3906C74.4375 32.8636 74.3395 33.4304 74.3395 34.0909C74.3395 34.7599 74.4375 35.3352 74.6335 35.8168C74.8295 36.294 75.1044 36.6626 75.4581 36.9226C75.8161 37.1783 76.2358 37.3061 76.7173 37.3061C77.0582 37.3061 77.3629 37.2422 77.6314 37.1143C77.9041 36.9822 78.1321 36.7926 78.3153 36.5455C78.4986 36.2983 78.6243 35.9979 78.6925 35.6442H80.9041C80.8487 36.3388 80.6442 36.9545 80.2905 37.4915C79.9368 38.0241 79.4553 38.4418 78.8459 38.7443C78.2365 39.0426 77.5206 39.1918 76.6982 39.1918ZM87.1507 39.1918C86.1664 39.1918 85.3162 38.9872 84.6003 38.5781C83.8887 38.1648 83.3411 37.581 82.9576 36.8267C82.574 36.0682 82.3823 35.1754 82.3823 34.1484C82.3823 33.1385 82.574 32.2521 82.9576 31.4893C83.3453 30.7223 83.8865 30.1257 84.5811 29.6996C85.2757 29.2692 86.0918 29.054 87.0293 29.054C87.6344 29.054 88.2054 29.152 88.7424 29.348C89.2836 29.5398 89.7608 29.8381 90.1742 30.2429C90.5918 30.6477 90.9199 31.1634 91.1586 31.7898C91.3972 32.4119 91.5165 33.1534 91.5165 34.0142V34.7237H83.4689V33.1641H89.2985C89.2942 32.7209 89.1983 32.3267 89.0108 31.9815C88.8233 31.6321 88.5613 31.3572 88.2246 31.157C87.8922 30.9567 87.5044 30.8565 87.0613 30.8565C86.5882 30.8565 86.1728 30.9716 85.8148 31.2017C85.4569 31.4276 85.1777 31.7259 84.9775 32.0966C84.7814 32.4631 84.6813 32.8658 84.677 33.3047V34.6662C84.677 35.2372 84.7814 35.7273 84.9902 36.1364C85.199 36.5412 85.4909 36.8523 85.8659 37.0696C86.2409 37.2827 86.6799 37.3892 87.1827 37.3892C87.5194 37.3892 87.824 37.3423 88.0968 37.2486C88.3695 37.1506 88.606 37.0078 88.8063 36.8203C89.0066 36.6328 89.1578 36.4006 89.2601 36.1236L91.4206 36.3665C91.2843 36.9375 91.0243 37.4361 90.6408 37.8622C90.2615 38.2841 89.7757 38.6122 89.1834 38.8466C88.5911 39.0767 87.9135 39.1918 87.1507 39.1918ZM101.234 31.777L99.1246 32.0071C99.065 31.794 98.9606 31.5938 98.8114 31.4062C98.6665 31.2188 98.4705 31.0675 98.2234 30.9524C97.9762 30.8374 97.6737 30.7798 97.3157 30.7798C96.8342 30.7798 96.4293 30.8842 96.1012 31.093C95.7773 31.3018 95.6175 31.5724 95.6218 31.9048C95.6175 32.1903 95.7219 32.4226 95.935 32.6016C96.1523 32.7805 96.5103 32.9276 97.0089 33.0426L98.6836 33.4006C99.6126 33.6009 100.303 33.9183 100.755 34.353C101.211 34.7876 101.441 35.3565 101.445 36.0597C101.441 36.6776 101.26 37.223 100.902 37.696C100.548 38.1648 100.056 38.5312 99.4251 38.7955C98.7944 39.0597 98.07 39.1918 97.2518 39.1918C96.0501 39.1918 95.0827 38.9403 94.3498 38.4375C93.6168 37.9304 93.18 37.2251 93.0394 36.3217L95.2958 36.1044C95.3981 36.5476 95.6154 36.8821 95.9478 37.108C96.2802 37.3338 96.7127 37.4467 97.2454 37.4467C97.7951 37.4467 98.2362 37.3338 98.5685 37.108C98.9052 36.8821 99.0735 36.603 99.0735 36.2706C99.0735 35.9893 98.9648 35.7571 98.7475 35.5739C98.5344 35.3906 98.2021 35.25 97.7504 35.152L96.0756 34.8004C95.1339 34.6044 94.4371 34.2741 93.9854 33.8097C93.5337 33.3409 93.31 32.7486 93.3143 32.0327C93.31 31.4276 93.4741 30.9034 93.8065 30.4602C94.1431 30.0128 94.6097 29.6676 95.2063 29.4247C95.8072 29.1776 96.4996 29.054 97.2837 29.054C98.4343 29.054 99.3398 29.299 100 29.7891C100.665 30.2791 101.076 30.9418 101.234 31.777ZM111.113 31.777L109.004 32.0071C108.944 31.794 108.839 31.5938 108.69 31.4062C108.545 31.2188 108.349 31.0675 108.102 30.9524C107.855 30.8374 107.553 30.7798 107.195 30.7798C106.713 30.7798 106.308 30.8842 105.98 31.093C105.656 31.3018 105.496 31.5724 105.501 31.9048C105.496 32.1903 105.601 32.4226 105.814 32.6016C106.031 32.7805 106.389 32.9276 106.888 33.0426L108.562 33.4006C109.491 33.6009 110.182 33.9183 110.634 34.353C111.089 34.7876 111.32 35.3565 111.324 36.0597C111.32 36.6776 111.138 37.223 110.781 37.696C110.427 38.1648 109.935 38.5312 109.304 38.7955C108.673 39.0597 107.949 39.1918 107.131 39.1918C105.929 39.1918 104.962 38.9403 104.229 38.4375C103.496 37.9304 103.059 37.2251 102.918 36.3217L105.175 36.1044C105.277 36.5476 105.494 36.8821 105.827 37.108C106.159 37.3338 106.592 37.4467 107.124 37.4467C107.674 37.4467 108.115 37.3338 108.447 37.108C108.784 36.8821 108.952 36.603 108.952 36.2706C108.952 35.9893 108.844 35.7571 108.626 35.5739C108.413 35.3906 108.081 35.25 107.629 35.152L105.955 34.8004C105.013 34.6044 104.316 34.2741 103.864 33.8097C103.413 33.3409 103.189 32.7486 103.193 32.0327C103.189 31.4276 103.353 30.9034 103.685 30.4602C104.022 30.0128 104.489 29.6676 105.085 29.4247C105.686 29.1776 106.379 29.054 107.163 29.054C108.313 29.054 109.219 29.299 109.879 29.7891C110.544 30.2791 110.955 30.9418 111.113 31.777Z" fill="#292929"/>
<rect x="0.5" y="76.5" width="158" height="96" rx="12.5" fill="white" stroke="#C6C6C6"/>
<circle cx="29.0435" cy="108.217" r="12.5435" stroke="#242552"/>
<path d="M55.9728 112.783H54.1447L57.4732 103.328H59.5875L62.9206 112.783H61.0925L58.5673 105.267H58.4934L55.9728 112.783ZM56.0328 109.076H61.0186V110.451H56.0328V109.076ZM66.1325 112.926C65.6832 112.926 65.2785 112.846 64.9184 112.686C64.5614 112.522 64.2783 112.282 64.069 111.965C63.8628 111.648 63.7597 111.258 63.7597 110.793C63.7597 110.393 63.8335 110.062 63.9813 109.8C64.129 109.539 64.3306 109.329 64.586 109.172C64.8415 109.015 65.1292 108.897 65.4493 108.817C65.7725 108.734 66.1064 108.674 66.4511 108.637C66.8666 108.594 67.2036 108.555 67.4621 108.522C67.7206 108.485 67.9084 108.429 68.0253 108.355C68.1453 108.278 68.2053 108.16 68.2053 108V107.972C68.2053 107.624 68.1022 107.355 67.896 107.164C67.6898 106.973 67.3928 106.878 67.0051 106.878C66.5957 106.878 66.271 106.967 66.031 107.146C65.794 107.324 65.634 107.535 65.5509 107.778L63.9905 107.557C64.1136 107.126 64.3167 106.766 64.5999 106.476C64.883 106.184 65.2293 105.966 65.6386 105.821C66.0479 105.673 66.5003 105.599 66.9958 105.599C67.3374 105.599 67.6775 105.639 68.0161 105.719C68.3546 105.799 68.6639 105.932 68.944 106.116C69.224 106.298 69.4487 106.546 69.618 106.86C69.7903 107.174 69.8765 107.566 69.8765 108.037V112.783H68.27V111.808H68.2146C68.113 112.005 67.9699 112.19 67.7852 112.362C67.6037 112.532 67.3744 112.669 67.0974 112.773C66.8235 112.875 66.5019 112.926 66.1325 112.926ZM66.5665 111.698C66.902 111.698 67.1928 111.631 67.439 111.499C67.6852 111.364 67.8745 111.185 68.0068 110.964C68.1423 110.742 68.21 110.5 68.21 110.239V109.403C68.1576 109.446 68.0684 109.486 67.9422 109.523C67.8191 109.56 67.6806 109.593 67.5267 109.62C67.3728 109.648 67.2205 109.673 67.0697 109.694C66.9189 109.716 66.7881 109.734 66.6773 109.75C66.428 109.783 66.2049 109.839 66.0079 109.916C65.8109 109.993 65.6555 110.1 65.5416 110.239C65.4278 110.374 65.3708 110.55 65.3708 110.765C65.3708 111.073 65.4832 111.305 65.7078 111.462C65.9325 111.619 66.2187 111.698 66.5665 111.698ZM74.1883 112.907C73.6312 112.907 73.1327 112.764 72.6926 112.478C72.2525 112.192 71.9047 111.776 71.6492 111.231C71.3938 110.687 71.2661 110.025 71.2661 109.246C71.2661 108.458 71.3953 107.794 71.6539 107.252C71.9155 106.707 72.2678 106.296 72.711 106.019C73.1542 105.739 73.6482 105.599 74.1929 105.599C74.6084 105.599 74.95 105.67 75.2178 105.812C75.4855 105.95 75.6979 106.118 75.8548 106.315C76.0118 106.509 76.1334 106.692 76.2195 106.864H76.2888V103.328H77.9646V112.783H76.3211V111.665H76.2195C76.1334 111.838 76.0087 112.021 75.8456 112.215C75.6825 112.406 75.4671 112.569 75.1993 112.704C74.9316 112.839 74.5945 112.907 74.1883 112.907ZM74.6546 111.536C75.0085 111.536 75.3101 111.441 75.5594 111.25C75.8087 111.056 75.998 110.787 76.1272 110.442C76.2565 110.097 76.3211 109.696 76.3211 109.237C76.3211 108.779 76.2565 108.38 76.1272 108.041C76.001 107.703 75.8133 107.44 75.564 107.252C75.3178 107.064 75.0146 106.97 74.6546 106.97C74.2822 106.97 73.9713 107.067 73.722 107.261C73.4727 107.455 73.285 107.723 73.1588 108.064C73.0326 108.406 72.9695 108.797 72.9695 109.237C72.9695 109.68 73.0326 110.076 73.1588 110.424C73.2881 110.768 73.4774 111.041 73.7267 111.241C73.979 111.438 74.2883 111.536 74.6546 111.536ZM81.4165 108.628V112.783H79.7454V103.328H81.3796V106.897H81.4627C81.6289 106.496 81.8859 106.181 82.2337 105.95C82.5845 105.716 83.0308 105.599 83.5724 105.599C84.0649 105.599 84.4942 105.702 84.8604 105.909C85.2267 106.115 85.5098 106.416 85.7099 106.813C85.913 107.21 86.0146 107.695 86.0146 108.268V112.783H84.3434V108.526C84.3434 108.049 84.2203 107.678 83.9741 107.414C83.7309 107.146 83.3893 107.012 82.9492 107.012C82.6538 107.012 82.3891 107.077 82.1552 107.206C81.9244 107.332 81.7428 107.515 81.6104 107.755C81.4812 107.995 81.4165 108.286 81.4165 108.628ZM89.7585 112.926C89.3092 112.926 88.9045 112.846 88.5444 112.686C88.1874 112.522 87.9042 112.282 87.695 111.965C87.4888 111.648 87.3857 111.258 87.3857 110.793C87.3857 110.393 87.4595 110.062 87.6072 109.8C87.755 109.539 87.9566 109.329 88.212 109.172C88.4674 109.015 88.7552 108.897 89.0753 108.817C89.3984 108.734 89.7324 108.674 90.0771 108.637C90.4925 108.594 90.8295 108.555 91.0881 108.522C91.3466 108.485 91.5343 108.429 91.6513 108.355C91.7713 108.278 91.8313 108.16 91.8313 108V107.972C91.8313 107.624 91.7282 107.355 91.522 107.164C91.3158 106.973 91.0188 106.878 90.631 106.878C90.2217 106.878 89.897 106.967 89.657 107.146C89.42 107.324 89.2599 107.535 89.1768 107.778L87.6165 107.557C87.7396 107.126 87.9427 106.766 88.2259 106.476C88.509 106.184 88.8552 105.966 89.2646 105.821C89.6739 105.673 90.1263 105.599 90.6218 105.599C90.9634 105.599 91.3035 105.639 91.642 105.719C91.9806 105.799 92.2899 105.932 92.57 106.116C92.85 106.298 93.0747 106.546 93.244 106.86C93.4163 107.174 93.5025 107.566 93.5025 108.037V112.783H91.896V111.808H91.8406C91.739 112.005 91.5959 112.19 91.4112 112.362C91.2296 112.532 91.0004 112.669 90.7234 112.773C90.4495 112.875 90.1278 112.926 89.7585 112.926ZM90.1925 111.698C90.5279 111.698 90.8188 111.631 91.065 111.499C91.3112 111.364 91.5005 111.185 91.6328 110.964C91.7682 110.742 91.8359 110.5 91.8359 110.239V109.403C91.7836 109.446 91.6944 109.486 91.5682 109.523C91.4451 109.56 91.3066 109.593 91.1527 109.62C90.9988 109.648 90.8465 109.673 90.6957 109.694C90.5449 109.716 90.4141 109.734 90.3033 109.75C90.054 109.783 89.8308 109.839 89.6339 109.916C89.4369 109.993 89.2815 110.1 89.1676 110.239C89.0537 110.374 88.9968 110.55 88.9968 110.765C88.9968 111.073 89.1091 111.305 89.3338 111.462C89.5585 111.619 89.8447 111.698 90.1925 111.698ZM95.1829 112.783V105.692H96.8033V106.873H96.8771C97.0064 106.464 97.228 106.149 97.5419 105.927C97.8589 105.702 98.2205 105.59 98.6268 105.59C98.7191 105.59 98.8222 105.595 98.9361 105.604C99.053 105.61 99.15 105.621 99.2269 105.636V107.174C99.1561 107.149 99.0438 107.127 98.8899 107.109C98.7391 107.087 98.5929 107.077 98.4513 107.077C98.1467 107.077 97.8728 107.143 97.6296 107.275C97.3896 107.404 97.2003 107.584 97.0618 107.815C96.9233 108.046 96.854 108.312 96.854 108.614V112.783H95.1829ZM111.728 106.518H110.002C109.953 106.235 109.862 105.984 109.729 105.765C109.597 105.544 109.432 105.356 109.235 105.202C109.038 105.048 108.814 104.933 108.561 104.856C108.312 104.776 108.043 104.736 107.754 104.736C107.24 104.736 106.784 104.865 106.387 105.124C105.99 105.379 105.679 105.755 105.455 106.25C105.23 106.743 105.118 107.344 105.118 108.055C105.118 108.779 105.23 109.388 105.455 109.883C105.682 110.376 105.993 110.748 106.387 111.001C106.784 111.25 107.238 111.375 107.749 111.375C108.032 111.375 108.297 111.338 108.543 111.264C108.792 111.187 109.015 111.074 109.212 110.927C109.412 110.779 109.58 110.597 109.716 110.382C109.854 110.167 109.949 109.92 110.002 109.643L111.728 109.653C111.664 110.102 111.524 110.524 111.308 110.917C111.096 111.311 110.817 111.659 110.473 111.961C110.128 112.259 109.725 112.493 109.263 112.663C108.801 112.829 108.289 112.912 107.726 112.912C106.895 112.912 106.153 112.719 105.501 112.335C104.848 111.95 104.334 111.395 103.959 110.668C103.583 109.942 103.396 109.071 103.396 108.055C103.396 107.037 103.585 106.166 103.963 105.442C104.342 104.716 104.857 104.16 105.51 103.776C106.162 103.391 106.901 103.199 107.726 103.199C108.252 103.199 108.741 103.273 109.194 103.42C109.646 103.568 110.049 103.785 110.403 104.071C110.757 104.354 111.048 104.702 111.276 105.115C111.507 105.524 111.658 105.992 111.728 106.518ZM115.263 112.926C114.814 112.926 114.409 112.846 114.049 112.686C113.692 112.522 113.409 112.282 113.2 111.965C112.994 111.648 112.891 111.258 112.891 110.793C112.891 110.393 112.964 110.062 113.112 109.8C113.26 109.539 113.461 109.329 113.717 109.172C113.972 109.015 114.26 108.897 114.58 108.817C114.903 108.734 115.237 108.674 115.582 108.637C115.997 108.594 116.334 108.555 116.593 108.522C116.851 108.485 117.039 108.429 117.156 108.355C117.276 108.278 117.336 108.16 117.336 108V107.972C117.336 107.624 117.233 107.355 117.027 107.164C116.821 106.973 116.524 106.878 116.136 106.878C115.727 106.878 115.402 106.967 115.162 107.146C114.925 107.324 114.765 107.535 114.682 107.778L113.121 107.557C113.244 107.126 113.448 106.766 113.731 106.476C114.014 106.184 114.36 105.966 114.769 105.821C115.179 105.673 115.631 105.599 116.127 105.599C116.468 105.599 116.808 105.639 117.147 105.719C117.485 105.799 117.795 105.932 118.075 106.116C118.355 106.298 118.58 106.546 118.749 106.86C118.921 107.174 119.007 107.566 119.007 108.037V112.783H117.401V111.808H117.345C117.244 112.005 117.101 112.19 116.916 112.362C116.735 112.532 116.505 112.669 116.228 112.773C115.954 112.875 115.633 112.926 115.263 112.926ZM115.697 111.698C116.033 111.698 116.324 111.631 116.57 111.499C116.816 111.364 117.005 111.185 117.138 110.964C117.273 110.742 117.341 110.5 117.341 110.239V109.403C117.289 109.446 117.199 109.486 117.073 109.523C116.95 109.56 116.811 109.593 116.658 109.62C116.504 109.648 116.351 109.673 116.201 109.694C116.05 109.716 115.919 109.734 115.808 109.75C115.559 109.783 115.336 109.839 115.139 109.916C114.942 109.993 114.786 110.1 114.672 110.239C114.559 110.374 114.502 110.55 114.502 110.765C114.502 111.073 114.614 111.305 114.839 111.462C115.063 111.619 115.35 111.698 115.697 111.698ZM120.688 112.783V105.692H122.308V106.873H122.382C122.511 106.464 122.733 106.149 123.047 105.927C123.364 105.702 123.725 105.59 124.132 105.59C124.224 105.59 124.327 105.595 124.441 105.604C124.558 105.61 124.655 105.621 124.732 105.636V107.174C124.661 107.149 124.549 107.127 124.395 107.109C124.244 107.087 124.098 107.077 123.956 107.077C123.652 107.077 123.378 107.143 123.134 107.275C122.894 107.404 122.705 107.584 122.567 107.815C122.428 108.046 122.359 108.312 122.359 108.614V112.783H120.688ZM128.181 112.907C127.624 112.907 127.126 112.764 126.686 112.478C126.246 112.192 125.898 111.776 125.642 111.231C125.387 110.687 125.259 110.025 125.259 109.246C125.259 108.458 125.388 107.794 125.647 107.252C125.909 106.707 126.261 106.296 126.704 106.019C127.147 105.739 127.641 105.599 128.186 105.599C128.602 105.599 128.943 105.67 129.211 105.812C129.479 105.95 129.691 106.118 129.848 106.315C130.005 106.509 130.127 106.692 130.213 106.864H130.282V103.328H131.958V112.783H130.314V111.665H130.213C130.127 111.838 130.002 112.021 129.839 112.215C129.676 112.406 129.46 112.569 129.192 112.704C128.925 112.839 128.588 112.907 128.181 112.907ZM128.648 111.536C129.002 111.536 129.303 111.441 129.553 111.25C129.802 111.056 129.991 110.787 130.12 110.442C130.25 110.097 130.314 109.696 130.314 109.237C130.314 108.779 130.25 108.38 130.12 108.041C129.994 107.703 129.806 107.44 129.557 107.252C129.311 107.064 129.008 106.97 128.648 106.97C128.275 106.97 127.964 107.067 127.715 107.261C127.466 107.455 127.278 107.723 127.152 108.064C127.026 108.406 126.963 108.797 126.963 109.237C126.963 109.68 127.026 110.076 127.152 110.424C127.281 110.768 127.471 111.041 127.72 111.241C127.972 111.438 128.281 111.536 128.648 111.536Z" fill="black"/>
<circle cx="29.0435" cy="144.304" r="12.5435" stroke="#B6B6B6"/>
<path d="M54.7587 148.869V139.415H58.3042C59.0305 139.415 59.6399 139.55 60.1323 139.821C60.6278 140.092 61.0017 140.464 61.2541 140.938C61.5095 141.409 61.6373 141.945 61.6373 142.545C61.6373 143.151 61.5095 143.69 61.2541 144.161C60.9986 144.632 60.6216 145.002 60.123 145.273C59.6245 145.541 59.0105 145.675 58.2811 145.675H55.9313V144.267H58.0502C58.475 144.267 58.8227 144.193 59.0936 144.045C59.3644 143.897 59.5645 143.694 59.6937 143.436C59.8261 143.177 59.8922 142.88 59.8922 142.545C59.8922 142.209 59.8261 141.914 59.6937 141.659C59.5645 141.403 59.3629 141.205 59.089 141.063C58.8181 140.918 58.4688 140.846 58.041 140.846H56.4714V148.869H54.7587ZM63.2853 148.869H61.4572L64.7857 139.415H66.9L70.2331 148.869H68.405L65.8798 141.354H65.8059L63.2853 148.869ZM63.3453 145.162H68.3311V146.538H63.3453V145.162ZM79.248 139.415V148.869H77.7245L73.2696 142.429H73.1911V148.869H71.4784V139.415H73.0111L77.4614 145.86H77.5445V139.415H79.248ZM92.4315 142.605H90.7049C90.6557 142.322 90.5649 142.071 90.4325 141.852C90.3002 141.631 90.1355 141.443 89.9386 141.289C89.7416 141.135 89.5169 141.02 89.2646 140.943C89.0153 140.863 88.746 140.823 88.4567 140.823C87.9427 140.823 87.4872 140.952 87.0902 141.211C86.6932 141.466 86.3823 141.842 86.1577 142.337C85.933 142.83 85.8207 143.431 85.8207 144.142C85.8207 144.865 85.933 145.475 86.1577 145.97C86.3854 146.463 86.6963 146.835 87.0902 147.087C87.4872 147.337 87.9412 147.461 88.4521 147.461C88.7352 147.461 88.9999 147.424 89.2461 147.351C89.4954 147.274 89.7185 147.161 89.9155 147.014C90.1155 146.866 90.2833 146.684 90.4187 146.469C90.5572 146.253 90.6526 146.007 90.7049 145.73L92.4315 145.739C92.3668 146.189 92.2268 146.61 92.0114 147.004C91.799 147.398 91.5205 147.746 91.1758 148.048C90.8311 148.346 90.4279 148.58 89.9663 148.749C89.5046 148.916 88.9922 148.999 88.429 148.999C87.598 148.999 86.8563 148.806 86.2038 148.422C85.5514 148.037 85.0374 147.481 84.6619 146.755C84.2865 146.029 84.0987 145.158 84.0987 144.142C84.0987 143.123 84.288 142.252 84.6665 141.529C85.0451 140.803 85.5606 140.247 86.2131 139.863C86.8655 139.478 87.6042 139.286 88.429 139.286C88.9553 139.286 89.4446 139.36 89.897 139.507C90.3494 139.655 90.7526 139.872 91.1065 140.158C91.4605 140.441 91.7513 140.789 91.979 141.201C92.2099 141.611 92.3607 142.079 92.4315 142.605ZM95.9665 149.013C95.5172 149.013 95.1125 148.933 94.7524 148.772C94.3954 148.609 94.1122 148.369 93.903 148.052C93.6968 147.735 93.5937 147.344 93.5937 146.88C93.5937 146.48 93.6675 146.149 93.8153 145.887C93.963 145.626 94.1646 145.416 94.42 145.259C94.6755 145.102 94.9632 144.984 95.2833 144.904C95.6064 144.821 95.9404 144.761 96.2851 144.724C96.7006 144.681 97.0376 144.642 97.2961 144.608C97.5546 144.572 97.7423 144.516 97.8593 144.442C97.9793 144.365 98.0393 144.247 98.0393 144.087V144.059C98.0393 143.711 97.9362 143.442 97.73 143.251C97.5238 143.06 97.2268 142.965 96.839 142.965C96.4297 142.965 96.105 143.054 95.865 143.233C95.628 143.411 95.468 143.622 95.3849 143.865L93.8245 143.644C93.9476 143.213 94.1507 142.853 94.4339 142.563C94.717 142.271 95.0632 142.052 95.4726 141.908C95.8819 141.76 96.3343 141.686 96.8298 141.686C97.1714 141.686 97.5115 141.726 97.8501 141.806C98.1886 141.886 98.4979 142.019 98.778 142.203C99.058 142.385 99.2827 142.633 99.452 142.947C99.6243 143.26 99.7105 143.653 99.7105 144.124V148.869H98.104V147.895H98.0486C97.947 148.092 97.8039 148.277 97.6192 148.449C97.4376 148.619 97.2084 148.756 96.9314 148.86C96.6575 148.962 96.3358 149.013 95.9665 149.013ZM96.4005 147.785C96.7359 147.785 97.0268 147.718 97.273 147.586C97.5192 147.451 97.7085 147.272 97.8408 147.051C97.9762 146.829 98.0439 146.587 98.0439 146.326V145.49C97.9916 145.533 97.9024 145.573 97.7762 145.61C97.6531 145.647 97.5146 145.679 97.3607 145.707C97.2068 145.735 97.0545 145.759 96.9037 145.781C96.7529 145.803 96.6221 145.821 96.5113 145.836C96.262 145.87 96.0389 145.926 95.8419 146.003C95.6449 146.08 95.4895 146.187 95.3756 146.326C95.2617 146.461 95.2048 146.637 95.2048 146.852C95.2048 147.16 95.3171 147.392 95.5418 147.549C95.7665 147.706 96.0527 147.785 96.4005 147.785ZM101.391 148.869V141.779H103.011V142.96H103.085C103.214 142.551 103.436 142.236 103.75 142.014C104.067 141.789 104.429 141.677 104.835 141.677C104.927 141.677 105.03 141.682 105.144 141.691C105.261 141.697 105.358 141.708 105.435 141.723V143.26C105.364 143.236 105.252 143.214 105.098 143.196C104.947 143.174 104.801 143.163 104.659 143.163C104.355 143.163 104.081 143.23 103.838 143.362C103.598 143.491 103.408 143.671 103.27 143.902C103.131 144.133 103.062 144.399 103.062 144.701V148.869H101.391ZM108.885 148.994C108.328 148.994 107.829 148.851 107.389 148.565C106.949 148.279 106.601 147.863 106.346 147.318C106.09 146.774 105.962 146.112 105.962 145.333C105.962 144.545 106.092 143.881 106.35 143.339C106.612 142.794 106.964 142.383 107.407 142.106C107.85 141.826 108.344 141.686 108.889 141.686C109.305 141.686 109.646 141.757 109.914 141.899C110.182 142.037 110.394 142.205 110.551 142.402C110.708 142.596 110.83 142.779 110.916 142.951H110.985V139.415H112.661V148.869H111.017V147.752H110.916C110.83 147.925 110.705 148.108 110.542 148.302C110.379 148.492 110.163 148.656 109.896 148.791C109.628 148.926 109.291 148.994 108.885 148.994ZM109.351 147.623C109.705 147.623 110.006 147.528 110.256 147.337C110.505 147.143 110.694 146.874 110.824 146.529C110.953 146.184 111.017 145.783 111.017 145.324C111.017 144.865 110.953 144.467 110.824 144.128C110.697 143.79 110.51 143.527 110.26 143.339C110.014 143.151 109.711 143.057 109.351 143.057C108.978 143.057 108.668 143.154 108.418 143.348C108.169 143.542 107.981 143.81 107.855 144.151C107.729 144.493 107.666 144.884 107.666 145.324C107.666 145.767 107.729 146.163 107.855 146.51C107.984 146.855 108.174 147.127 108.423 147.328C108.675 147.525 108.985 147.623 109.351 147.623Z" fill="black"/>
<circle cx="28.8262" cy="108" r="8" fill="#242552"/>
<rect x="147" width="153" height="39" rx="8" fill="#242552"/>
<path d="M203.693 19.3636C203.693 20.1473 203.547 20.8184 203.253 21.3771C202.962 21.9335 202.564 22.3596 202.06 22.6555C201.558 22.9515 200.989 23.0994 200.352 23.0994C199.715 23.0994 199.144 22.9515 198.64 22.6555C198.138 22.3572 197.741 21.9299 197.447 21.3736C197.156 20.8149 197.01 20.1449 197.01 19.3636C197.01 18.58 197.156 17.91 197.447 17.3537C197.741 16.795 198.138 16.3677 198.64 16.0717C199.144 15.7758 199.715 15.6278 200.352 15.6278C200.989 15.6278 201.558 15.7758 202.06 16.0717C202.564 16.3677 202.962 16.795 203.253 17.3537C203.547 17.91 203.693 18.58 203.693 19.3636ZM202.369 19.3636C202.369 18.812 202.282 18.3468 202.11 17.968C201.939 17.5869 201.702 17.2992 201.399 17.1051C201.096 16.9086 200.747 16.8104 200.352 16.8104C199.956 16.8104 199.607 16.9086 199.304 17.1051C199.001 17.2992 198.763 17.5869 198.59 17.968C198.42 18.3468 198.335 18.812 198.335 19.3636C198.335 19.9152 198.42 20.3816 198.59 20.7628C198.763 21.1416 199.001 21.4292 199.304 21.6257C199.607 21.8198 199.956 21.9169 200.352 21.9169C200.747 21.9169 201.096 21.8198 201.399 21.6257C201.702 21.4292 201.939 21.1416 202.11 20.7628C202.282 20.3816 202.369 19.9152 202.369 19.3636ZM204.297 16.8317V15.7273H210.1V16.8317H207.852V23H206.545V16.8317H204.297ZM211.218 23V15.7273H213.946C214.504 15.7273 214.973 15.8314 215.352 16.0398C215.733 16.2481 216.021 16.5346 216.215 16.8991C216.411 17.2614 216.509 17.6733 216.509 18.1349C216.509 18.6013 216.411 19.0156 216.215 19.3778C216.018 19.7401 215.728 20.0253 215.345 20.2337C214.961 20.4396 214.489 20.5426 213.928 20.5426H212.12V19.4595H213.75C214.077 19.4595 214.344 19.4027 214.553 19.2891C214.761 19.1754 214.915 19.0192 215.014 18.8203C215.116 18.6214 215.167 18.393 215.167 18.1349C215.167 17.8769 215.116 17.6496 215.014 17.4531C214.915 17.2566 214.76 17.1039 214.549 16.995C214.341 16.8838 214.072 16.8281 213.743 16.8281H212.536V23H211.218ZM221.107 15.7273L223 21.4517H223.075L224.964 15.7273H226.413L223.849 23H222.222L219.662 15.7273H221.107ZM229.143 23.1065C228.596 23.1065 228.123 22.9929 227.726 22.7656C227.33 22.536 227.026 22.2116 226.813 21.7926C226.6 21.3712 226.494 20.8752 226.494 20.3047C226.494 19.7436 226.6 19.2512 226.813 18.8274C227.029 18.4013 227.329 18.0698 227.715 17.8331C228.101 17.594 228.554 17.4744 229.075 17.4744C229.411 17.4744 229.729 17.5289 230.027 17.6378C230.328 17.7443 230.593 17.91 230.822 18.1349C231.054 18.3598 231.237 18.6463 231.369 18.9943C231.502 19.34 231.568 19.7519 231.568 20.2301V20.6243H227.097V19.7578H230.336C230.333 19.5116 230.28 19.2926 230.176 19.1009C230.072 18.9067 229.926 18.754 229.739 18.6428C229.555 18.5315 229.339 18.4759 229.093 18.4759C228.83 18.4759 228.599 18.5398 228.4 18.6676C228.202 18.7931 228.047 18.9588 227.935 19.1648C227.826 19.3684 227.771 19.5921 227.768 19.8359V20.5923C227.768 20.9096 227.826 21.1818 227.942 21.4091C228.058 21.634 228.221 21.8068 228.429 21.9276C228.637 22.0459 228.881 22.1051 229.16 22.1051C229.347 22.1051 229.517 22.0791 229.668 22.027C229.82 21.9725 229.951 21.8932 230.062 21.7891C230.174 21.6849 230.258 21.5559 230.315 21.402L231.515 21.5369C231.439 21.8542 231.295 22.1312 231.082 22.3679C230.871 22.6023 230.601 22.7846 230.272 22.9148C229.943 23.0426 229.566 23.1065 229.143 23.1065ZM232.656 23V17.5455H233.902V18.4545H233.959C234.058 18.1397 234.229 17.897 234.47 17.7266C234.714 17.5537 234.992 17.4673 235.305 17.4673C235.376 17.4673 235.455 17.4709 235.543 17.478C235.633 17.4827 235.707 17.491 235.766 17.5028V18.6854C235.712 18.6664 235.626 18.6499 235.507 18.6357C235.391 18.6191 235.279 18.6108 235.17 18.6108C234.935 18.6108 234.725 18.6617 234.538 18.7635C234.353 18.8629 234.207 19.0014 234.101 19.179C233.994 19.3565 233.941 19.5613 233.941 19.7933V23H232.656ZM236.62 23V17.5455H237.906V23H236.62ZM237.267 16.7713C237.063 16.7713 236.888 16.7038 236.741 16.5689C236.594 16.4316 236.521 16.267 236.521 16.0753C236.521 15.8812 236.594 15.7166 236.741 15.5817C236.888 15.4444 237.063 15.3757 237.267 15.3757C237.473 15.3757 237.648 15.4444 237.792 15.5817C237.939 15.7166 238.013 15.8812 238.013 16.0753C238.013 16.267 237.939 16.4316 237.792 16.5689C237.648 16.7038 237.473 16.7713 237.267 16.7713ZM241.991 17.5455V18.5398H238.766V17.5455H241.991ZM239.572 23V17.0305C239.572 16.6636 239.648 16.3582 239.8 16.1143C239.954 15.8705 240.159 15.6882 240.418 15.5675C240.676 15.4467 240.962 15.3864 241.277 15.3864C241.499 15.3864 241.697 15.4041 241.87 15.4396C242.043 15.4751 242.171 15.5071 242.253 15.5355L241.998 16.5298C241.943 16.5133 241.875 16.4967 241.792 16.4801C241.709 16.4612 241.617 16.4517 241.515 16.4517C241.276 16.4517 241.106 16.5097 241.007 16.6257C240.91 16.7393 240.861 16.9027 240.861 17.1158V23H239.572ZM242.997 23V17.5455H244.283V23H242.997ZM243.644 16.7713C243.44 16.7713 243.265 16.7038 243.118 16.5689C242.971 16.4316 242.898 16.267 242.898 16.0753C242.898 15.8812 242.971 15.7166 243.118 15.5817C243.265 15.4444 243.44 15.3757 243.644 15.3757C243.85 15.3757 244.025 15.4444 244.169 15.5817C244.316 15.7166 244.389 15.8812 244.389 16.0753C244.389 16.267 244.316 16.4316 244.169 16.5689C244.025 16.7038 243.85 16.7713 243.644 16.7713ZM247.984 23.1065C247.44 23.1065 246.972 22.987 246.581 22.7479C246.193 22.5088 245.894 22.1785 245.683 21.7571C245.475 21.3333 245.37 20.8456 245.37 20.294C245.37 19.7401 245.477 19.2512 245.69 18.8274C245.903 18.4013 246.204 18.0698 246.592 17.8331C246.983 17.594 247.444 17.4744 247.977 17.4744C248.42 17.4744 248.812 17.5561 249.152 17.7195C249.496 17.8804 249.769 18.1089 249.973 18.4048C250.176 18.6984 250.292 19.0417 250.321 19.4347H249.092C249.042 19.1719 248.924 18.9529 248.737 18.7777C248.552 18.6001 248.305 18.5114 247.995 18.5114C247.732 18.5114 247.501 18.5824 247.302 18.7244C247.103 18.8641 246.948 19.0653 246.837 19.3281C246.728 19.5909 246.674 19.9058 246.674 20.2727C246.674 20.6444 246.728 20.964 246.837 21.2315C246.946 21.4967 247.099 21.7015 247.295 21.8459C247.494 21.9879 247.727 22.0589 247.995 22.0589C248.184 22.0589 248.353 22.0234 248.503 21.9524C248.654 21.879 248.781 21.7737 248.883 21.6364C248.984 21.4991 249.054 21.3321 249.092 21.1357H250.321C250.29 21.5215 250.176 21.8636 249.98 22.1619C249.783 22.4579 249.516 22.6899 249.177 22.858C248.839 23.0237 248.441 23.1065 247.984 23.1065ZM252.946 23.1101C252.6 23.1101 252.289 23.0485 252.012 22.9254C251.737 22.8 251.52 22.6153 251.359 22.3714C251.2 22.1276 251.121 21.8269 251.121 21.4695C251.121 21.1617 251.177 20.9072 251.291 20.706C251.405 20.5047 251.56 20.3438 251.756 20.223C251.953 20.1023 252.174 20.0111 252.42 19.9496C252.669 19.8857 252.926 19.8395 253.191 19.8111C253.511 19.7779 253.77 19.7483 253.969 19.7223C254.168 19.6939 254.312 19.6513 254.402 19.5945C254.494 19.5353 254.54 19.4441 254.54 19.321V19.2997C254.54 19.0322 254.461 18.825 254.302 18.6783C254.144 18.5315 253.915 18.4581 253.617 18.4581C253.302 18.4581 253.052 18.5268 252.868 18.6641C252.686 18.8014 252.562 18.9635 252.498 19.1506L251.298 18.9801C251.393 18.6487 251.549 18.3717 251.767 18.1491C251.985 17.9242 252.251 17.7562 252.566 17.6449C252.881 17.5312 253.229 17.4744 253.61 17.4744C253.873 17.4744 254.134 17.5052 254.395 17.5668C254.655 17.6283 254.893 17.7301 255.109 17.8722C255.324 18.0118 255.497 18.2024 255.627 18.4439C255.76 18.6854 255.826 18.9872 255.826 19.3494V23H254.59V22.2507H254.547C254.469 22.4022 254.359 22.5443 254.217 22.6768C254.078 22.8071 253.901 22.9124 253.688 22.9929C253.477 23.071 253.23 23.1101 252.946 23.1101ZM253.28 22.1655C253.538 22.1655 253.762 22.1146 253.951 22.0128C254.14 21.9086 254.286 21.7713 254.388 21.6009C254.492 21.4304 254.544 21.2446 254.544 21.0433V20.4006C254.504 20.4337 254.435 20.4645 254.338 20.4929C254.243 20.5213 254.137 20.5462 254.018 20.5675C253.9 20.5888 253.783 20.6077 253.667 20.6243C253.551 20.6409 253.45 20.6551 253.365 20.6669C253.173 20.6929 253.002 20.7356 252.85 20.7947C252.699 20.8539 252.579 20.9368 252.491 21.0433C252.404 21.1475 252.36 21.2824 252.36 21.4482C252.36 21.6849 252.446 21.8636 252.619 21.9844C252.792 22.1051 253.012 22.1655 253.28 22.1655ZM259.842 17.5455V18.5398H256.707V17.5455H259.842ZM257.481 16.2386H258.766V21.3594C258.766 21.5322 258.792 21.6648 258.844 21.7571C258.899 21.8471 258.97 21.9086 259.057 21.9418C259.145 21.9749 259.242 21.9915 259.349 21.9915C259.429 21.9915 259.503 21.9856 259.569 21.9737C259.637 21.9619 259.69 21.9512 259.725 21.9418L259.942 22.9467C259.873 22.9704 259.775 22.9964 259.647 23.0249C259.521 23.0533 259.368 23.0698 259.185 23.0746C258.863 23.084 258.573 23.0355 258.315 22.929C258.057 22.8201 257.852 22.652 257.701 22.4247C257.552 22.1974 257.478 21.9134 257.481 21.5724V16.2386ZM260.917 23V17.5455H262.203V23H260.917ZM261.564 16.7713C261.36 16.7713 261.185 16.7038 261.038 16.5689C260.891 16.4316 260.818 16.267 260.818 16.0753C260.818 15.8812 260.891 15.7166 261.038 15.5817C261.185 15.4444 261.36 15.3757 261.564 15.3757C261.77 15.3757 261.945 15.4444 262.089 15.5817C262.236 15.7166 262.309 15.8812 262.309 16.0753C262.309 16.267 262.236 16.4316 262.089 16.5689C261.945 16.7038 261.77 16.7713 261.564 16.7713ZM265.904 23.1065C265.371 23.1065 264.91 22.9893 264.519 22.755C264.128 22.5206 263.825 22.1927 263.61 21.7713C263.397 21.3499 263.29 20.8575 263.29 20.294C263.29 19.7306 263.397 19.237 263.61 18.8132C263.825 18.3894 264.128 18.0604 264.519 17.826C264.91 17.5916 265.371 17.4744 265.904 17.4744C266.437 17.4744 266.898 17.5916 267.289 17.826C267.68 18.0604 267.981 18.3894 268.195 18.8132C268.41 19.237 268.518 19.7306 268.518 20.294C268.518 20.8575 268.41 21.3499 268.195 21.7713C267.981 22.1927 267.68 22.5206 267.289 22.755C266.898 22.9893 266.437 23.1065 265.904 23.1065ZM265.911 22.0767C266.2 22.0767 266.441 21.9974 266.636 21.8388C266.83 21.6778 266.974 21.4624 267.069 21.1925C267.166 20.9226 267.214 20.6219 267.214 20.2905C267.214 19.9567 267.166 19.6548 267.069 19.3849C266.974 19.1127 266.83 18.8961 266.636 18.7351C266.441 18.5741 266.2 18.4936 265.911 18.4936C265.615 18.4936 265.369 18.5741 265.172 18.7351C264.978 18.8961 264.833 19.1127 264.736 19.3849C264.641 19.6548 264.594 19.9567 264.594 20.2905C264.594 20.6219 264.641 20.9226 264.736 21.1925C264.833 21.4624 264.978 21.6778 265.172 21.8388C265.369 21.9974 265.615 22.0767 265.911 22.0767ZM270.894 19.804V23H269.609V17.5455H270.837V18.4723H270.901C271.027 18.1669 271.227 17.9242 271.502 17.7443C271.778 17.5644 272.121 17.4744 272.528 17.4744C272.904 17.4744 273.232 17.5549 273.511 17.7159C273.793 17.8769 274.011 18.1101 274.165 18.4155C274.321 18.7209 274.398 19.0914 274.396 19.527V23H273.11V19.7259C273.11 19.3613 273.015 19.076 272.826 18.87C272.639 18.6641 272.38 18.5611 272.048 18.5611C271.823 18.5611 271.623 18.6108 271.448 18.7102C271.275 18.8073 271.139 18.9482 271.04 19.1328C270.943 19.3175 270.894 19.5412 270.894 19.804Z" fill="white"/>
<path d="M238.363 80.99V83.3537C238.363 84.1804 237.975 84.9554 237.303 85.4333L223.095 95.8441C222.178 96.5158 220.925 96.5158 220.021 95.8312L218.161 94.4362C217.321 93.8033 216.637 92.4342 216.637 91.3879V80.99C216.637 79.5433 217.748 77.9417 219.104 77.4379L226.169 74.79C226.905 74.5187 228.094 74.5187 228.83 74.79L235.895 77.4379C237.252 77.9417 238.363 79.5433 238.363 80.99Z" fill="white"/>
<path d="M236.309 87.9392C237.161 87.3192 238.363 87.9263 238.363 88.9854V91.4138C238.363 92.46 237.678 93.8163 236.839 94.4492L229.773 99.7321C229.153 100.184 228.326 100.417 227.5 100.417C226.673 100.417 225.846 100.184 225.226 99.7192L224.154 98.9183C223.457 98.4017 223.457 97.3554 224.167 96.8388L236.309 87.9392Z" fill="white"/>
<path d="M173 23.5188C173.975 23.5188 174.766 22.6978 174.766 21.685C174.766 20.6723 173.975 19.8513 173 19.8513C172.025 19.8513 171.234 20.6723 171.234 21.685C171.234 22.6978 172.025 23.5188 173 23.5188Z" fill="white"/>
<path d="M178.038 14.62H167.963C167.876 14.62 167.8 14.62 167.714 14.62V13.315C167.714 10.0187 168.613 7.825 173 7.825C177.691 7.825 178.287 10.1987 178.287 12.2687C178.287 12.7075 178.623 13.0563 179.045 13.0563C179.468 13.0563 179.804 12.7075 179.804 12.2687C179.804 8.275 177.518 6.25 173 6.25C166.901 6.25 166.197 10.2775 166.197 13.315V14.7212C163.164 15.115 162.167 16.7125 162.167 20.6387V22.7312C162.167 27.3437 163.521 28.75 167.963 28.75H178.038C182.479 28.75 183.834 27.3437 183.834 22.7312V20.6387C183.834 16.0263 182.479 14.62 178.038 14.62ZM173 25.0825C171.191 25.0825 169.729 23.5525 169.729 21.685C169.729 19.8063 171.202 18.2875 173 18.2875C174.799 18.2875 176.272 19.8175 176.272 21.685C176.272 23.5638 174.809 25.0825 173 25.0825Z" fill="white"/>
</svg>
