<svg width="393" height="301" viewBox="0 0 393 301" fill="none" xmlns="http://www.w3.org/2000/svg">
<rect x="120" y="104" width="273" height="93" rx="15" fill="white"/>
<rect x="120.5" y="104.5" width="272" height="92" rx="14.5" stroke="#B1B1B1" stroke-opacity="0.23"/>
<rect x="137" y="131" width="40" height="40" rx="20" fill="#7E0000"/>
<path d="M195.016 122.636V131H193.924V122.636H195.016ZM200.081 124.304C200.881 124.304 201.529 124.548 202.025 125.036C202.521 125.516 202.769 126.212 202.769 127.124V131H201.689V127.28C201.689 126.624 201.525 126.124 201.197 125.78C200.869 125.428 200.421 125.252 199.853 125.252C199.277 125.252 198.817 125.432 198.473 125.792C198.137 126.152 197.969 126.676 197.969 127.364V131H196.877V124.424H197.969V125.36C198.185 125.024 198.477 124.764 198.845 124.58C199.221 124.396 199.633 124.304 200.081 124.304ZM207.001 129.992L209.041 124.424H210.205L207.625 131H206.353L203.773 124.424H204.949L207.001 129.992ZM217.279 127.46C217.279 127.668 217.267 127.888 217.243 128.12H211.987C212.027 128.768 212.247 129.276 212.647 129.644C213.055 130.004 213.547 130.184 214.123 130.184C214.595 130.184 214.987 130.076 215.299 129.86C215.619 129.636 215.843 129.34 215.971 128.972H217.147C216.971 129.604 216.619 130.12 216.091 130.52C215.563 130.912 214.907 131.108 214.123 131.108C213.499 131.108 212.939 130.968 212.443 130.688C211.955 130.408 211.571 130.012 211.291 129.5C211.011 128.98 210.871 128.38 210.871 127.7C210.871 127.02 211.007 126.424 211.279 125.912C211.551 125.4 211.931 125.008 212.419 124.736C212.915 124.456 213.483 124.316 214.123 124.316C214.747 124.316 215.299 124.452 215.779 124.724C216.259 124.996 216.627 125.372 216.883 125.852C217.147 126.324 217.279 126.86 217.279 127.46ZM216.151 127.232C216.151 126.816 216.059 126.46 215.875 126.164C215.691 125.86 215.439 125.632 215.119 125.48C214.807 125.32 214.459 125.24 214.075 125.24C213.523 125.24 213.051 125.416 212.659 125.768C212.275 126.12 212.055 126.608 211.999 127.232H216.151ZM221.049 131.108C220.545 131.108 220.093 131.024 219.693 130.856C219.293 130.68 218.977 130.44 218.745 130.136C218.513 129.824 218.385 129.468 218.361 129.068H219.489C219.521 129.396 219.673 129.664 219.945 129.872C220.225 130.08 220.589 130.184 221.037 130.184C221.453 130.184 221.781 130.092 222.021 129.908C222.261 129.724 222.381 129.492 222.381 129.212C222.381 128.924 222.253 128.712 221.997 128.576C221.741 128.432 221.345 128.292 220.809 128.156C220.321 128.028 219.921 127.9 219.609 127.772C219.305 127.636 219.041 127.44 218.817 127.184C218.601 126.92 218.493 126.576 218.493 126.152C218.493 125.816 218.593 125.508 218.793 125.228C218.993 124.948 219.277 124.728 219.645 124.568C220.013 124.4 220.433 124.316 220.905 124.316C221.633 124.316 222.221 124.5 222.669 124.868C223.117 125.236 223.357 125.74 223.389 126.38H222.297C222.273 126.036 222.133 125.76 221.877 125.552C221.629 125.344 221.293 125.24 220.869 125.24C220.477 125.24 220.165 125.324 219.933 125.492C219.701 125.66 219.585 125.88 219.585 126.152C219.585 126.368 219.653 126.548 219.789 126.692C219.933 126.828 220.109 126.94 220.317 127.028C220.533 127.108 220.829 127.2 221.205 127.304C221.677 127.432 222.061 127.56 222.357 127.688C222.653 127.808 222.905 127.992 223.113 128.24C223.329 128.488 223.441 128.812 223.449 129.212C223.449 129.572 223.349 129.896 223.149 130.184C222.949 130.472 222.665 130.7 222.297 130.868C221.937 131.028 221.521 131.108 221.049 131.108ZM226.322 125.324V129.2C226.322 129.52 226.39 129.748 226.526 129.884C226.662 130.012 226.898 130.076 227.234 130.076H228.038V131H227.054C226.446 131 225.99 130.86 225.686 130.58C225.382 130.3 225.23 129.84 225.23 129.2V125.324H224.378V124.424H225.23V122.768H226.322V124.424H228.038V125.324H226.322ZM235.362 127.46C235.362 127.668 235.35 127.888 235.326 128.12H230.07C230.11 128.768 230.33 129.276 230.73 129.644C231.138 130.004 231.63 130.184 232.206 130.184C232.678 130.184 233.07 130.076 233.382 129.86C233.702 129.636 233.926 129.34 234.054 128.972H235.23C235.054 129.604 234.702 130.12 234.174 130.52C233.646 130.912 232.99 131.108 232.206 131.108C231.582 131.108 231.022 130.968 230.526 130.688C230.038 130.408 229.654 130.012 229.374 129.5C229.094 128.98 228.954 128.38 228.954 127.7C228.954 127.02 229.09 126.424 229.362 125.912C229.634 125.4 230.014 125.008 230.502 124.736C230.998 124.456 231.566 124.316 232.206 124.316C232.83 124.316 233.382 124.452 233.862 124.724C234.342 124.996 234.71 125.372 234.966 125.852C235.23 126.324 235.362 126.86 235.362 127.46ZM234.234 127.232C234.234 126.816 234.142 126.46 233.958 126.164C233.774 125.86 233.522 125.632 233.202 125.48C232.89 125.32 232.542 125.24 232.158 125.24C231.606 125.24 231.134 125.416 230.742 125.768C230.358 126.12 230.138 126.608 230.082 127.232H234.234ZM236.395 127.688C236.395 127.016 236.531 126.428 236.803 125.924C237.075 125.412 237.447 125.016 237.919 124.736C238.399 124.456 238.935 124.316 239.527 124.316C240.039 124.316 240.515 124.436 240.955 124.676C241.395 124.908 241.731 125.216 241.963 125.6V122.12H243.067V131H241.963V129.764C241.747 130.156 241.427 130.48 241.003 130.736C240.579 130.984 240.083 131.108 239.515 131.108C238.931 131.108 238.399 130.964 237.919 130.676C237.447 130.388 237.075 129.984 236.803 129.464C236.531 128.944 236.395 128.352 236.395 127.688ZM241.963 127.7C241.963 127.204 241.863 126.772 241.663 126.404C241.463 126.036 241.191 125.756 240.847 125.564C240.511 125.364 240.139 125.264 239.731 125.264C239.323 125.264 238.951 125.36 238.615 125.552C238.279 125.744 238.011 126.024 237.811 126.392C237.611 126.76 237.511 127.192 237.511 127.688C237.511 128.192 237.611 128.632 237.811 129.008C238.011 129.376 238.279 129.66 238.615 129.86C238.951 130.052 239.323 130.148 239.731 130.148C240.139 130.148 240.511 130.052 240.847 129.86C241.191 129.66 241.463 129.376 241.663 129.008C241.863 128.632 241.963 128.196 241.963 127.7Z" fill="#242552"/>
<path d="M208.168 153.784V154.232H211.88V156.856H207.976C207.741 158.285 207.293 159.427 206.632 160.28C205.992 161.112 205.075 161.72 203.88 162.104C202.685 162.467 201.139 162.648 199.24 162.648V164.664C199.24 165.837 199.485 166.765 199.976 167.448C200.488 168.131 201.341 168.472 202.536 168.472C204.712 168.472 205.8 167.245 205.8 164.792H209.16C209.139 166.947 208.552 168.579 207.4 169.688C206.269 170.776 204.627 171.32 202.472 171.32C200.317 171.32 198.664 170.723 197.512 169.528C196.381 168.333 195.816 166.659 195.816 164.504V160.12C198.184 160.12 199.923 160.056 201.032 159.928C202.141 159.779 202.963 159.48 203.496 159.032C204.051 158.584 204.413 157.859 204.584 156.856H194.472V154.232H204.744V153.784V151.384H194.472V148.728H211.88V151.384H208.168V153.784ZM214.076 154.75V152.046H219.484V171H216.494V154.75H214.076ZM227.196 167.438L224.05 174.614H222.126L223.972 167.438H227.196ZM229.396 161.276C229.396 158.277 229.899 155.937 230.904 154.256C231.927 152.557 233.677 151.708 236.156 151.708C238.635 151.708 240.377 152.557 241.382 154.256C242.405 155.937 242.916 158.277 242.916 161.276C242.916 164.309 242.405 166.684 241.382 168.4C240.377 170.099 238.635 170.948 236.156 170.948C233.677 170.948 231.927 170.099 230.904 168.4C229.899 166.684 229.396 164.309 229.396 161.276ZM240.004 161.276C240.004 159.872 239.909 158.685 239.718 157.714C239.545 156.743 239.181 155.955 238.626 155.348C238.071 154.724 237.248 154.412 236.156 154.412C235.064 154.412 234.241 154.724 233.686 155.348C233.131 155.955 232.759 156.743 232.568 157.714C232.395 158.685 232.308 159.872 232.308 161.276C232.308 162.732 232.395 163.954 232.568 164.942C232.741 165.93 233.105 166.727 233.66 167.334C234.232 167.941 235.064 168.244 236.156 168.244C237.248 168.244 238.071 167.941 238.626 167.334C239.198 166.727 239.571 165.93 239.744 164.942C239.917 163.954 240.004 162.732 240.004 161.276ZM246.052 161.276C246.052 158.277 246.555 155.937 247.56 154.256C248.583 152.557 250.334 151.708 252.812 151.708C255.291 151.708 257.033 152.557 258.038 154.256C259.061 155.937 259.572 158.277 259.572 161.276C259.572 164.309 259.061 166.684 258.038 168.4C257.033 170.099 255.291 170.948 252.812 170.948C250.334 170.948 248.583 170.099 247.56 168.4C246.555 166.684 246.052 164.309 246.052 161.276ZM256.66 161.276C256.66 159.872 256.565 158.685 256.374 157.714C256.201 156.743 255.837 155.955 255.282 155.348C254.728 154.724 253.904 154.412 252.812 154.412C251.72 154.412 250.897 154.724 250.342 155.348C249.788 155.955 249.415 156.743 249.224 157.714C249.051 158.685 248.964 159.872 248.964 161.276C248.964 162.732 249.051 163.954 249.224 164.942C249.398 165.93 249.762 166.727 250.316 167.334C250.888 167.941 251.72 168.244 252.812 168.244C253.904 168.244 254.728 167.941 255.282 167.334C255.854 166.727 256.227 165.93 256.4 164.942C256.574 163.954 256.66 162.732 256.66 161.276ZM266.348 167.438L263.202 174.614H261.278L263.124 167.438H266.348ZM268.548 161.276C268.548 158.277 269.051 155.937 270.056 154.256C271.079 152.557 272.83 151.708 275.308 151.708C277.787 151.708 279.529 152.557 280.534 154.256C281.557 155.937 282.068 158.277 282.068 161.276C282.068 164.309 281.557 166.684 280.534 168.4C279.529 170.099 277.787 170.948 275.308 170.948C272.83 170.948 271.079 170.099 270.056 168.4C269.051 166.684 268.548 164.309 268.548 161.276ZM279.156 161.276C279.156 159.872 279.061 158.685 278.87 157.714C278.697 156.743 278.333 155.955 277.778 155.348C277.224 154.724 276.4 154.412 275.308 154.412C274.216 154.412 273.393 154.724 272.838 155.348C272.284 155.955 271.911 156.743 271.72 157.714C271.547 158.685 271.46 159.872 271.46 161.276C271.46 162.732 271.547 163.954 271.72 164.942C271.894 165.93 272.258 166.727 272.812 167.334C273.384 167.941 274.216 168.244 275.308 168.244C276.4 168.244 277.224 167.941 277.778 167.334C278.35 166.727 278.723 165.93 278.896 164.942C279.07 163.954 279.156 162.732 279.156 161.276ZM285.205 161.276C285.205 158.277 285.707 155.937 286.713 154.256C287.735 152.557 289.486 151.708 291.965 151.708C294.443 151.708 296.185 152.557 297.191 154.256C298.213 155.937 298.725 158.277 298.725 161.276C298.725 164.309 298.213 166.684 297.191 168.4C296.185 170.099 294.443 170.948 291.965 170.948C289.486 170.948 287.735 170.099 286.713 168.4C285.707 166.684 285.205 164.309 285.205 161.276ZM295.813 161.276C295.813 159.872 295.717 158.685 295.527 157.714C295.353 156.743 294.989 155.955 294.435 155.348C293.88 154.724 293.057 154.412 291.965 154.412C290.873 154.412 290.049 154.724 289.495 155.348C288.94 155.955 288.567 156.743 288.377 157.714C288.203 158.685 288.117 159.872 288.117 161.276C288.117 162.732 288.203 163.954 288.377 164.942C288.55 165.93 288.914 166.727 289.469 167.334C290.041 167.941 290.873 168.244 291.965 168.244C293.057 168.244 293.88 167.941 294.435 167.334C295.007 166.727 295.379 165.93 295.553 164.942C295.726 163.954 295.813 162.732 295.813 161.276ZM301.861 161.276C301.861 158.277 302.363 155.937 303.369 154.256C304.391 152.557 306.142 151.708 308.621 151.708C311.099 151.708 312.841 152.557 313.847 154.256C314.869 155.937 315.381 158.277 315.381 161.276C315.381 164.309 314.869 166.684 313.847 168.4C312.841 170.099 311.099 170.948 308.621 170.948C306.142 170.948 304.391 170.099 303.369 168.4C302.363 166.684 301.861 164.309 301.861 161.276ZM312.469 161.276C312.469 159.872 312.373 158.685 312.183 157.714C312.009 156.743 311.645 155.955 311.091 155.348C310.536 154.724 309.713 154.412 308.621 154.412C307.529 154.412 306.705 154.724 306.151 155.348C305.596 155.955 305.223 156.743 305.033 157.714C304.859 158.685 304.773 159.872 304.773 161.276C304.773 162.732 304.859 163.954 305.033 164.942C305.206 165.93 305.57 166.727 306.125 167.334C306.697 167.941 307.529 168.244 308.621 168.244C309.713 168.244 310.536 167.941 311.091 167.334C311.663 166.727 312.035 165.93 312.209 164.942C312.382 163.954 312.469 162.732 312.469 161.276Z" fill="#242552"/>
<path d="M359.462 144.92L367.753 147.142L365.532 155.434" stroke="#22AD57" stroke-width="1.5" stroke-miterlimit="10" stroke-linecap="round" stroke-linejoin="round"/>
<path d="M353.031 155.642L367.606 147.227" stroke="#22AD57" stroke-width="1.5" stroke-miterlimit="10" stroke-linecap="round" stroke-linejoin="round"/>
<path d="M159 145.5C171 135.1 145 148.167 130.5 156C143.5 187.5 177 169 171 165.5C165 162 144 158.5 159 145.5Z" fill="white"/>
<rect y="208" width="244" height="93" rx="15" fill="white"/>
<rect x="0.5" y="208.5" width="243" height="92" rx="14.5" stroke="#B1B1B1" stroke-opacity="0.23"/>
<rect x="17" y="235" width="40" height="40" rx="20" fill="#BBBCFF"/>
<path d="M75.016 226.636V235H73.924V226.636H75.016ZM80.0811 228.304C80.8811 228.304 81.5291 228.548 82.0251 229.036C82.5211 229.516 82.7691 230.212 82.7691 231.124V235H81.6891V231.28C81.6891 230.624 81.5251 230.124 81.1971 229.78C80.8691 229.428 80.4211 229.252 79.8531 229.252C79.2771 229.252 78.8171 229.432 78.4731 229.792C78.1371 230.152 77.9691 230.676 77.9691 231.364V235H76.8771V228.424H77.9691V229.36C78.1851 229.024 78.4771 228.764 78.8451 228.58C79.2211 228.396 79.6331 228.304 80.0811 228.304ZM87.0009 233.992L89.0409 228.424H90.2049L87.6249 235H86.3529L83.7729 228.424H84.9489L87.0009 233.992ZM97.2795 231.46C97.2795 231.668 97.2675 231.888 97.2435 232.12H91.9875C92.0275 232.768 92.2475 233.276 92.6475 233.644C93.0555 234.004 93.5475 234.184 94.1235 234.184C94.5955 234.184 94.9875 234.076 95.2995 233.86C95.6195 233.636 95.8435 233.34 95.9715 232.972H97.1475C96.9715 233.604 96.6195 234.12 96.0915 234.52C95.5635 234.912 94.9075 235.108 94.1235 235.108C93.4995 235.108 92.9395 234.968 92.4435 234.688C91.9555 234.408 91.5715 234.012 91.2915 233.5C91.0115 232.98 90.8715 232.38 90.8715 231.7C90.8715 231.02 91.0075 230.424 91.2795 229.912C91.5515 229.4 91.9315 229.008 92.4195 228.736C92.9155 228.456 93.4835 228.316 94.1235 228.316C94.7475 228.316 95.2995 228.452 95.7795 228.724C96.2595 228.996 96.6275 229.372 96.8835 229.852C97.1475 230.324 97.2795 230.86 97.2795 231.46ZM96.1515 231.232C96.1515 230.816 96.0595 230.46 95.8755 230.164C95.6915 229.86 95.4395 229.632 95.1195 229.48C94.8075 229.32 94.4595 229.24 94.0755 229.24C93.5235 229.24 93.0515 229.416 92.6595 229.768C92.2755 230.12 92.0555 230.608 91.9995 231.232H96.1515ZM101.049 235.108C100.545 235.108 100.093 235.024 99.6929 234.856C99.2929 234.68 98.9769 234.44 98.7449 234.136C98.5129 233.824 98.3849 233.468 98.3609 233.068H99.4889C99.5209 233.396 99.6729 233.664 99.9449 233.872C100.225 234.08 100.589 234.184 101.037 234.184C101.453 234.184 101.781 234.092 102.021 233.908C102.261 233.724 102.381 233.492 102.381 233.212C102.381 232.924 102.253 232.712 101.997 232.576C101.741 232.432 101.345 232.292 100.809 232.156C100.321 232.028 99.9209 231.9 99.6089 231.772C99.3049 231.636 99.0409 231.44 98.8169 231.184C98.6009 230.92 98.4929 230.576 98.4929 230.152C98.4929 229.816 98.5929 229.508 98.7929 229.228C98.9929 228.948 99.2769 228.728 99.6449 228.568C100.013 228.4 100.433 228.316 100.905 228.316C101.633 228.316 102.221 228.5 102.669 228.868C103.117 229.236 103.357 229.74 103.389 230.38H102.297C102.273 230.036 102.133 229.76 101.877 229.552C101.629 229.344 101.293 229.24 100.869 229.24C100.477 229.24 100.165 229.324 99.9329 229.492C99.7009 229.66 99.5849 229.88 99.5849 230.152C99.5849 230.368 99.6529 230.548 99.7889 230.692C99.9329 230.828 100.109 230.94 100.317 231.028C100.533 231.108 100.829 231.2 101.205 231.304C101.677 231.432 102.061 231.56 102.357 231.688C102.653 231.808 102.905 231.992 103.113 232.24C103.329 232.488 103.441 232.812 103.449 233.212C103.449 233.572 103.349 233.896 103.149 234.184C102.949 234.472 102.665 234.7 102.297 234.868C101.937 235.028 101.521 235.108 101.049 235.108ZM106.322 229.324V233.2C106.322 233.52 106.39 233.748 106.526 233.884C106.662 234.012 106.898 234.076 107.234 234.076H108.038V235H107.054C106.446 235 105.99 234.86 105.686 234.58C105.382 234.3 105.23 233.84 105.23 233.2V229.324H104.378V228.424H105.23V226.768H106.322V228.424H108.038V229.324H106.322ZM115.362 231.46C115.362 231.668 115.35 231.888 115.326 232.12H110.07C110.11 232.768 110.33 233.276 110.73 233.644C111.138 234.004 111.63 234.184 112.206 234.184C112.678 234.184 113.07 234.076 113.382 233.86C113.702 233.636 113.926 233.34 114.054 232.972H115.23C115.054 233.604 114.702 234.12 114.174 234.52C113.646 234.912 112.99 235.108 112.206 235.108C111.582 235.108 111.022 234.968 110.526 234.688C110.038 234.408 109.654 234.012 109.374 233.5C109.094 232.98 108.954 232.38 108.954 231.7C108.954 231.02 109.09 230.424 109.362 229.912C109.634 229.4 110.014 229.008 110.502 228.736C110.998 228.456 111.566 228.316 112.206 228.316C112.83 228.316 113.382 228.452 113.862 228.724C114.342 228.996 114.71 229.372 114.966 229.852C115.23 230.324 115.362 230.86 115.362 231.46ZM114.234 231.232C114.234 230.816 114.142 230.46 113.958 230.164C113.774 229.86 113.522 229.632 113.202 229.48C112.89 229.32 112.542 229.24 112.158 229.24C111.606 229.24 111.134 229.416 110.742 229.768C110.358 230.12 110.138 230.608 110.082 231.232H114.234ZM116.395 231.688C116.395 231.016 116.531 230.428 116.803 229.924C117.075 229.412 117.447 229.016 117.919 228.736C118.399 228.456 118.935 228.316 119.527 228.316C120.039 228.316 120.515 228.436 120.955 228.676C121.395 228.908 121.731 229.216 121.963 229.6V226.12H123.067V235H121.963V233.764C121.747 234.156 121.427 234.48 121.003 234.736C120.579 234.984 120.083 235.108 119.515 235.108C118.931 235.108 118.399 234.964 117.919 234.676C117.447 234.388 117.075 233.984 116.803 233.464C116.531 232.944 116.395 232.352 116.395 231.688ZM121.963 231.7C121.963 231.204 121.863 230.772 121.663 230.404C121.463 230.036 121.191 229.756 120.847 229.564C120.511 229.364 120.139 229.264 119.731 229.264C119.323 229.264 118.951 229.36 118.615 229.552C118.279 229.744 118.011 230.024 117.811 230.392C117.611 230.76 117.511 231.192 117.511 231.688C117.511 232.192 117.611 232.632 117.811 233.008C118.011 233.376 118.279 233.66 118.615 233.86C118.951 234.052 119.323 234.148 119.731 234.148C120.139 234.148 120.511 234.052 120.847 233.86C121.191 233.66 121.463 233.376 121.663 233.008C121.863 232.632 121.963 232.196 121.963 231.7Z" fill="#242552"/>
<path d="M88.168 257.784V258.232H91.88V260.856H87.976C87.7413 262.285 87.2933 263.427 86.632 264.28C85.992 265.112 85.0747 265.72 83.88 266.104C82.6853 266.467 81.1387 266.648 79.24 266.648V268.664C79.24 269.837 79.4853 270.765 79.976 271.448C80.488 272.131 81.3413 272.472 82.536 272.472C84.712 272.472 85.8 271.245 85.8 268.792H89.16C89.1387 270.947 88.552 272.579 87.4 273.688C86.2693 274.776 84.6267 275.32 82.472 275.32C80.3173 275.32 78.664 274.723 77.512 273.528C76.3813 272.333 75.816 270.659 75.816 268.504V264.12C78.184 264.12 79.9227 264.056 81.032 263.928C82.1413 263.779 82.9627 263.48 83.496 263.032C84.0507 262.584 84.4133 261.859 84.584 260.856H74.472V258.232H84.744V257.784V255.384H74.472V252.728H91.88V255.384H88.168V257.784ZM94.0763 258.75V256.046H99.4843V275H96.4943V258.75H94.0763ZM105.142 275.182C104.605 275.182 104.154 275 103.79 274.636C103.426 274.272 103.244 273.821 103.244 273.284C103.244 272.747 103.426 272.296 103.79 271.932C104.154 271.568 104.605 271.386 105.142 271.386C105.662 271.386 106.104 271.568 106.468 271.932C106.832 272.296 107.014 272.747 107.014 273.284C107.014 273.821 106.832 274.272 106.468 274.636C106.104 275 105.662 275.182 105.142 275.182ZM113.026 265.094C111.223 264.193 110.322 262.771 110.322 260.83C110.322 259.894 110.556 259.036 111.024 258.256C111.492 257.476 112.194 256.861 113.13 256.41C114.066 255.942 115.21 255.708 116.562 255.708C117.896 255.708 119.032 255.942 119.968 256.41C120.921 256.861 121.632 257.476 122.1 258.256C122.568 259.036 122.802 259.894 122.802 260.83C122.802 261.801 122.55 262.659 122.048 263.404C121.562 264.132 120.912 264.695 120.098 265.094C121.086 265.458 121.866 266.056 122.438 266.888C123.01 267.703 123.296 268.665 123.296 269.774C123.296 270.901 123.01 271.897 122.438 272.764C121.866 273.631 121.068 274.298 120.046 274.766C119.023 275.234 117.862 275.468 116.562 275.468C115.262 275.468 114.1 275.234 113.078 274.766C112.072 274.298 111.284 273.631 110.712 272.764C110.14 271.897 109.854 270.901 109.854 269.774C109.854 268.647 110.14 267.677 110.712 266.862C111.284 266.047 112.055 265.458 113.026 265.094ZM119.968 261.194C119.968 260.223 119.664 259.478 119.058 258.958C118.451 258.438 117.619 258.178 116.562 258.178C115.522 258.178 114.698 258.438 114.092 258.958C113.485 259.478 113.182 260.232 113.182 261.22C113.182 262.087 113.494 262.797 114.118 263.352C114.759 263.889 115.574 264.158 116.562 264.158C117.55 264.158 118.364 263.881 119.006 263.326C119.647 262.771 119.968 262.061 119.968 261.194ZM116.562 266.394C115.418 266.394 114.482 266.68 113.754 267.252C113.043 267.807 112.688 268.613 112.688 269.67C112.688 270.658 113.034 271.464 113.728 272.088C114.421 272.695 115.366 272.998 116.562 272.998C117.74 272.998 118.668 272.686 119.344 272.062C120.037 271.438 120.384 270.641 120.384 269.67C120.384 268.63 120.028 267.824 119.318 267.252C118.624 266.68 117.706 266.394 116.562 266.394ZM132.564 265.926C132.564 264.158 132.971 262.572 133.786 261.168C134.618 259.764 135.736 258.672 137.14 257.892C138.561 257.095 140.112 256.696 141.794 256.696C143.718 256.696 145.425 257.173 146.916 258.126C148.424 259.062 149.516 260.397 150.192 262.13H146.63C146.162 261.177 145.512 260.466 144.68 259.998C143.848 259.53 142.886 259.296 141.794 259.296C140.598 259.296 139.532 259.565 138.596 260.102C137.66 260.639 136.923 261.411 136.386 262.416C135.866 263.421 135.606 264.591 135.606 265.926C135.606 267.261 135.866 268.431 136.386 269.436C136.923 270.441 137.66 271.221 138.596 271.776C139.532 272.313 140.598 272.582 141.794 272.582C142.886 272.582 143.848 272.348 144.68 271.88C145.512 271.412 146.162 270.701 146.63 269.748H150.192C149.516 271.481 148.424 272.816 146.916 273.752C145.425 274.688 143.718 275.156 141.794 275.156C140.095 275.156 138.544 274.766 137.14 273.986C135.736 273.189 134.618 272.088 133.786 270.684C132.971 269.28 132.564 267.694 132.564 265.926ZM156.625 262.754C157.058 262.026 157.63 261.463 158.341 261.064C159.069 260.648 159.927 260.44 160.915 260.44V263.508H160.161C159 263.508 158.116 263.803 157.509 264.392C156.92 264.981 156.625 266.004 156.625 267.46V275H153.661V260.674H156.625V262.754Z" fill="#242552"/>
<path d="M210.462 248.92L218.753 251.142L216.532 259.434" stroke="#22AD57" stroke-width="1.5" stroke-miterlimit="10" stroke-linecap="round" stroke-linejoin="round"/>
<path d="M204.031 259.642L218.606 251.227" stroke="#22AD57" stroke-width="1.5" stroke-miterlimit="10" stroke-linecap="round" stroke-linejoin="round"/>
<path d="M42.9998 232C57.4998 224.167 86.4997 210.1 74.4997 220.5C68.0937 226.052 56.7635 235.343 46.3506 244.439C48.7216 266.259 28.6269 273.491 23.5 270.5C20.0624 268.495 32.381 256.642 46.3506 244.439C45.9468 240.723 44.8915 236.584 42.9998 232Z" fill="white"/>
<rect x="33" width="273" height="93" rx="15" fill="white"/>
<rect x="33.5" y="0.5" width="272" height="92" rx="14.5" stroke="#B1B1B1" stroke-opacity="0.23"/>
<rect x="50" y="27" width="40" height="40" rx="20" fill="#00435A"/>
<path d="M108.016 18.636V27H106.924V18.636H108.016ZM113.081 20.304C113.881 20.304 114.529 20.548 115.025 21.036C115.521 21.516 115.769 22.212 115.769 23.124V27H114.689V23.28C114.689 22.624 114.525 22.124 114.197 21.78C113.869 21.428 113.421 21.252 112.853 21.252C112.277 21.252 111.817 21.432 111.473 21.792C111.137 22.152 110.969 22.676 110.969 23.364V27H109.877V20.424H110.969V21.36C111.185 21.024 111.477 20.764 111.845 20.58C112.221 20.396 112.633 20.304 113.081 20.304ZM120.001 25.992L122.041 20.424H123.205L120.625 27H119.353L116.773 20.424H117.949L120.001 25.992ZM130.279 23.46C130.279 23.668 130.267 23.888 130.243 24.12H124.987C125.027 24.768 125.247 25.276 125.647 25.644C126.055 26.004 126.547 26.184 127.123 26.184C127.595 26.184 127.987 26.076 128.299 25.86C128.619 25.636 128.843 25.34 128.971 24.972H130.147C129.971 25.604 129.619 26.12 129.091 26.52C128.563 26.912 127.907 27.108 127.123 27.108C126.499 27.108 125.939 26.968 125.443 26.688C124.955 26.408 124.571 26.012 124.291 25.5C124.011 24.98 123.871 24.38 123.871 23.7C123.871 23.02 124.007 22.424 124.279 21.912C124.551 21.4 124.931 21.008 125.419 20.736C125.915 20.456 126.483 20.316 127.123 20.316C127.747 20.316 128.299 20.452 128.779 20.724C129.259 20.996 129.627 21.372 129.883 21.852C130.147 22.324 130.279 22.86 130.279 23.46ZM129.151 23.232C129.151 22.816 129.059 22.46 128.875 22.164C128.691 21.86 128.439 21.632 128.119 21.48C127.807 21.32 127.459 21.24 127.075 21.24C126.523 21.24 126.051 21.416 125.659 21.768C125.275 22.12 125.055 22.608 124.999 23.232H129.151ZM134.049 27.108C133.545 27.108 133.093 27.024 132.693 26.856C132.293 26.68 131.977 26.44 131.745 26.136C131.513 25.824 131.385 25.468 131.361 25.068H132.489C132.521 25.396 132.673 25.664 132.945 25.872C133.225 26.08 133.589 26.184 134.037 26.184C134.453 26.184 134.781 26.092 135.021 25.908C135.261 25.724 135.381 25.492 135.381 25.212C135.381 24.924 135.253 24.712 134.997 24.576C134.741 24.432 134.345 24.292 133.809 24.156C133.321 24.028 132.921 23.9 132.609 23.772C132.305 23.636 132.041 23.44 131.817 23.184C131.601 22.92 131.493 22.576 131.493 22.152C131.493 21.816 131.593 21.508 131.793 21.228C131.993 20.948 132.277 20.728 132.645 20.568C133.013 20.4 133.433 20.316 133.905 20.316C134.633 20.316 135.221 20.5 135.669 20.868C136.117 21.236 136.357 21.74 136.389 22.38H135.297C135.273 22.036 135.133 21.76 134.877 21.552C134.629 21.344 134.293 21.24 133.869 21.24C133.477 21.24 133.165 21.324 132.933 21.492C132.701 21.66 132.585 21.88 132.585 22.152C132.585 22.368 132.653 22.548 132.789 22.692C132.933 22.828 133.109 22.94 133.317 23.028C133.533 23.108 133.829 23.2 134.205 23.304C134.677 23.432 135.061 23.56 135.357 23.688C135.653 23.808 135.905 23.992 136.113 24.24C136.329 24.488 136.441 24.812 136.449 25.212C136.449 25.572 136.349 25.896 136.149 26.184C135.949 26.472 135.665 26.7 135.297 26.868C134.937 27.028 134.521 27.108 134.049 27.108ZM139.322 21.324V25.2C139.322 25.52 139.39 25.748 139.526 25.884C139.662 26.012 139.898 26.076 140.234 26.076H141.038V27H140.054C139.446 27 138.99 26.86 138.686 26.58C138.382 26.3 138.23 25.84 138.23 25.2V21.324H137.378V20.424H138.23V18.768H139.322V20.424H141.038V21.324H139.322ZM148.362 23.46C148.362 23.668 148.35 23.888 148.326 24.12H143.07C143.11 24.768 143.33 25.276 143.73 25.644C144.138 26.004 144.63 26.184 145.206 26.184C145.678 26.184 146.07 26.076 146.382 25.86C146.702 25.636 146.926 25.34 147.054 24.972H148.23C148.054 25.604 147.702 26.12 147.174 26.52C146.646 26.912 145.99 27.108 145.206 27.108C144.582 27.108 144.022 26.968 143.526 26.688C143.038 26.408 142.654 26.012 142.374 25.5C142.094 24.98 141.954 24.38 141.954 23.7C141.954 23.02 142.09 22.424 142.362 21.912C142.634 21.4 143.014 21.008 143.502 20.736C143.998 20.456 144.566 20.316 145.206 20.316C145.83 20.316 146.382 20.452 146.862 20.724C147.342 20.996 147.71 21.372 147.966 21.852C148.23 22.324 148.362 22.86 148.362 23.46ZM147.234 23.232C147.234 22.816 147.142 22.46 146.958 22.164C146.774 21.86 146.522 21.632 146.202 21.48C145.89 21.32 145.542 21.24 145.158 21.24C144.606 21.24 144.134 21.416 143.742 21.768C143.358 22.12 143.138 22.608 143.082 23.232H147.234ZM149.395 23.688C149.395 23.016 149.531 22.428 149.803 21.924C150.075 21.412 150.447 21.016 150.919 20.736C151.399 20.456 151.935 20.316 152.527 20.316C153.039 20.316 153.515 20.436 153.955 20.676C154.395 20.908 154.731 21.216 154.963 21.6V18.12H156.067V27H154.963V25.764C154.747 26.156 154.427 26.48 154.003 26.736C153.579 26.984 153.083 27.108 152.515 27.108C151.931 27.108 151.399 26.964 150.919 26.676C150.447 26.388 150.075 25.984 149.803 25.464C149.531 24.944 149.395 24.352 149.395 23.688ZM154.963 23.7C154.963 23.204 154.863 22.772 154.663 22.404C154.463 22.036 154.191 21.756 153.847 21.564C153.511 21.364 153.139 21.264 152.731 21.264C152.323 21.264 151.951 21.36 151.615 21.552C151.279 21.744 151.011 22.024 150.811 22.392C150.611 22.76 150.511 23.192 150.511 23.688C150.511 24.192 150.611 24.632 150.811 25.008C151.011 25.376 151.279 25.66 151.615 25.86C151.951 26.052 152.323 26.148 152.731 26.148C153.139 26.148 153.511 26.052 153.847 25.86C154.191 25.66 154.463 25.376 154.663 25.008C154.863 24.632 154.963 24.196 154.963 23.7Z" fill="#242552"/>
<path d="M121.168 49.784V50.232H124.88V52.856H120.976C120.741 54.2853 120.293 55.4267 119.632 56.28C118.992 57.112 118.075 57.72 116.88 58.104C115.685 58.4667 114.139 58.648 112.24 58.648V60.664C112.24 61.8373 112.485 62.7653 112.976 63.448C113.488 64.1307 114.341 64.472 115.536 64.472C117.712 64.472 118.8 63.2453 118.8 60.792H122.16C122.139 62.9467 121.552 64.5787 120.4 65.688C119.269 66.776 117.627 67.32 115.472 67.32C113.317 67.32 111.664 66.7227 110.512 65.528C109.381 64.3333 108.816 62.6587 108.816 60.504V56.12C111.184 56.12 112.923 56.056 114.032 55.928C115.141 55.7787 115.963 55.48 116.496 55.032C117.051 54.584 117.413 53.8587 117.584 52.856H107.472V50.232H117.744V49.784V47.384H107.472V44.728H124.88V47.384H121.168V49.784ZM127.102 63.048V60.812L135.838 48.28H139.426V60.474H141.844V63.048H139.426V67H136.514V63.048H127.102ZM136.644 51.296L130.508 60.474H136.644V51.296ZM147.992 61.852C148.166 62.7187 148.538 63.3773 149.11 63.828C149.682 64.2787 150.454 64.504 151.424 64.504C152.655 64.504 153.556 64.0187 154.128 63.048C154.7 62.0773 154.986 60.422 154.986 58.082C154.57 58.6713 153.981 59.1307 153.218 59.46C152.473 59.772 151.658 59.928 150.774 59.928C149.648 59.928 148.625 59.7027 147.706 59.252C146.788 58.784 146.06 58.0993 145.522 57.198C145.002 56.2793 144.742 55.17 144.742 53.87C144.742 51.9633 145.297 50.4467 146.406 49.32C147.533 48.176 149.076 47.604 151.034 47.604C153.392 47.604 155.064 48.3927 156.052 49.97C157.058 51.53 157.56 53.9307 157.56 57.172C157.56 59.408 157.37 61.2367 156.988 62.658C156.624 64.0793 155.983 65.154 155.064 65.882C154.146 66.61 152.872 66.974 151.242 66.974C149.388 66.974 147.958 66.4887 146.952 65.518C145.947 64.5473 145.384 63.3253 145.262 61.852H147.992ZM151.294 57.432C152.334 57.432 153.149 57.1113 153.738 56.47C154.345 55.8113 154.648 54.9447 154.648 53.87C154.648 52.674 154.328 51.7467 153.686 51.088C153.062 50.412 152.204 50.074 151.112 50.074C150.02 50.074 149.154 50.4207 148.512 51.114C147.888 51.79 147.576 52.6827 147.576 53.792C147.576 54.8493 147.88 55.7247 148.486 56.418C149.11 57.094 150.046 57.432 151.294 57.432ZM164.002 57.094C162.199 56.1927 161.298 54.7713 161.298 52.83C161.298 51.894 161.532 51.036 162 50.256C162.468 49.476 163.17 48.8607 164.106 48.41C165.042 47.942 166.186 47.708 167.538 47.708C168.873 47.708 170.008 47.942 170.944 48.41C171.897 48.8607 172.608 49.476 173.076 50.256C173.544 51.036 173.778 51.894 173.778 52.83C173.778 53.8007 173.527 54.6587 173.024 55.404C172.539 56.132 171.889 56.6953 171.074 57.094C172.062 57.458 172.842 58.056 173.414 58.888C173.986 59.7027 174.272 60.6647 174.272 61.774C174.272 62.9007 173.986 63.8973 173.414 64.764C172.842 65.6307 172.045 66.298 171.022 66.766C169.999 67.234 168.838 67.468 167.538 67.468C166.238 67.468 165.077 67.234 164.054 66.766C163.049 66.298 162.26 65.6307 161.688 64.764C161.116 63.8973 160.83 62.9007 160.83 61.774C160.83 60.6473 161.116 59.6767 161.688 58.862C162.26 58.0473 163.031 57.458 164.002 57.094ZM170.944 53.194C170.944 52.2233 170.641 51.478 170.034 50.958C169.427 50.438 168.595 50.178 167.538 50.178C166.498 50.178 165.675 50.438 165.068 50.958C164.461 51.478 164.158 52.232 164.158 53.22C164.158 54.0867 164.47 54.7973 165.094 55.352C165.735 55.8893 166.55 56.158 167.538 56.158C168.526 56.158 169.341 55.8807 169.982 55.326C170.623 54.7713 170.944 54.0607 170.944 53.194ZM167.538 58.394C166.394 58.394 165.458 58.68 164.73 59.252C164.019 59.8067 163.664 60.6127 163.664 61.67C163.664 62.658 164.011 63.464 164.704 64.088C165.397 64.6947 166.342 64.998 167.538 64.998C168.717 64.998 169.644 64.686 170.32 64.062C171.013 63.438 171.36 62.6407 171.36 61.67C171.36 60.63 171.005 59.824 170.294 59.252C169.601 58.68 168.682 58.394 167.538 58.394ZM181.024 63.438L177.878 70.614H175.954L177.8 63.438H181.024ZM183.224 57.276C183.224 54.2773 183.727 51.9373 184.732 50.256C185.755 48.5573 187.505 47.708 189.984 47.708C192.463 47.708 194.205 48.5573 195.21 50.256C196.233 51.9373 196.744 54.2773 196.744 57.276C196.744 60.3093 196.233 62.684 195.21 64.4C194.205 66.0987 192.463 66.948 189.984 66.948C187.505 66.948 185.755 66.0987 184.732 64.4C183.727 62.684 183.224 60.3093 183.224 57.276ZM193.832 57.276C193.832 55.872 193.737 54.6847 193.546 53.714C193.373 52.7433 193.009 51.9547 192.454 51.348C191.899 50.724 191.076 50.412 189.984 50.412C188.892 50.412 188.069 50.724 187.514 51.348C186.959 51.9547 186.587 52.7433 186.396 53.714C186.223 54.6847 186.136 55.872 186.136 57.276C186.136 58.732 186.223 59.954 186.396 60.942C186.569 61.93 186.933 62.7273 187.488 63.334C188.06 63.9407 188.892 64.244 189.984 64.244C191.076 64.244 191.899 63.9407 192.454 63.334C193.026 62.7273 193.399 61.93 193.572 60.942C193.745 59.954 193.832 58.732 193.832 57.276ZM203.572 61.852C203.746 62.7187 204.118 63.3773 204.69 63.828C205.262 64.2787 206.034 64.504 207.004 64.504C208.235 64.504 209.136 64.0187 209.708 63.048C210.28 62.0773 210.566 60.422 210.566 58.082C210.15 58.6713 209.561 59.1307 208.798 59.46C208.053 59.772 207.238 59.928 206.354 59.928C205.228 59.928 204.205 59.7027 203.286 59.252C202.368 58.784 201.64 58.0993 201.102 57.198C200.582 56.2793 200.322 55.17 200.322 53.87C200.322 51.9633 200.877 50.4467 201.986 49.32C203.113 48.176 204.656 47.604 206.614 47.604C208.972 47.604 210.644 48.3927 211.632 49.97C212.638 51.53 213.14 53.9307 213.14 57.172C213.14 59.408 212.95 61.2367 212.568 62.658C212.204 64.0793 211.563 65.154 210.644 65.882C209.726 66.61 208.452 66.974 206.822 66.974C204.968 66.974 203.538 66.4887 202.532 65.518C201.527 64.5473 200.964 63.3253 200.842 61.852H203.572ZM206.874 57.432C207.914 57.432 208.729 57.1113 209.318 56.47C209.925 55.8113 210.228 54.9447 210.228 53.87C210.228 52.674 209.908 51.7467 209.266 51.088C208.642 50.412 207.784 50.074 206.692 50.074C205.6 50.074 204.734 50.4207 204.092 51.114C203.468 51.79 203.156 52.6827 203.156 53.792C203.156 54.8493 203.46 55.7247 204.066 56.418C204.69 57.094 205.626 57.432 206.874 57.432ZM219.582 57.094C217.78 56.1927 216.878 54.7713 216.878 52.83C216.878 51.894 217.112 51.036 217.58 50.256C218.048 49.476 218.75 48.8607 219.686 48.41C220.622 47.942 221.766 47.708 223.118 47.708C224.453 47.708 225.588 47.942 226.524 48.41C227.478 48.8607 228.188 49.476 228.656 50.256C229.124 51.036 229.358 51.894 229.358 52.83C229.358 53.8007 229.107 54.6587 228.604 55.404C228.119 56.132 227.469 56.6953 226.654 57.094C227.642 57.458 228.422 58.056 228.994 58.888C229.566 59.7027 229.852 60.6647 229.852 61.774C229.852 62.9007 229.566 63.8973 228.994 64.764C228.422 65.6307 227.625 66.298 226.602 66.766C225.58 67.234 224.418 67.468 223.118 67.468C221.818 67.468 220.657 67.234 219.634 66.766C218.629 66.298 217.84 65.6307 217.268 64.764C216.696 63.8973 216.41 62.9007 216.41 61.774C216.41 60.6473 216.696 59.6767 217.268 58.862C217.84 58.0473 218.612 57.458 219.582 57.094ZM226.524 53.194C226.524 52.2233 226.221 51.478 225.614 50.958C225.008 50.438 224.176 50.178 223.118 50.178C222.078 50.178 221.255 50.438 220.648 50.958C220.042 51.478 219.738 52.232 219.738 53.22C219.738 54.0867 220.05 54.7973 220.674 55.352C221.316 55.8893 222.13 56.158 223.118 56.158C224.106 56.158 224.921 55.8807 225.562 55.326C226.204 54.7713 226.524 54.0607 226.524 53.194ZM223.118 58.394C221.974 58.394 221.038 58.68 220.31 59.252C219.6 59.8067 219.244 60.6127 219.244 61.67C219.244 62.658 219.591 63.464 220.284 64.088C220.978 64.6947 221.922 64.998 223.118 64.998C224.297 64.998 225.224 64.686 225.9 64.062C226.594 63.438 226.94 62.6407 226.94 61.67C226.94 60.63 226.585 59.824 225.874 59.252C225.181 58.68 224.262 58.394 223.118 58.394Z" fill="#242552"/>
<path d="M272.462 40.9204L280.753 43.1422L278.532 51.434" stroke="#22AD57" stroke-width="1.5" stroke-miterlimit="10" stroke-linecap="round" stroke-linejoin="round"/>
<path d="M266.031 51.6423L280.606 43.2273" stroke="#22AD57" stroke-width="1.5" stroke-miterlimit="10" stroke-linecap="round" stroke-linejoin="round"/>
<path d="M70 47L82.1244 68H57.8756L70 47Z" fill="white"/>
<path d="M58.7417 67.5L70 48L81.2583 67.5H58.7417Z" stroke="#B1B1B1" stroke-opacity="0.23"/>
</svg>
