<svg width="378" height="235" viewBox="0 0 378 235" fill="none" xmlns="http://www.w3.org/2000/svg">
<path d="M169.615 189.174C216.496 201.736 261.102 205.078 295.327 200.319C312.439 197.94 326.968 193.533 337.891 187.231C348.815 180.927 356.147 172.717 358.823 162.73C361.499 152.743 359.254 141.966 352.945 131.045C346.637 120.126 336.258 109.045 322.628 98.428C295.368 77.194 255.067 57.7858 208.187 45.2243C161.306 32.6628 116.7 29.3201 82.4756 34.0792C65.3637 36.4587 50.8343 40.8653 39.9115 47.1679C28.9876 53.4713 21.6551 61.6816 18.979 71.6687C16.303 81.6559 18.548 92.4325 24.8567 103.353C31.1647 114.273 41.5443 125.354 55.1739 135.97C82.434 157.204 122.735 176.613 169.615 189.174Z" stroke="url(#paint0_linear_225_322)" stroke-width="0.5"/>
<g clip-path="url(#clip0_225_322)">
<rect x="97" y="29" width="238" height="79" rx="15" fill="white"/>
<path d="M159.328 56L157.336 52.58H156.016V56H154.924V47.636H157.624C158.256 47.636 158.788 47.744 159.22 47.96C159.66 48.176 159.988 48.468 160.204 48.836C160.42 49.204 160.528 49.624 160.528 50.096C160.528 50.672 160.36 51.18 160.024 51.62C159.696 52.06 159.2 52.352 158.536 52.496L160.636 56H159.328ZM156.016 51.704H157.624C158.216 51.704 158.66 51.56 158.956 51.272C159.252 50.976 159.4 50.584 159.4 50.096C159.4 49.6 159.252 49.216 158.956 48.944C158.668 48.672 158.224 48.536 157.624 48.536H156.016V51.704ZM168.225 52.46C168.225 52.668 168.213 52.888 168.189 53.12H162.933C162.973 53.768 163.193 54.276 163.593 54.644C164.001 55.004 164.493 55.184 165.069 55.184C165.541 55.184 165.933 55.076 166.245 54.86C166.565 54.636 166.789 54.34 166.917 53.972H168.093C167.917 54.604 167.565 55.12 167.037 55.52C166.509 55.912 165.853 56.108 165.069 56.108C164.445 56.108 163.885 55.968 163.389 55.688C162.901 55.408 162.517 55.012 162.237 54.5C161.957 53.98 161.817 53.38 161.817 52.7C161.817 52.02 161.953 51.424 162.225 50.912C162.497 50.4 162.877 50.008 163.365 49.736C163.861 49.456 164.429 49.316 165.069 49.316C165.693 49.316 166.245 49.452 166.725 49.724C167.205 49.996 167.573 50.372 167.829 50.852C168.093 51.324 168.225 51.86 168.225 52.46ZM167.097 52.232C167.097 51.816 167.005 51.46 166.821 51.164C166.637 50.86 166.385 50.632 166.065 50.48C165.753 50.32 165.405 50.24 165.021 50.24C164.469 50.24 163.997 50.416 163.605 50.768C163.221 51.12 163.001 51.608 162.945 52.232H167.097ZM170.998 50.324V54.2C170.998 54.52 171.066 54.748 171.202 54.884C171.338 55.012 171.574 55.076 171.91 55.076H172.714V56H171.73C171.122 56 170.666 55.86 170.362 55.58C170.058 55.3 169.906 54.84 169.906 54.2V50.324H169.054V49.424H169.906V47.768H170.998V49.424H172.714V50.324H170.998ZM179.869 49.424V56H178.777V55.028C178.569 55.364 178.277 55.628 177.901 55.82C177.533 56.004 177.125 56.096 176.677 56.096C176.165 56.096 175.705 55.992 175.297 55.784C174.889 55.568 174.565 55.248 174.325 54.824C174.093 54.4 173.977 53.884 173.977 53.276V49.424H175.057V53.132C175.057 53.78 175.221 54.28 175.549 54.632C175.877 54.976 176.325 55.148 176.893 55.148C177.477 55.148 177.937 54.968 178.273 54.608C178.609 54.248 178.777 53.724 178.777 53.036V49.424H179.869ZM182.805 50.492C182.997 50.116 183.269 49.824 183.621 49.616C183.981 49.408 184.417 49.304 184.929 49.304V50.432H184.641C183.417 50.432 182.805 51.096 182.805 52.424V56H181.713V49.424H182.805V50.492ZM189.394 49.304C190.194 49.304 190.842 49.548 191.338 50.036C191.834 50.516 192.082 51.212 192.082 52.124V56H191.002V52.28C191.002 51.624 190.838 51.124 190.51 50.78C190.182 50.428 189.734 50.252 189.166 50.252C188.59 50.252 188.13 50.432 187.786 50.792C187.45 51.152 187.282 51.676 187.282 52.364V56H186.19V49.424H187.282V50.36C187.498 50.024 187.79 49.764 188.158 49.58C188.534 49.396 188.946 49.304 189.394 49.304ZM196.193 56.108C195.689 56.108 195.237 56.024 194.837 55.856C194.437 55.68 194.121 55.44 193.889 55.136C193.657 54.824 193.529 54.468 193.505 54.068H194.633C194.665 54.396 194.817 54.664 195.089 54.872C195.369 55.08 195.733 55.184 196.181 55.184C196.597 55.184 196.925 55.092 197.165 54.908C197.405 54.724 197.525 54.492 197.525 54.212C197.525 53.924 197.397 53.712 197.141 53.576C196.885 53.432 196.489 53.292 195.953 53.156C195.465 53.028 195.065 52.9 194.753 52.772C194.449 52.636 194.185 52.44 193.961 52.184C193.745 51.92 193.637 51.576 193.637 51.152C193.637 50.816 193.737 50.508 193.937 50.228C194.137 49.948 194.421 49.728 194.789 49.568C195.157 49.4 195.577 49.316 196.049 49.316C196.777 49.316 197.365 49.5 197.813 49.868C198.261 50.236 198.501 50.74 198.533 51.38H197.441C197.417 51.036 197.277 50.76 197.021 50.552C196.773 50.344 196.437 50.24 196.013 50.24C195.621 50.24 195.309 50.324 195.077 50.492C194.845 50.66 194.729 50.88 194.729 51.152C194.729 51.368 194.797 51.548 194.933 51.692C195.077 51.828 195.253 51.94 195.461 52.028C195.677 52.108 195.973 52.2 196.349 52.304C196.821 52.432 197.205 52.56 197.501 52.688C197.797 52.808 198.049 52.992 198.257 53.24C198.473 53.488 198.585 53.812 198.593 54.212C198.593 54.572 198.493 54.896 198.293 55.184C198.093 55.472 197.809 55.7 197.441 55.868C197.081 56.028 196.665 56.108 196.193 56.108Z" fill="#242552"/>
<path d="M169.168 78.784V79.232H172.88V81.856H168.976C168.741 83.2853 168.293 84.4267 167.632 85.28C166.992 86.112 166.075 86.72 164.88 87.104C163.685 87.4667 162.139 87.648 160.24 87.648V89.664C160.24 90.8373 160.485 91.7653 160.976 92.448C161.488 93.1307 162.341 93.472 163.536 93.472C165.712 93.472 166.8 92.2453 166.8 89.792H170.16C170.139 91.9467 169.552 93.5787 168.4 94.688C167.269 95.776 165.627 96.32 163.472 96.32C161.317 96.32 159.664 95.7227 158.512 94.528C157.381 93.3333 156.816 91.6587 156.816 89.504V85.12C159.184 85.12 160.923 85.056 162.032 84.928C163.141 84.7787 163.963 84.48 164.496 84.032C165.051 83.584 165.413 82.8587 165.584 81.856H155.472V79.232H165.744V78.784V76.384H155.472V73.728H172.88V76.384H169.168V78.784ZM179.158 90.852C179.332 91.7187 179.704 92.3773 180.276 92.828C180.848 93.2787 181.62 93.504 182.59 93.504C183.821 93.504 184.722 93.0187 185.294 92.048C185.866 91.0773 186.152 89.422 186.152 87.082C185.736 87.6713 185.147 88.1307 184.384 88.46C183.639 88.772 182.824 88.928 181.94 88.928C180.814 88.928 179.791 88.7027 178.872 88.252C177.954 87.784 177.226 87.0993 176.688 86.198C176.168 85.2793 175.908 84.17 175.908 82.87C175.908 80.9633 176.463 79.4467 177.572 78.32C178.699 77.176 180.242 76.604 182.2 76.604C184.558 76.604 186.23 77.3927 187.218 78.97C188.224 80.53 188.726 82.9307 188.726 86.172C188.726 88.408 188.536 90.2367 188.154 91.658C187.79 93.0793 187.149 94.154 186.23 94.882C185.312 95.61 184.038 95.974 182.408 95.974C180.554 95.974 179.124 95.4887 178.118 94.518C177.113 93.5473 176.55 92.3253 176.428 90.852H179.158ZM182.46 86.432C183.5 86.432 184.315 86.1113 184.904 85.47C185.511 84.8113 185.814 83.9447 185.814 82.87C185.814 81.674 185.494 80.7467 184.852 80.088C184.228 79.412 183.37 79.074 182.278 79.074C181.186 79.074 180.32 79.4207 179.678 80.114C179.054 80.79 178.742 81.6827 178.742 82.792C178.742 83.8493 179.046 84.7247 179.652 85.418C180.276 86.094 181.212 86.432 182.46 86.432ZM195.61 92.438L192.464 99.614H190.54L192.386 92.438H195.61ZM197.81 86.276C197.81 83.2773 198.313 80.9373 199.318 79.256C200.341 77.5573 202.091 76.708 204.57 76.708C207.049 76.708 208.791 77.5573 209.796 79.256C210.819 80.9373 211.33 83.2773 211.33 86.276C211.33 89.3093 210.819 91.684 209.796 93.4C208.791 95.0987 207.049 95.948 204.57 95.948C202.091 95.948 200.341 95.0987 199.318 93.4C198.313 91.684 197.81 89.3093 197.81 86.276ZM208.418 86.276C208.418 84.872 208.323 83.6847 208.132 82.714C207.959 81.7433 207.595 80.9547 207.04 80.348C206.485 79.724 205.662 79.412 204.57 79.412C203.478 79.412 202.655 79.724 202.1 80.348C201.545 80.9547 201.173 81.7433 200.982 82.714C200.809 83.6847 200.722 84.872 200.722 86.276C200.722 87.732 200.809 88.954 200.982 89.942C201.155 90.93 201.519 91.7273 202.074 92.334C202.646 92.9407 203.478 93.244 204.57 93.244C205.662 93.244 206.485 92.9407 207.04 92.334C207.612 91.7273 207.985 90.93 208.158 89.942C208.331 88.954 208.418 87.732 208.418 86.276ZM214.466 86.276C214.466 83.2773 214.969 80.9373 215.974 79.256C216.997 77.5573 218.748 76.708 221.226 76.708C223.705 76.708 225.447 77.5573 226.452 79.256C227.475 80.9373 227.986 83.2773 227.986 86.276C227.986 89.3093 227.475 91.684 226.452 93.4C225.447 95.0987 223.705 95.948 221.226 95.948C218.748 95.948 216.997 95.0987 215.974 93.4C214.969 91.684 214.466 89.3093 214.466 86.276ZM225.074 86.276C225.074 84.872 224.979 83.6847 224.788 82.714C224.615 81.7433 224.251 80.9547 223.696 80.348C223.142 79.724 222.318 79.412 221.226 79.412C220.134 79.412 219.311 79.724 218.756 80.348C218.202 80.9547 217.829 81.7433 217.638 82.714C217.465 83.6847 217.378 84.872 217.378 86.276C217.378 87.732 217.465 88.954 217.638 89.942C217.812 90.93 218.176 91.7273 218.73 92.334C219.302 92.9407 220.134 93.244 221.226 93.244C222.318 93.244 223.142 92.9407 223.696 92.334C224.268 91.7273 224.641 90.93 224.814 89.942C224.988 88.954 225.074 87.732 225.074 86.276ZM234.763 92.438L231.617 99.614H229.693L231.539 92.438H234.763ZM236.962 86.276C236.962 83.2773 237.465 80.9373 238.47 79.256C239.493 77.5573 241.244 76.708 243.722 76.708C246.201 76.708 247.943 77.5573 248.948 79.256C249.971 80.9373 250.482 83.2773 250.482 86.276C250.482 89.3093 249.971 91.684 248.948 93.4C247.943 95.0987 246.201 95.948 243.722 95.948C241.244 95.948 239.493 95.0987 238.47 93.4C237.465 91.684 236.962 89.3093 236.962 86.276ZM247.57 86.276C247.57 84.872 247.475 83.6847 247.284 82.714C247.111 81.7433 246.747 80.9547 246.192 80.348C245.638 79.724 244.814 79.412 243.722 79.412C242.63 79.412 241.807 79.724 241.252 80.348C240.698 80.9547 240.325 81.7433 240.134 82.714C239.961 83.6847 239.874 84.872 239.874 86.276C239.874 87.732 239.961 88.954 240.134 89.942C240.308 90.93 240.672 91.7273 241.226 92.334C241.798 92.9407 242.63 93.244 243.722 93.244C244.814 93.244 245.638 92.9407 246.192 92.334C246.764 91.7273 247.137 90.93 247.31 89.942C247.484 88.954 247.57 87.732 247.57 86.276ZM253.619 86.276C253.619 83.2773 254.121 80.9373 255.127 79.256C256.149 77.5573 257.9 76.708 260.379 76.708C262.857 76.708 264.599 77.5573 265.605 79.256C266.627 80.9373 267.139 83.2773 267.139 86.276C267.139 89.3093 266.627 91.684 265.605 93.4C264.599 95.0987 262.857 95.948 260.379 95.948C257.9 95.948 256.149 95.0987 255.127 93.4C254.121 91.684 253.619 89.3093 253.619 86.276ZM264.227 86.276C264.227 84.872 264.131 83.6847 263.941 82.714C263.767 81.7433 263.403 80.9547 262.849 80.348C262.294 79.724 261.471 79.412 260.379 79.412C259.287 79.412 258.463 79.724 257.909 80.348C257.354 80.9547 256.981 81.7433 256.791 82.714C256.617 83.6847 256.531 84.872 256.531 86.276C256.531 87.732 256.617 88.954 256.791 89.942C256.964 90.93 257.328 91.7273 257.883 92.334C258.455 92.9407 259.287 93.244 260.379 93.244C261.471 93.244 262.294 92.9407 262.849 92.334C263.421 91.7273 263.793 90.93 263.967 89.942C264.14 88.954 264.227 87.732 264.227 86.276ZM270.275 86.276C270.275 83.2773 270.778 80.9373 271.783 79.256C272.806 77.5573 274.556 76.708 277.035 76.708C279.514 76.708 281.256 77.5573 282.261 79.256C283.284 80.9373 283.795 83.2773 283.795 86.276C283.795 89.3093 283.284 91.684 282.261 93.4C281.256 95.0987 279.514 95.948 277.035 95.948C274.556 95.948 272.806 95.0987 271.783 93.4C270.778 91.684 270.275 89.3093 270.275 86.276ZM280.883 86.276C280.883 84.872 280.788 83.6847 280.597 82.714C280.424 81.7433 280.06 80.9547 279.505 80.348C278.95 79.724 278.127 79.412 277.035 79.412C275.943 79.412 275.12 79.724 274.565 80.348C274.01 80.9547 273.638 81.7433 273.447 82.714C273.274 83.6847 273.187 84.872 273.187 86.276C273.187 87.732 273.274 88.954 273.447 89.942C273.62 90.93 273.984 91.7273 274.539 92.334C275.111 92.9407 275.943 93.244 277.035 93.244C278.127 93.244 278.95 92.9407 279.505 92.334C280.077 91.7273 280.45 90.93 280.623 89.942C280.796 88.954 280.883 87.732 280.883 86.276Z" fill="#242552"/>
<path d="M309.462 62.9204L317.753 65.1422L315.532 73.434" stroke="#22AD57" stroke-width="1.5" stroke-miterlimit="10" stroke-linecap="round" stroke-linejoin="round"/>
<path d="M303.031 73.6423L317.606 65.2273" stroke="#22AD57" stroke-width="1.5" stroke-miterlimit="10" stroke-linecap="round" stroke-linejoin="round"/>
</g>
<rect x="97.5" y="29.5" width="237" height="78" rx="14.5" stroke="#B1B1B1" stroke-opacity="0.23"/>
<path d="M151 35L146.125 83H121.876L151 35Z" fill="white"/>
<path d="M147 66L111 62.3172L111 44L130 77L147 66Z" fill="#4181FF"/>
<rect x="14" y="125" width="224" height="79" rx="15" fill="white"/>
<rect x="14.5" y="125.5" width="223" height="78" rx="14.5" stroke="#B1B1B1" stroke-opacity="0.23"/>
<path d="M76.016 136.136V144.5H74.924V136.136H76.016ZM81.0811 137.804C81.8811 137.804 82.5291 138.048 83.0251 138.536C83.5211 139.016 83.7691 139.712 83.7691 140.624V144.5H82.6891V140.78C82.6891 140.124 82.5251 139.624 82.1971 139.28C81.8691 138.928 81.4211 138.752 80.8531 138.752C80.2771 138.752 79.8171 138.932 79.4731 139.292C79.1371 139.652 78.9691 140.176 78.9691 140.864V144.5H77.8771V137.924H78.9691V138.86C79.1851 138.524 79.4771 138.264 79.8451 138.08C80.2211 137.896 80.6331 137.804 81.0811 137.804ZM86.1169 136.856C85.9089 136.856 85.7329 136.784 85.5889 136.64C85.4449 136.496 85.3729 136.32 85.3729 136.112C85.3729 135.904 85.4449 135.728 85.5889 135.584C85.7329 135.44 85.9089 135.368 86.1169 135.368C86.3169 135.368 86.4849 135.44 86.6209 135.584C86.7649 135.728 86.8369 135.904 86.8369 136.112C86.8369 136.32 86.7649 136.496 86.6209 136.64C86.4849 136.784 86.3169 136.856 86.1169 136.856ZM86.6449 137.924V144.5H85.5529V137.924H86.6449ZM89.838 138.824V142.7C89.838 143.02 89.906 143.248 90.042 143.384C90.178 143.512 90.414 143.576 90.75 143.576H91.554V144.5H90.57C89.962 144.5 89.506 144.36 89.202 144.08C88.898 143.8 88.746 143.34 88.746 142.7V138.824H87.894V137.924H88.746V136.268H89.838V137.924H91.554V138.824H89.838ZM93.4411 136.856C93.2331 136.856 93.0571 136.784 92.9131 136.64C92.7691 136.496 92.6971 136.32 92.6971 136.112C92.6971 135.904 92.7691 135.728 92.9131 135.584C93.0571 135.44 93.2331 135.368 93.4411 135.368C93.6411 135.368 93.8091 135.44 93.9451 135.584C94.0891 135.728 94.1611 135.904 94.1611 136.112C94.1611 136.32 94.0891 136.496 93.9451 136.64C93.8091 136.784 93.6411 136.856 93.4411 136.856ZM93.9691 137.924V144.5H92.8771V137.924H93.9691ZM95.4223 141.188C95.4223 140.516 95.5583 139.928 95.8303 139.424C96.1023 138.912 96.4743 138.516 96.9463 138.236C97.4263 137.956 97.9583 137.816 98.5423 137.816C99.1183 137.816 99.6183 137.94 100.042 138.188C100.466 138.436 100.782 138.748 100.99 139.124V137.924H102.094V144.5H100.99V143.276C100.774 143.66 100.45 143.98 100.018 144.236C99.5943 144.484 99.0983 144.608 98.5303 144.608C97.9463 144.608 97.4183 144.464 96.9463 144.176C96.4743 143.888 96.1023 143.484 95.8303 142.964C95.5583 142.444 95.4223 141.852 95.4223 141.188ZM100.99 141.2C100.99 140.704 100.89 140.272 100.69 139.904C100.49 139.536 100.218 139.256 99.8743 139.064C99.5383 138.864 99.1663 138.764 98.7583 138.764C98.3503 138.764 97.9783 138.86 97.6423 139.052C97.3063 139.244 97.0383 139.524 96.8383 139.892C96.6383 140.26 96.5383 140.692 96.5383 141.188C96.5383 141.692 96.6383 142.132 96.8383 142.508C97.0383 142.876 97.3063 143.16 97.6423 143.36C97.9783 143.552 98.3503 143.648 98.7583 143.648C99.1663 143.648 99.5383 143.552 99.8743 143.36C100.218 143.16 100.49 142.876 100.69 142.508C100.89 142.132 100.99 141.696 100.99 141.2ZM105.032 135.62V144.5H103.94V135.62H105.032ZM111.184 136.136V144.5H110.092V136.136H111.184ZM116.249 137.804C117.049 137.804 117.697 138.048 118.193 138.536C118.689 139.016 118.937 139.712 118.937 140.624V144.5H117.857V140.78C117.857 140.124 117.693 139.624 117.365 139.28C117.037 138.928 116.589 138.752 116.021 138.752C115.445 138.752 114.985 138.932 114.641 139.292C114.305 139.652 114.137 140.176 114.137 140.864V144.5H113.045V137.924H114.137V138.86C114.353 138.524 114.645 138.264 115.013 138.08C115.389 137.896 115.801 137.804 116.249 137.804ZM123.169 143.492L125.209 137.924H126.373L123.793 144.5H122.521L119.941 137.924H121.117L123.169 143.492ZM133.447 140.96C133.447 141.168 133.435 141.388 133.411 141.62H128.155C128.195 142.268 128.415 142.776 128.815 143.144C129.223 143.504 129.715 143.684 130.291 143.684C130.763 143.684 131.155 143.576 131.467 143.36C131.787 143.136 132.011 142.84 132.139 142.472H133.315C133.139 143.104 132.787 143.62 132.259 144.02C131.731 144.412 131.075 144.608 130.291 144.608C129.667 144.608 129.107 144.468 128.611 144.188C128.123 143.908 127.739 143.512 127.459 143C127.179 142.48 127.039 141.88 127.039 141.2C127.039 140.52 127.175 139.924 127.447 139.412C127.719 138.9 128.099 138.508 128.587 138.236C129.083 137.956 129.651 137.816 130.291 137.816C130.915 137.816 131.467 137.952 131.947 138.224C132.427 138.496 132.795 138.872 133.051 139.352C133.315 139.824 133.447 140.36 133.447 140.96ZM132.319 140.732C132.319 140.316 132.227 139.96 132.043 139.664C131.859 139.36 131.607 139.132 131.287 138.98C130.975 138.82 130.627 138.74 130.243 138.74C129.691 138.74 129.219 138.916 128.827 139.268C128.443 139.62 128.223 140.108 128.167 140.732H132.319ZM137.217 144.608C136.713 144.608 136.261 144.524 135.861 144.356C135.461 144.18 135.145 143.94 134.913 143.636C134.681 143.324 134.553 142.968 134.529 142.568H135.657C135.689 142.896 135.841 143.164 136.113 143.372C136.393 143.58 136.757 143.684 137.205 143.684C137.621 143.684 137.949 143.592 138.189 143.408C138.429 143.224 138.549 142.992 138.549 142.712C138.549 142.424 138.421 142.212 138.165 142.076C137.909 141.932 137.513 141.792 136.977 141.656C136.489 141.528 136.089 141.4 135.777 141.272C135.473 141.136 135.209 140.94 134.985 140.684C134.769 140.42 134.661 140.076 134.661 139.652C134.661 139.316 134.761 139.008 134.961 138.728C135.161 138.448 135.445 138.228 135.813 138.068C136.181 137.9 136.601 137.816 137.073 137.816C137.801 137.816 138.389 138 138.837 138.368C139.285 138.736 139.525 139.24 139.557 139.88H138.465C138.441 139.536 138.301 139.26 138.045 139.052C137.797 138.844 137.461 138.74 137.037 138.74C136.645 138.74 136.333 138.824 136.101 138.992C135.869 139.16 135.753 139.38 135.753 139.652C135.753 139.868 135.821 140.048 135.957 140.192C136.101 140.328 136.277 140.44 136.485 140.528C136.701 140.608 136.997 140.7 137.373 140.804C137.845 140.932 138.229 141.06 138.525 141.188C138.821 141.308 139.073 141.492 139.281 141.74C139.497 141.988 139.609 142.312 139.617 142.712C139.617 143.072 139.517 143.396 139.317 143.684C139.117 143.972 138.833 144.2 138.465 144.368C138.105 144.528 137.689 144.608 137.217 144.608ZM142.49 138.824V142.7C142.49 143.02 142.558 143.248 142.694 143.384C142.83 143.512 143.066 143.576 143.402 143.576H144.206V144.5H143.222C142.614 144.5 142.158 144.36 141.854 144.08C141.55 143.8 141.398 143.34 141.398 142.7V138.824H140.546V137.924H141.398V136.268H142.49V137.924H144.206V138.824H142.49ZM153.437 137.804C153.949 137.804 154.405 137.912 154.805 138.128C155.205 138.336 155.521 138.652 155.753 139.076C155.985 139.5 156.101 140.016 156.101 140.624V144.5H155.021V140.78C155.021 140.124 154.857 139.624 154.529 139.28C154.209 138.928 153.773 138.752 153.221 138.752C152.653 138.752 152.201 138.936 151.865 139.304C151.529 139.664 151.361 140.188 151.361 140.876V144.5H150.281V140.78C150.281 140.124 150.117 139.624 149.789 139.28C149.469 138.928 149.033 138.752 148.481 138.752C147.913 138.752 147.461 138.936 147.125 139.304C146.789 139.664 146.621 140.188 146.621 140.876V144.5H145.529V137.924H146.621V138.872C146.837 138.528 147.125 138.264 147.485 138.08C147.853 137.896 148.257 137.804 148.697 137.804C149.249 137.804 149.737 137.928 150.161 138.176C150.585 138.424 150.901 138.788 151.109 139.268C151.293 138.804 151.597 138.444 152.021 138.188C152.445 137.932 152.917 137.804 153.437 137.804ZM163.893 140.96C163.893 141.168 163.881 141.388 163.857 141.62H158.601C158.641 142.268 158.861 142.776 159.261 143.144C159.669 143.504 160.161 143.684 160.737 143.684C161.209 143.684 161.601 143.576 161.913 143.36C162.233 143.136 162.457 142.84 162.585 142.472H163.761C163.585 143.104 163.233 143.62 162.705 144.02C162.177 144.412 161.521 144.608 160.737 144.608C160.113 144.608 159.553 144.468 159.057 144.188C158.569 143.908 158.185 143.512 157.905 143C157.625 142.48 157.485 141.88 157.485 141.2C157.485 140.52 157.621 139.924 157.893 139.412C158.165 138.9 158.545 138.508 159.033 138.236C159.529 137.956 160.097 137.816 160.737 137.816C161.361 137.816 161.913 137.952 162.393 138.224C162.873 138.496 163.241 138.872 163.497 139.352C163.761 139.824 163.893 140.36 163.893 140.96ZM162.765 140.732C162.765 140.316 162.673 139.96 162.489 139.664C162.305 139.36 162.053 139.132 161.733 138.98C161.421 138.82 161.073 138.74 160.689 138.74C160.137 138.74 159.665 138.916 159.273 139.268C158.889 139.62 158.669 140.108 158.613 140.732H162.765ZM168.538 137.804C169.338 137.804 169.986 138.048 170.482 138.536C170.978 139.016 171.226 139.712 171.226 140.624V144.5H170.146V140.78C170.146 140.124 169.982 139.624 169.654 139.28C169.326 138.928 168.878 138.752 168.31 138.752C167.734 138.752 167.274 138.932 166.93 139.292C166.594 139.652 166.426 140.176 166.426 140.864V144.5H165.334V137.924H166.426V138.86C166.642 138.524 166.934 138.264 167.302 138.08C167.678 137.896 168.09 137.804 168.538 137.804ZM174.342 138.824V142.7C174.342 143.02 174.41 143.248 174.546 143.384C174.682 143.512 174.918 143.576 175.254 143.576H176.058V144.5H175.074C174.466 144.5 174.01 144.36 173.706 144.08C173.402 143.8 173.25 143.34 173.25 142.7V138.824H172.398V137.924H173.25V136.268H174.342V137.924H176.058V138.824H174.342Z" fill="#242552"/>
<path d="M89.168 167.284V167.732H92.88V170.356H88.976C88.7413 171.785 88.2933 172.927 87.632 173.78C86.992 174.612 86.0747 175.22 84.88 175.604C83.6853 175.967 82.1387 176.148 80.24 176.148V178.164C80.24 179.337 80.4853 180.265 80.976 180.948C81.488 181.631 82.3413 181.972 83.536 181.972C85.712 181.972 86.8 180.745 86.8 178.292H90.16C90.1387 180.447 89.552 182.079 88.4 183.188C87.2693 184.276 85.6267 184.82 83.472 184.82C81.3173 184.82 79.664 184.223 78.512 183.028C77.3813 181.833 76.816 180.159 76.816 178.004V173.62C79.184 173.62 80.9227 173.556 82.032 173.428C83.1413 173.279 83.9627 172.98 84.496 172.532C85.0507 172.084 85.4133 171.359 85.584 170.356H75.472V167.732H85.744V167.284V164.884H75.472V162.228H92.88V164.884H89.168V167.284ZM95.0763 168.25V165.546H100.484V184.5H97.4943V168.25H95.0763ZM108.196 180.938L105.05 188.114H103.126L104.972 180.938H108.196ZM122.616 168.094H113.906V173.268C114.27 172.783 114.807 172.375 115.518 172.046C116.246 171.717 117.017 171.552 117.832 171.552C119.288 171.552 120.467 171.864 121.368 172.488C122.287 173.112 122.937 173.901 123.318 174.854C123.717 175.807 123.916 176.813 123.916 177.87C123.916 179.153 123.665 180.297 123.162 181.302C122.677 182.29 121.94 183.07 120.952 183.642C119.981 184.214 118.785 184.5 117.364 184.5C115.475 184.5 113.958 184.032 112.814 183.096C111.67 182.16 110.985 180.921 110.76 179.378H113.646C113.837 180.193 114.261 180.843 114.92 181.328C115.579 181.796 116.402 182.03 117.39 182.03C118.621 182.03 119.539 181.657 120.146 180.912C120.77 180.167 121.082 179.179 121.082 177.948C121.082 176.7 120.77 175.747 120.146 175.088C119.522 174.412 118.603 174.074 117.39 174.074C116.541 174.074 115.821 174.291 115.232 174.724C114.66 175.14 114.244 175.712 113.984 176.44H111.176V165.494H122.616V168.094ZM127.001 174.776C127.001 171.777 127.504 169.437 128.509 167.756C129.532 166.057 131.283 165.208 133.761 165.208C136.24 165.208 137.982 166.057 138.987 167.756C140.01 169.437 140.521 171.777 140.521 174.776C140.521 177.809 140.01 180.184 138.987 181.9C137.982 183.599 136.24 184.448 133.761 184.448C131.283 184.448 129.532 183.599 128.509 181.9C127.504 180.184 127.001 177.809 127.001 174.776ZM137.609 174.776C137.609 173.372 137.514 172.185 137.323 171.214C137.15 170.243 136.786 169.455 136.231 168.848C135.677 168.224 134.853 167.912 133.761 167.912C132.669 167.912 131.846 168.224 131.291 168.848C130.737 169.455 130.364 170.243 130.173 171.214C130 172.185 129.913 173.372 129.913 174.776C129.913 176.232 130 177.454 130.173 178.442C130.347 179.43 130.711 180.227 131.265 180.834C131.837 181.441 132.669 181.744 133.761 181.744C134.853 181.744 135.677 181.441 136.231 180.834C136.803 180.227 137.176 179.43 137.349 178.442C137.523 177.454 137.609 176.232 137.609 174.776ZM147.298 180.938L144.152 188.114H142.228L144.074 180.938H147.298ZM149.498 174.776C149.498 171.777 150 169.437 151.006 167.756C152.028 166.057 153.779 165.208 156.258 165.208C158.736 165.208 160.478 166.057 161.484 167.756C162.506 169.437 163.018 171.777 163.018 174.776C163.018 177.809 162.506 180.184 161.484 181.9C160.478 183.599 158.736 184.448 156.258 184.448C153.779 184.448 152.028 183.599 151.006 181.9C150 180.184 149.498 177.809 149.498 174.776ZM160.106 174.776C160.106 173.372 160.01 172.185 159.82 171.214C159.646 170.243 159.282 169.455 158.728 168.848C158.173 168.224 157.35 167.912 156.258 167.912C155.166 167.912 154.342 168.224 153.788 168.848C153.233 169.455 152.86 170.243 152.67 171.214C152.496 172.185 152.41 173.372 152.41 174.776C152.41 176.232 152.496 177.454 152.67 178.442C152.843 179.43 153.207 180.227 153.762 180.834C154.334 181.441 155.166 181.744 156.258 181.744C157.35 181.744 158.173 181.441 158.728 180.834C159.3 180.227 159.672 179.43 159.846 178.442C160.019 177.454 160.106 176.232 160.106 174.776ZM166.154 174.776C166.154 171.777 166.656 169.437 167.662 167.756C168.684 166.057 170.435 165.208 172.914 165.208C175.392 165.208 177.134 166.057 178.14 167.756C179.162 169.437 179.674 171.777 179.674 174.776C179.674 177.809 179.162 180.184 178.14 181.9C177.134 183.599 175.392 184.448 172.914 184.448C170.435 184.448 168.684 183.599 167.662 181.9C166.656 180.184 166.154 177.809 166.154 174.776ZM176.762 174.776C176.762 173.372 176.666 172.185 176.476 171.214C176.302 170.243 175.938 169.455 175.384 168.848C174.829 168.224 174.006 167.912 172.914 167.912C171.822 167.912 170.998 168.224 170.444 168.848C169.889 169.455 169.516 170.243 169.326 171.214C169.152 172.185 169.066 173.372 169.066 174.776C169.066 176.232 169.152 177.454 169.326 178.442C169.499 179.43 169.863 180.227 170.418 180.834C170.99 181.441 171.822 181.744 172.914 181.744C174.006 181.744 174.829 181.441 175.384 180.834C175.956 180.227 176.328 179.43 176.502 178.442C176.675 177.454 176.762 176.232 176.762 174.776ZM182.81 174.776C182.81 171.777 183.313 169.437 184.318 167.756C185.341 166.057 187.091 165.208 189.57 165.208C192.049 165.208 193.791 166.057 194.796 167.756C195.819 169.437 196.33 171.777 196.33 174.776C196.33 177.809 195.819 180.184 194.796 181.9C193.791 183.599 192.049 184.448 189.57 184.448C187.091 184.448 185.341 183.599 184.318 181.9C183.313 180.184 182.81 177.809 182.81 174.776ZM193.418 174.776C193.418 173.372 193.323 172.185 193.132 171.214C192.959 170.243 192.595 169.455 192.04 168.848C191.485 168.224 190.662 167.912 189.57 167.912C188.478 167.912 187.655 168.224 187.1 168.848C186.545 169.455 186.173 170.243 185.982 171.214C185.809 172.185 185.722 173.372 185.722 174.776C185.722 176.232 185.809 177.454 185.982 178.442C186.155 179.43 186.519 180.227 187.074 180.834C187.646 181.441 188.478 181.744 189.57 181.744C190.662 181.744 191.485 181.441 192.04 180.834C192.612 180.227 192.985 179.43 193.158 178.442C193.331 177.454 193.418 176.232 193.418 174.776Z" fill="#242552"/>
<path d="M216.462 165.92L224.753 168.142L222.532 176.434" stroke="#22AD57" stroke-width="1.5" stroke-miterlimit="10" stroke-linecap="round" stroke-linejoin="round"/>
<path d="M210.031 176.642L224.606 168.227" stroke="#22AD57" stroke-width="1.5" stroke-miterlimit="10" stroke-linecap="round" stroke-linejoin="round"/>
<path d="M68 131L63.1247 179H38.876L68 131Z" fill="white"/>
<path d="M64 162L28 158.317L28 140L47 173L64 162Z" fill="#4181FF"/>
<path d="M83.697 30.3484L89.091 33.0454L85.7197 37.7651" stroke="#BBBCFF" stroke-width="0.5"/>
<defs>
<linearGradient id="paint0_linear_225_322" x1="19.2205" y1="71.7334" x2="400.826" y2="186.437" gradientUnits="userSpaceOnUse">
<stop stop-color="#5153B8"/>
<stop offset="0.100864" stop-color="#D2DCFF"/>
<stop offset="0.166094" stop-color="white"/>
<stop offset="0.224593" stop-color="white"/>
<stop offset="0.690651" stop-color="white"/>
<stop offset="1" stop-color="#45108A"/>
</linearGradient>
<clipPath id="clip0_225_322">
<rect x="97" y="29" width="238" height="79" rx="15" fill="white"/>
</clipPath>
</defs>
</svg>
