<svg width="28" height="21" viewBox="0 0 28 21" fill="none" xmlns="http://www.w3.org/2000/svg">
<path fill-rule="evenodd" clip-rule="evenodd" d="M10.5 1.75C10.5 0.78351 11.2835 0 12.25 0H26.25C27.2165 0 28 0.78351 28 1.75C28 2.71649 27.2165 3.5 26.25 3.5H12.25C11.2835 3.5 10.5 2.71649 10.5 1.75ZM0 10.5C0 9.53348 0.78351 8.75 1.75 8.75H26.25C27.2165 8.75 28 9.53348 28 10.5C28 11.4665 27.2165 12.25 26.25 12.25H1.75C0.78351 12.25 0 11.4665 0 10.5ZM0 19.25C0 18.2835 0.78351 17.5 1.75 17.5H15.75C16.7165 17.5 17.5 18.2835 17.5 19.25C17.5 20.2165 16.7165 21 15.75 21H1.75C0.78351 21 0 20.2165 0 19.25Z" fill="#242552"/>
</svg>
