<svg width="434" height="492" viewBox="0 0 434 492" fill="none" xmlns="http://www.w3.org/2000/svg">
<g clip-path="url(#clip0_134_194)">
<g filter="url(#filter0_bf_134_194)">
<ellipse cx="90.9368" cy="108.66" rx="213.275" ry="208.364" transform="rotate(-15 90.9368 108.66)" fill="#F1B61C"/>
</g>
<path d="M270.433 308.183C269.632 301.554 277.205 294.822 278.498 291.846C279.853 288.849 276.528 284.396 273.614 284.232C270.72 284.088 281.269 284.15 281.72 281.851C282.131 279.552 280.202 274.381 278.786 270.153C277.39 265.925 274.784 264.611 280.797 262.272C286.77 259.911 294.794 254.965 290.135 250.245C253.008 212.296 283.609 219.664 275.625 195.589C257.79 141.017 182.816 135.29 143 164.106L160.405 199.982C172.575 189.638 184.109 184.65 194.864 185.081C217.112 185.943 227.928 194.912 227.25 211.967C226.922 220.669 220.355 231.568 207.65 244.58C194.905 257.572 186.388 267.033 181.954 273.026C177.624 278.957 174.196 285.422 171.795 292.421C169.394 299.358 168.04 306.685 167.752 314.34C167.588 318.363 168.409 323.063 170.174 328.502C172.021 333.94 173.006 337.081 173.17 337.881L207.999 339.256C200.118 290.697 277.411 363.618 270.433 308.183ZM196.547 351.919C204.777 352.248 211.735 355.45 217.215 361.443C222.797 367.538 225.403 374.68 225.116 382.931C224.787 391.202 221.586 398.098 215.552 403.762C209.6 409.345 202.458 412.033 194.187 411.725C185.916 411.377 178.999 408.175 173.396 402.1C167.773 396.004 165.187 388.883 165.515 380.632C165.843 372.341 168.942 365.424 175.038 359.8C181.072 354.238 188.276 351.611 196.547 351.919Z" fill="#282959"/>
<path opacity="0.77" d="M270.433 308.183C269.633 301.554 277.206 294.821 278.499 291.845C279.505 289.649 277.945 286.633 275.852 285.134C277.329 286.756 278.212 289.034 277.411 290.84C276.118 293.816 268.504 300.568 269.345 307.156C276.323 362.591 198.99 289.67 206.891 338.271L172.925 336.916C173.027 337.388 173.11 337.716 173.151 337.881L207.979 339.255C200.119 290.696 277.411 363.618 270.433 308.183ZM274.6 284.067C277.001 283.821 281.414 283.349 281.701 281.85C282.111 279.552 280.182 274.38 278.766 270.152C277.37 265.924 274.764 264.611 280.777 262.271C286.75 259.911 294.775 254.965 290.116 250.244C252.988 212.296 283.589 219.663 275.605 195.589C271.685 183.541 264.974 173.896 256.436 166.466C264.461 173.773 270.782 183.111 274.558 194.604C282.46 218.679 251.859 211.31 288.987 249.238C293.645 254 285.662 258.905 279.648 261.286C273.676 263.646 276.241 264.98 277.678 269.167C279.033 273.416 281.003 278.608 280.613 280.907C280.162 283.185 269.592 283.123 272.465 283.267C273.204 283.287 273.922 283.595 274.6 284.067ZM159.748 198.627L160.405 199.981C172.576 189.637 184.11 184.65 194.864 185.081C206.07 185.512 214.383 188.016 219.76 192.531C214.403 187.38 205.784 184.547 193.777 184.096C183.146 183.665 171.755 188.508 159.748 198.627ZM214.485 358.795C215.45 359.616 216.374 360.498 217.215 361.442C222.798 367.538 225.404 374.68 225.117 382.93C224.788 391.202 221.586 398.097 215.552 403.762C209.6 409.344 202.458 412.033 194.187 411.725C186.696 411.417 180.293 408.749 174.998 403.7C180.067 408.134 186.101 410.432 193.099 410.72C201.391 411.028 208.492 408.401 214.485 402.757C220.478 397.133 223.68 390.216 224.049 381.966C224.337 373.654 221.71 366.532 216.148 360.436C215.573 359.882 215.019 359.349 214.485 358.795Z" fill="#F5F5F5"/>
<path d="M116.746 101.244V109H112.014V101.244L104.622 88.602H108.794C109.205 88.602 109.527 88.7 109.76 88.896C110.003 89.0827 110.203 89.3253 110.362 89.624L113.246 95.56C113.489 96.0267 113.708 96.4653 113.904 96.876C114.1 97.2773 114.273 97.674 114.422 98.066C114.562 97.6647 114.721 97.2633 114.898 96.862C115.085 96.4513 115.299 96.0173 115.542 95.56L118.398 89.624C118.463 89.5027 118.543 89.3813 118.636 89.26C118.729 89.1387 118.837 89.0313 118.958 88.938C119.089 88.8353 119.233 88.756 119.392 88.7C119.56 88.6347 119.742 88.602 119.938 88.602H124.138L116.746 101.244ZM128.666 94.258C129.767 94.258 130.771 94.4307 131.676 94.776C132.581 95.1213 133.356 95.616 134 96.26C134.653 96.904 135.157 97.688 135.512 98.612C135.876 99.5267 136.058 100.558 136.058 101.706C136.058 102.863 135.876 103.909 135.512 104.842C135.157 105.766 134.653 106.555 134 107.208C133.356 107.852 132.581 108.351 131.676 108.706C130.771 109.051 129.767 109.224 128.666 109.224C127.555 109.224 126.543 109.051 125.628 108.706C124.723 108.351 123.939 107.852 123.276 107.208C122.623 106.555 122.114 105.766 121.75 104.842C121.395 103.909 121.218 102.863 121.218 101.706C121.218 100.558 121.395 99.5267 121.75 98.612C122.114 97.688 122.623 96.904 123.276 96.26C123.939 95.616 124.723 95.1213 125.628 94.776C126.543 94.4307 127.555 94.258 128.666 94.258ZM128.666 106.004C129.665 106.004 130.397 105.654 130.864 104.954C131.34 104.245 131.578 103.171 131.578 101.734C131.578 100.297 131.34 99.228 130.864 98.528C130.397 97.828 129.665 97.478 128.666 97.478C127.639 97.478 126.888 97.828 126.412 98.528C125.936 99.228 125.698 100.297 125.698 101.734C125.698 103.171 125.936 104.245 126.412 104.954C126.888 105.654 127.639 106.004 128.666 106.004ZM151.263 94.482V109H148.575C148.034 109 147.679 108.757 147.511 108.272L147.259 107.432C146.979 107.703 146.69 107.95 146.391 108.174C146.093 108.389 145.771 108.575 145.425 108.734C145.089 108.883 144.721 109 144.319 109.084C143.927 109.177 143.498 109.224 143.031 109.224C142.238 109.224 141.533 109.089 140.917 108.818C140.311 108.538 139.797 108.151 139.377 107.656C138.957 107.161 138.64 106.578 138.425 105.906C138.211 105.234 138.103 104.497 138.103 103.694V94.482H142.443V103.694C142.443 104.413 142.607 104.968 142.933 105.36C143.26 105.752 143.741 105.948 144.375 105.948C144.851 105.948 145.295 105.85 145.705 105.654C146.125 105.449 146.531 105.173 146.923 104.828V94.482H151.263ZM171.361 97.926C171.23 98.0847 171.104 98.2107 170.983 98.304C170.861 98.3973 170.689 98.444 170.465 98.444C170.25 98.444 170.054 98.3927 169.877 98.29C169.709 98.1873 169.517 98.0753 169.303 97.954C169.088 97.8233 168.836 97.7067 168.547 97.604C168.257 97.5013 167.898 97.45 167.469 97.45C166.937 97.45 166.475 97.548 166.083 97.744C165.7 97.94 165.383 98.22 165.131 98.584C164.879 98.948 164.692 99.396 164.571 99.928C164.449 100.451 164.389 101.043 164.389 101.706C164.389 103.097 164.655 104.165 165.187 104.912C165.728 105.659 166.47 106.032 167.413 106.032C167.917 106.032 168.313 105.971 168.603 105.85C168.901 105.719 169.153 105.579 169.359 105.43C169.564 105.271 169.751 105.127 169.919 104.996C170.096 104.865 170.315 104.8 170.577 104.8C170.922 104.8 171.183 104.926 171.361 105.178L172.621 106.732C172.173 107.245 171.701 107.665 171.207 107.992C170.712 108.309 170.203 108.561 169.681 108.748C169.167 108.925 168.649 109.047 168.127 109.112C167.604 109.187 167.095 109.224 166.601 109.224C165.714 109.224 164.865 109.056 164.053 108.72C163.25 108.384 162.541 107.899 161.925 107.264C161.318 106.62 160.833 105.831 160.469 104.898C160.114 103.965 159.937 102.901 159.937 101.706C159.937 100.661 160.091 99.6853 160.399 98.78C160.716 97.8653 161.178 97.0767 161.785 96.414C162.401 95.742 163.157 95.2147 164.053 94.832C164.958 94.4493 166.003 94.258 167.189 94.258C168.327 94.258 169.326 94.44 170.185 94.804C171.043 95.168 171.818 95.7 172.509 96.4L171.361 97.926ZM181.8 103.092C180.932 103.129 180.218 103.204 179.658 103.316C179.098 103.428 178.655 103.568 178.328 103.736C178.001 103.904 177.773 104.095 177.642 104.31C177.521 104.525 177.46 104.758 177.46 105.01C177.46 105.505 177.595 105.855 177.866 106.06C178.137 106.256 178.533 106.354 179.056 106.354C179.616 106.354 180.106 106.256 180.526 106.06C180.946 105.864 181.371 105.547 181.8 105.108V103.092ZM173.988 96.498C174.865 95.7233 175.836 95.1493 176.9 94.776C177.973 94.3933 179.121 94.202 180.344 94.202C181.221 94.202 182.01 94.3467 182.71 94.636C183.419 94.916 184.017 95.3127 184.502 95.826C184.997 96.33 185.375 96.932 185.636 97.632C185.897 98.332 186.028 99.0973 186.028 99.928V109H184.04C183.629 109 183.317 108.944 183.102 108.832C182.897 108.72 182.724 108.487 182.584 108.132L182.276 107.334C181.912 107.642 181.562 107.913 181.226 108.146C180.89 108.379 180.54 108.58 180.176 108.748C179.821 108.907 179.439 109.023 179.028 109.098C178.627 109.182 178.179 109.224 177.684 109.224C177.021 109.224 176.419 109.14 175.878 108.972C175.337 108.795 174.875 108.538 174.492 108.202C174.119 107.866 173.829 107.451 173.624 106.956C173.419 106.452 173.316 105.873 173.316 105.22C173.316 104.697 173.447 104.17 173.708 103.638C173.969 103.097 174.422 102.607 175.066 102.168C175.71 101.72 176.578 101.347 177.67 101.048C178.762 100.749 180.139 100.581 181.8 100.544V99.928C181.8 99.0787 181.623 98.4673 181.268 98.094C180.923 97.7113 180.428 97.52 179.784 97.52C179.271 97.52 178.851 97.576 178.524 97.688C178.197 97.8 177.903 97.926 177.642 98.066C177.39 98.206 177.143 98.332 176.9 98.444C176.657 98.556 176.368 98.612 176.032 98.612C175.733 98.612 175.481 98.5373 175.276 98.388C175.071 98.2387 174.903 98.0613 174.772 97.856L173.988 96.498ZM192.806 96.05C193.086 95.7887 193.375 95.546 193.674 95.322C193.973 95.098 194.29 94.9113 194.626 94.762C194.971 94.6033 195.34 94.482 195.732 94.398C196.133 94.3047 196.567 94.258 197.034 94.258C197.827 94.258 198.527 94.398 199.134 94.678C199.75 94.9487 200.268 95.3313 200.688 95.826C201.108 96.3113 201.425 96.8947 201.64 97.576C201.855 98.248 201.962 98.9807 201.962 99.774V109H197.622V99.774C197.622 99.0647 197.459 98.514 197.132 98.122C196.805 97.7207 196.325 97.52 195.69 97.52C195.214 97.52 194.766 97.6227 194.346 97.828C193.935 98.024 193.534 98.2947 193.142 98.64V109H188.802V94.482H191.49C192.031 94.482 192.386 94.7247 192.554 95.21L192.806 96.05ZM215.591 105.052C215.918 105.407 216.273 105.659 216.655 105.808C217.038 105.957 217.425 106.032 217.817 106.032C218.228 106.032 218.606 105.957 218.951 105.808C219.297 105.649 219.591 105.397 219.833 105.052C220.085 104.697 220.281 104.235 220.421 103.666C220.561 103.087 220.631 102.378 220.631 101.538C220.631 100.81 220.575 100.194 220.463 99.69C220.361 99.1767 220.202 98.7613 219.987 98.444C219.782 98.1173 219.521 97.884 219.203 97.744C218.895 97.5947 218.541 97.52 218.139 97.52C217.607 97.52 217.145 97.6367 216.753 97.87C216.361 98.1033 215.974 98.444 215.591 98.892V105.052ZM215.591 96.022C216.151 95.49 216.763 95.0653 217.425 94.748C218.097 94.4213 218.844 94.258 219.665 94.258C220.487 94.258 221.233 94.426 221.905 94.762C222.577 95.098 223.151 95.5787 223.627 96.204C224.103 96.82 224.467 97.5667 224.719 98.444C224.981 99.3213 225.111 100.301 225.111 101.384C225.111 102.56 224.962 103.629 224.663 104.59C224.365 105.551 223.94 106.377 223.389 107.068C222.848 107.749 222.199 108.281 221.443 108.664C220.687 109.037 219.852 109.224 218.937 109.224C218.499 109.224 218.107 109.182 217.761 109.098C217.416 109.014 217.099 108.897 216.809 108.748C216.52 108.589 216.254 108.403 216.011 108.188C215.778 107.973 215.549 107.74 215.325 107.488L215.171 108.216C215.097 108.515 214.975 108.72 214.807 108.832C214.639 108.944 214.415 109 214.135 109H211.251V88.042H215.591V96.022ZM236.359 99.998C236.359 99.6527 236.313 99.3167 236.219 98.99C236.135 98.6633 235.991 98.374 235.785 98.122C235.589 97.8607 235.328 97.6507 235.001 97.492C234.675 97.3333 234.278 97.254 233.811 97.254C232.99 97.254 232.346 97.492 231.879 97.968C231.413 98.4347 231.105 99.1113 230.955 99.998H236.359ZM230.899 102.518C231.039 103.731 231.408 104.613 232.005 105.164C232.603 105.705 233.373 105.976 234.315 105.976C234.819 105.976 235.253 105.915 235.617 105.794C235.981 105.673 236.303 105.537 236.583 105.388C236.873 105.239 237.134 105.103 237.367 104.982C237.61 104.861 237.862 104.8 238.123 104.8C238.469 104.8 238.73 104.926 238.907 105.178L240.167 106.732C239.719 107.245 239.234 107.665 238.711 107.992C238.198 108.309 237.666 108.561 237.115 108.748C236.574 108.925 236.028 109.047 235.477 109.112C234.936 109.187 234.418 109.224 233.923 109.224C232.906 109.224 231.949 109.061 231.053 108.734C230.167 108.398 229.387 107.903 228.715 107.25C228.053 106.597 227.525 105.785 227.133 104.814C226.751 103.843 226.559 102.714 226.559 101.426C226.559 100.455 226.723 99.536 227.049 98.668C227.385 97.8 227.861 97.0393 228.477 96.386C229.103 95.7327 229.854 95.2147 230.731 94.832C231.618 94.4493 232.617 94.258 233.727 94.258C234.689 94.258 235.566 94.4073 236.359 94.706C237.162 95.0047 237.848 95.4387 238.417 96.008C238.996 96.5773 239.444 97.2773 239.761 98.108C240.088 98.9293 240.251 99.8627 240.251 100.908C240.251 101.235 240.237 101.501 240.209 101.706C240.181 101.911 240.13 102.075 240.055 102.196C239.981 102.317 239.878 102.401 239.747 102.448C239.626 102.495 239.467 102.518 239.271 102.518H230.899ZM267.216 88.602V109H264.752C264.388 109 264.08 108.944 263.828 108.832C263.585 108.711 263.342 108.505 263.1 108.216L253.482 96.05C253.519 96.414 253.542 96.7687 253.552 97.114C253.57 97.45 253.58 97.7673 253.58 98.066V109H249.408V88.602H251.9C252.105 88.602 252.278 88.6113 252.418 88.63C252.558 88.6487 252.684 88.686 252.796 88.742C252.908 88.7887 253.015 88.8587 253.118 88.952C253.22 89.0453 253.337 89.1713 253.468 89.33L263.17 101.58C263.123 101.188 263.09 100.81 263.072 100.446C263.053 100.073 263.044 99.7227 263.044 99.396V88.602H267.216ZM279.262 99.998C279.262 99.6527 279.215 99.3167 279.122 98.99C279.038 98.6633 278.893 98.374 278.688 98.122C278.492 97.8607 278.23 97.6507 277.904 97.492C277.577 97.3333 277.18 97.254 276.714 97.254C275.892 97.254 275.248 97.492 274.782 97.968C274.315 98.4347 274.007 99.1113 273.858 99.998H279.262ZM273.802 102.518C273.942 103.731 274.31 104.613 274.908 105.164C275.505 105.705 276.275 105.976 277.218 105.976C277.722 105.976 278.156 105.915 278.52 105.794C278.884 105.673 279.206 105.537 279.486 105.388C279.775 105.239 280.036 105.103 280.27 104.982C280.512 104.861 280.764 104.8 281.026 104.8C281.371 104.8 281.632 104.926 281.81 105.178L283.07 106.732C282.622 107.245 282.136 107.665 281.614 107.992C281.1 108.309 280.568 108.561 280.018 108.748C279.476 108.925 278.93 109.047 278.38 109.112C277.838 109.187 277.32 109.224 276.826 109.224C275.808 109.224 274.852 109.061 273.956 108.734C273.069 108.398 272.29 107.903 271.618 107.25C270.955 106.597 270.428 105.785 270.036 104.814C269.653 103.843 269.462 102.714 269.462 101.426C269.462 100.455 269.625 99.536 269.952 98.668C270.288 97.8 270.764 97.0393 271.38 96.386C272.005 95.7327 272.756 95.2147 273.634 94.832C274.52 94.4493 275.519 94.258 276.63 94.258C277.591 94.258 278.468 94.4073 279.262 94.706C280.064 95.0047 280.75 95.4387 281.32 96.008C281.898 96.5773 282.346 97.2773 282.664 98.108C282.99 98.9293 283.154 99.8627 283.154 100.908C283.154 101.235 283.14 101.501 283.112 101.706C283.084 101.911 283.032 102.075 282.958 102.196C282.883 102.317 282.78 102.401 282.65 102.448C282.528 102.495 282.37 102.518 282.174 102.518H273.802ZM298.967 109H294.795C294.487 109 294.235 108.925 294.039 108.776C293.853 108.627 293.703 108.449 293.591 108.244L291.001 103.792C290.955 103.951 290.899 104.1 290.833 104.24C290.768 104.38 290.698 104.511 290.623 104.632L288.495 108.244C288.365 108.431 288.211 108.603 288.033 108.762C287.856 108.921 287.627 109 287.347 109H283.483L288.355 101.496L283.679 94.482H287.851C288.159 94.482 288.383 94.524 288.523 94.608C288.673 94.6827 288.803 94.8133 288.915 95L291.505 99.298C291.561 99.13 291.631 98.9667 291.715 98.808C291.799 98.64 291.893 98.472 291.995 98.304L293.843 95.07C293.974 94.8647 294.109 94.7153 294.249 94.622C294.399 94.5287 294.581 94.482 294.795 94.482H298.771L294.095 101.3L298.967 109ZM305.504 109.224C304.813 109.224 304.202 109.126 303.67 108.93C303.147 108.725 302.704 108.44 302.34 108.076C301.985 107.703 301.715 107.255 301.528 106.732C301.341 106.209 301.248 105.626 301.248 104.982V97.478H300.016C299.792 97.478 299.601 97.408 299.442 97.268C299.283 97.1187 299.204 96.904 299.204 96.624V94.93L301.514 94.482L302.368 90.94C302.48 90.492 302.797 90.268 303.32 90.268H305.588V94.51H309.186V97.478H305.588V104.688C305.588 105.024 305.667 105.304 305.826 105.528C305.994 105.743 306.232 105.85 306.54 105.85C306.699 105.85 306.829 105.836 306.932 105.808C307.044 105.771 307.137 105.733 307.212 105.696C307.296 105.649 307.371 105.612 307.436 105.584C307.511 105.547 307.595 105.528 307.688 105.528C307.819 105.528 307.921 105.561 307.996 105.626C308.08 105.682 308.164 105.775 308.248 105.906L309.564 107.964C309.004 108.384 308.374 108.701 307.674 108.916C306.974 109.121 306.251 109.224 305.504 109.224ZM310.468 106.802C310.468 106.466 310.529 106.153 310.65 105.864C310.781 105.575 310.953 105.323 311.168 105.108C311.392 104.893 311.653 104.725 311.952 104.604C312.251 104.473 312.577 104.408 312.932 104.408C313.277 104.408 313.599 104.473 313.898 104.604C314.197 104.725 314.458 104.893 314.682 105.108C314.906 105.323 315.079 105.575 315.2 105.864C315.331 106.153 315.396 106.466 315.396 106.802C315.396 107.138 315.331 107.455 315.2 107.754C315.079 108.043 314.906 108.295 314.682 108.51C314.458 108.725 314.197 108.893 313.898 109.014C313.599 109.135 313.277 109.196 312.932 109.196C312.577 109.196 312.251 109.135 311.952 109.014C311.653 108.893 311.392 108.725 311.168 108.51C310.953 108.295 310.781 108.043 310.65 107.754C310.529 107.455 310.468 107.138 310.468 106.802ZM317.167 106.802C317.167 106.466 317.228 106.153 317.349 105.864C317.48 105.575 317.652 105.323 317.867 105.108C318.091 104.893 318.352 104.725 318.651 104.604C318.95 104.473 319.276 104.408 319.631 104.408C319.976 104.408 320.298 104.473 320.597 104.604C320.896 104.725 321.157 104.893 321.381 105.108C321.605 105.323 321.778 105.575 321.899 105.864C322.03 106.153 322.095 106.466 322.095 106.802C322.095 107.138 322.03 107.455 321.899 107.754C321.778 108.043 321.605 108.295 321.381 108.51C321.157 108.725 320.896 108.893 320.597 109.014C320.298 109.135 319.976 109.196 319.631 109.196C319.276 109.196 318.95 109.135 318.651 109.014C318.352 108.893 318.091 108.725 317.867 108.51C317.652 108.295 317.48 108.043 317.349 107.754C317.228 107.455 317.167 107.138 317.167 106.802ZM329.116 88.602V96.61C329.116 97.4687 329.065 98.3227 328.962 99.172C328.86 100.012 328.724 100.871 328.556 101.748H325.616C325.448 100.871 325.313 100.012 325.21 99.172C325.108 98.3227 325.056 97.4687 325.056 96.61V88.602H329.116ZM324.58 106.802C324.58 106.466 324.641 106.153 324.762 105.864C324.893 105.575 325.066 105.323 325.28 105.108C325.504 104.893 325.766 104.725 326.064 104.604C326.363 104.473 326.69 104.408 327.044 104.408C327.39 104.408 327.712 104.473 328.01 104.604C328.309 104.725 328.57 104.893 328.794 105.108C329.018 105.323 329.191 105.575 329.312 105.864C329.443 106.153 329.508 106.466 329.508 106.802C329.508 107.138 329.443 107.455 329.312 107.754C329.191 108.043 329.018 108.295 328.794 108.51C328.57 108.725 328.309 108.893 328.01 109.014C327.712 109.135 327.39 109.196 327.044 109.196C326.69 109.196 326.363 109.135 326.064 109.014C325.766 108.893 325.504 108.725 325.28 108.51C325.066 108.295 324.893 108.043 324.762 107.754C324.641 107.455 324.58 107.138 324.58 106.802Z" fill="#272858"/>
</g>
<defs>
<filter id="filter0_bf_134_194" x="-822.065" y="-800.089" width="1826" height="1817.5" filterUnits="userSpaceOnUse" color-interpolation-filters="sRGB">
<feFlood flood-opacity="0" result="BackgroundImageFix"/>
<feGaussianBlur in="BackgroundImageFix" stdDeviation="2"/>
<feComposite in2="SourceAlpha" operator="in" result="effect1_backgroundBlur_134_194"/>
<feBlend mode="normal" in="SourceGraphic" in2="effect1_backgroundBlur_134_194" result="shape"/>
<feGaussianBlur stdDeviation="350" result="effect2_foregroundBlur_134_194"/>
</filter>
<clipPath id="clip0_134_194">
<rect width="434" height="492" rx="15" fill="white"/>
</clipPath>
</defs>
</svg>
