<svg width="383" height="369" viewBox="0 0 383 369" fill="none" xmlns="http://www.w3.org/2000/svg">
<g clip-path="url(#clip0_228_822)">
<rect y="169" width="252" height="93" rx="15" fill="white"/>
<rect x="17" y="196" width="40" height="40" rx="20" fill="#FFC200"/>
<path d="M217.229 209.631L225.68 211.14L224.171 219.59" stroke="#22AD57" stroke-width="1.5" stroke-miterlimit="10" stroke-linecap="round" stroke-linejoin="round"/>
<path d="M211.733 220.86L225.54 211.237" stroke="#22AD57" stroke-width="1.5" stroke-miterlimit="10" stroke-linecap="round" stroke-linejoin="round"/>
<path d="M9.66104 189.5C-53.3386 269.5 19.8003 181.4 33.0003 215C46.2003 248.6 125.328 209 131.661 179" stroke="white" stroke-width="16"/>
<path d="M73.516 191.812C73.516 190.996 73.7 190.264 74.068 189.616C74.436 188.96 74.936 188.448 75.568 188.08C76.208 187.712 76.916 187.528 77.692 187.528C78.604 187.528 79.4 187.748 80.08 188.188C80.76 188.628 81.256 189.252 81.568 190.06H80.26C80.028 189.556 79.692 189.168 79.252 188.896C78.82 188.624 78.3 188.488 77.692 188.488C77.108 188.488 76.584 188.624 76.12 188.896C75.656 189.168 75.292 189.556 75.028 190.06C74.764 190.556 74.632 191.14 74.632 191.812C74.632 192.476 74.764 193.06 75.028 193.564C75.292 194.06 75.656 194.444 76.12 194.716C76.584 194.988 77.108 195.124 77.692 195.124C78.3 195.124 78.82 194.992 79.252 194.728C79.692 194.456 80.028 194.068 80.26 193.564H81.568C81.256 194.364 80.76 194.984 80.08 195.424C79.4 195.856 78.604 196.072 77.692 196.072C76.916 196.072 76.208 195.892 75.568 195.532C74.936 195.164 74.436 194.656 74.068 194.008C73.7 193.36 73.516 192.628 73.516 191.812ZM89.0255 189.424V196H87.9335V195.028C87.7255 195.364 87.4335 195.628 87.0575 195.82C86.6895 196.004 86.2815 196.096 85.8335 196.096C85.3215 196.096 84.8615 195.992 84.4535 195.784C84.0455 195.568 83.7215 195.248 83.4815 194.824C83.2495 194.4 83.1335 193.884 83.1335 193.276V189.424H84.2135V193.132C84.2135 193.78 84.3775 194.28 84.7055 194.632C85.0335 194.976 85.4815 195.148 86.0495 195.148C86.6335 195.148 87.0935 194.968 87.4295 194.608C87.7655 194.248 87.9335 193.724 87.9335 193.036V189.424H89.0255ZM91.9613 190.492C92.1533 190.116 92.4253 189.824 92.7773 189.616C93.1373 189.408 93.5733 189.304 94.0853 189.304V190.432H93.7973C92.5733 190.432 91.9613 191.096 91.9613 192.424V196H90.8693V189.424H91.9613V190.492ZM96.4379 190.492C96.6299 190.116 96.9019 189.824 97.2539 189.616C97.6139 189.408 98.0499 189.304 98.5619 189.304V190.432H98.2739C97.0499 190.432 96.4379 191.096 96.4379 192.424V196H95.3459V189.424H96.4379V190.492ZM105.822 192.46C105.822 192.668 105.81 192.888 105.786 193.12H100.53C100.57 193.768 100.79 194.276 101.19 194.644C101.598 195.004 102.09 195.184 102.666 195.184C103.138 195.184 103.53 195.076 103.842 194.86C104.162 194.636 104.386 194.34 104.514 193.972H105.69C105.514 194.604 105.162 195.12 104.634 195.52C104.106 195.912 103.45 196.108 102.666 196.108C102.042 196.108 101.482 195.968 100.986 195.688C100.498 195.408 100.114 195.012 99.8344 194.5C99.5544 193.98 99.4144 193.38 99.4144 192.7C99.4144 192.02 99.5504 191.424 99.8224 190.912C100.094 190.4 100.474 190.008 100.962 189.736C101.458 189.456 102.026 189.316 102.666 189.316C103.29 189.316 103.842 189.452 104.322 189.724C104.802 189.996 105.17 190.372 105.426 190.852C105.69 191.324 105.822 191.86 105.822 192.46ZM104.694 192.232C104.694 191.816 104.602 191.46 104.418 191.164C104.234 190.86 103.982 190.632 103.662 190.48C103.35 190.32 103.002 190.24 102.618 190.24C102.066 190.24 101.594 190.416 101.202 190.768C100.818 191.12 100.598 191.608 100.542 192.232H104.694ZM110.468 189.304C111.268 189.304 111.916 189.548 112.412 190.036C112.908 190.516 113.156 191.212 113.156 192.124V196H112.076V192.28C112.076 191.624 111.912 191.124 111.584 190.78C111.256 190.428 110.808 190.252 110.24 190.252C109.664 190.252 109.204 190.432 108.86 190.792C108.524 191.152 108.356 191.676 108.356 192.364V196H107.264V189.424H108.356V190.36C108.572 190.024 108.864 189.764 109.232 189.58C109.608 189.396 110.02 189.304 110.468 189.304ZM116.272 190.324V194.2C116.272 194.52 116.34 194.748 116.476 194.884C116.612 195.012 116.848 195.076 117.184 195.076H117.988V196H117.004C116.396 196 115.94 195.86 115.636 195.58C115.332 195.3 115.18 194.84 115.18 194.2V190.324H114.328V189.424H115.18V187.768H116.272V189.424H117.988V190.324H116.272ZM129.422 187.636L126.266 196H125.006L121.85 187.636H123.014L125.642 194.848L128.27 187.636H129.422ZM130.211 192.688C130.211 192.016 130.347 191.428 130.619 190.924C130.891 190.412 131.263 190.016 131.735 189.736C132.215 189.456 132.747 189.316 133.331 189.316C133.907 189.316 134.407 189.44 134.831 189.688C135.255 189.936 135.571 190.248 135.779 190.624V189.424H136.883V196H135.779V194.776C135.563 195.16 135.239 195.48 134.807 195.736C134.383 195.984 133.887 196.108 133.319 196.108C132.735 196.108 132.207 195.964 131.735 195.676C131.263 195.388 130.891 194.984 130.619 194.464C130.347 193.944 130.211 193.352 130.211 192.688ZM135.779 192.7C135.779 192.204 135.679 191.772 135.479 191.404C135.279 191.036 135.007 190.756 134.663 190.564C134.327 190.364 133.955 190.264 133.547 190.264C133.139 190.264 132.767 190.36 132.431 190.552C132.095 190.744 131.827 191.024 131.627 191.392C131.427 191.76 131.327 192.192 131.327 192.688C131.327 193.192 131.427 193.632 131.627 194.008C131.827 194.376 132.095 194.66 132.431 194.86C132.767 195.052 133.139 195.148 133.547 195.148C133.955 195.148 134.327 195.052 134.663 194.86C135.007 194.66 135.279 194.376 135.479 194.008C135.679 193.632 135.779 193.196 135.779 192.7ZM139.821 187.12V196H138.729V187.12H139.821ZM147.514 189.424V196H146.422V195.028C146.214 195.364 145.922 195.628 145.546 195.82C145.178 196.004 144.77 196.096 144.322 196.096C143.81 196.096 143.35 195.992 142.942 195.784C142.534 195.568 142.21 195.248 141.97 194.824C141.738 194.4 141.622 193.884 141.622 193.276V189.424H142.702V193.132C142.702 193.78 142.866 194.28 143.194 194.632C143.522 194.976 143.97 195.148 144.538 195.148C145.122 195.148 145.582 194.968 145.918 194.608C146.254 194.248 146.422 193.724 146.422 193.036V189.424H147.514ZM148.95 192.688C148.95 192.016 149.086 191.428 149.358 190.924C149.63 190.412 150.002 190.016 150.474 189.736C150.954 189.456 151.486 189.316 152.07 189.316C152.646 189.316 153.146 189.44 153.57 189.688C153.994 189.936 154.31 190.248 154.518 190.624V189.424H155.622V196H154.518V194.776C154.302 195.16 153.978 195.48 153.546 195.736C153.122 195.984 152.626 196.108 152.058 196.108C151.474 196.108 150.946 195.964 150.474 195.676C150.002 195.388 149.63 194.984 149.358 194.464C149.086 193.944 148.95 193.352 148.95 192.688ZM154.518 192.7C154.518 192.204 154.418 191.772 154.218 191.404C154.018 191.036 153.746 190.756 153.402 190.564C153.066 190.364 152.694 190.264 152.286 190.264C151.878 190.264 151.506 190.36 151.17 190.552C150.834 190.744 150.566 191.024 150.366 191.392C150.166 191.76 150.066 192.192 150.066 192.688C150.066 193.192 150.166 193.632 150.366 194.008C150.566 194.376 150.834 194.66 151.17 194.86C151.506 195.052 151.878 195.148 152.286 195.148C152.694 195.148 153.066 195.052 153.402 194.86C153.746 194.66 154.018 194.376 154.218 194.008C154.418 193.632 154.518 193.196 154.518 192.7ZM158.799 190.324V194.2C158.799 194.52 158.867 194.748 159.003 194.884C159.139 195.012 159.375 195.076 159.711 195.076H160.515V196H159.531C158.923 196 158.467 195.86 158.163 195.58C157.859 195.3 157.707 194.84 157.707 194.2V190.324H156.855V189.424H157.707V187.768H158.799V189.424H160.515V190.324H158.799ZM162.402 188.356C162.194 188.356 162.018 188.284 161.874 188.14C161.73 187.996 161.658 187.82 161.658 187.612C161.658 187.404 161.73 187.228 161.874 187.084C162.018 186.94 162.194 186.868 162.402 186.868C162.602 186.868 162.77 186.94 162.906 187.084C163.05 187.228 163.122 187.404 163.122 187.612C163.122 187.82 163.05 187.996 162.906 188.14C162.77 188.284 162.602 188.356 162.402 188.356ZM162.93 189.424V196H161.838V189.424H162.93ZM167.659 196.108C167.043 196.108 166.483 195.968 165.979 195.688C165.483 195.408 165.091 195.012 164.803 194.5C164.523 193.98 164.383 193.38 164.383 192.7C164.383 192.028 164.527 191.436 164.815 190.924C165.111 190.404 165.511 190.008 166.015 189.736C166.519 189.456 167.083 189.316 167.707 189.316C168.331 189.316 168.895 189.456 169.399 189.736C169.903 190.008 170.299 190.4 170.587 190.912C170.883 191.424 171.031 192.02 171.031 192.7C171.031 193.38 170.879 193.98 170.575 194.5C170.279 195.012 169.875 195.408 169.363 195.688C168.851 195.968 168.283 196.108 167.659 196.108ZM167.659 195.148C168.051 195.148 168.419 195.056 168.763 194.872C169.107 194.688 169.383 194.412 169.591 194.044C169.807 193.676 169.915 193.228 169.915 192.7C169.915 192.172 169.811 191.724 169.603 191.356C169.395 190.988 169.123 190.716 168.787 190.54C168.451 190.356 168.087 190.264 167.695 190.264C167.295 190.264 166.927 190.356 166.591 190.54C166.263 190.716 165.999 190.988 165.799 191.356C165.599 191.724 165.499 192.172 165.499 192.7C165.499 193.236 165.595 193.688 165.787 194.056C165.987 194.424 166.251 194.7 166.579 194.884C166.907 195.06 167.267 195.148 167.659 195.148ZM175.671 189.304C176.471 189.304 177.119 189.548 177.615 190.036C178.111 190.516 178.359 191.212 178.359 192.124V196H177.279V192.28C177.279 191.624 177.115 191.124 176.787 190.78C176.459 190.428 176.011 190.252 175.443 190.252C174.867 190.252 174.407 190.432 174.063 190.792C173.727 191.152 173.559 191.676 173.559 192.364V196H172.467V189.424H173.559V190.36C173.775 190.024 174.067 189.764 174.435 189.58C174.811 189.396 175.223 189.304 175.671 189.304Z" fill="#242552"/>
<path d="M88.168 218.784V219.232H91.88V221.856H87.976C87.7413 223.285 87.2933 224.427 86.632 225.28C85.992 226.112 85.0747 226.72 83.88 227.104C82.6853 227.467 81.1387 227.648 79.24 227.648V229.664C79.24 230.837 79.4853 231.765 79.976 232.448C80.488 233.131 81.3413 233.472 82.536 233.472C84.712 233.472 85.8 232.245 85.8 229.792H89.16C89.1387 231.947 88.552 233.579 87.4 234.688C86.2693 235.776 84.6267 236.32 82.472 236.32C80.3173 236.32 78.664 235.723 77.512 234.528C76.3813 233.333 75.816 231.659 75.816 229.504V225.12C78.184 225.12 79.9227 225.056 81.032 224.928C82.1413 224.779 82.9627 224.48 83.496 224.032C84.0507 223.584 84.4133 222.859 84.584 221.856H74.472V219.232H84.744V218.784V216.384H74.472V213.728H91.88V216.384H88.168V218.784ZM98.1583 230.852C98.3316 231.719 98.7043 232.377 99.2763 232.828C99.8483 233.279 100.62 233.504 101.59 233.504C102.821 233.504 103.722 233.019 104.294 232.048C104.866 231.077 105.152 229.422 105.152 227.082C104.736 227.671 104.147 228.131 103.384 228.46C102.639 228.772 101.824 228.928 100.94 228.928C99.8136 228.928 98.7909 228.703 97.8723 228.252C96.9536 227.784 96.2256 227.099 95.6883 226.198C95.1683 225.279 94.9083 224.17 94.9083 222.87C94.9083 220.963 95.4629 219.447 96.5723 218.32C97.6989 217.176 99.2416 216.604 101.2 216.604C103.558 216.604 105.23 217.393 106.218 218.97C107.224 220.53 107.726 222.931 107.726 226.172C107.726 228.408 107.536 230.237 107.154 231.658C106.79 233.079 106.149 234.154 105.23 234.882C104.312 235.61 103.038 235.974 101.408 235.974C99.5536 235.974 98.1236 235.489 97.1183 234.518C96.1129 233.547 95.5496 232.325 95.4283 230.852H98.1583ZM101.46 226.432C102.5 226.432 103.315 226.111 103.904 225.47C104.511 224.811 104.814 223.945 104.814 222.87C104.814 221.674 104.494 220.747 103.852 220.088C103.228 219.412 102.37 219.074 101.278 219.074C100.186 219.074 99.3196 219.421 98.6783 220.114C98.0543 220.79 97.7423 221.683 97.7423 222.792C97.7423 223.849 98.0456 224.725 98.6523 225.418C99.2763 226.094 100.212 226.432 101.46 226.432ZM110.97 226.276C110.97 223.277 111.473 220.937 112.478 219.256C113.501 217.557 115.251 216.708 117.73 216.708C120.209 216.708 121.951 217.557 122.956 219.256C123.979 220.937 124.49 223.277 124.49 226.276C124.49 229.309 123.979 231.684 122.956 233.4C121.951 235.099 120.209 235.948 117.73 235.948C115.251 235.948 113.501 235.099 112.478 233.4C111.473 231.684 110.97 229.309 110.97 226.276ZM121.578 226.276C121.578 224.872 121.483 223.685 121.292 222.714C121.119 221.743 120.755 220.955 120.2 220.348C119.645 219.724 118.822 219.412 117.73 219.412C116.638 219.412 115.815 219.724 115.26 220.348C114.705 220.955 114.333 221.743 114.142 222.714C113.969 223.685 113.882 224.872 113.882 226.276C113.882 227.732 113.969 228.954 114.142 229.942C114.315 230.93 114.679 231.727 115.234 232.334C115.806 232.941 116.638 233.244 117.73 233.244C118.822 233.244 119.645 232.941 120.2 232.334C120.772 231.727 121.145 230.93 121.318 229.942C121.491 228.954 121.578 227.732 121.578 226.276ZM133.782 226.926C133.782 225.158 134.19 223.572 135.004 222.168C135.836 220.764 136.954 219.672 138.358 218.892C139.78 218.095 141.331 217.696 143.012 217.696C144.936 217.696 146.644 218.173 148.134 219.126C149.642 220.062 150.734 221.397 151.41 223.13H147.848C147.38 222.177 146.73 221.466 145.898 220.998C145.066 220.53 144.104 220.296 143.012 220.296C141.816 220.296 140.75 220.565 139.814 221.102C138.878 221.639 138.142 222.411 137.604 223.416C137.084 224.421 136.824 225.591 136.824 226.926C136.824 228.261 137.084 229.431 137.604 230.436C138.142 231.441 138.878 232.221 139.814 232.776C140.75 233.313 141.816 233.582 143.012 233.582C144.104 233.582 145.066 233.348 145.898 232.88C146.73 232.412 147.38 231.701 147.848 230.748H151.41C150.734 232.481 149.642 233.816 148.134 234.752C146.644 235.688 144.936 236.156 143.012 236.156C141.314 236.156 139.762 235.766 138.358 234.986C136.954 234.189 135.836 233.088 135.004 231.684C134.19 230.28 133.782 228.694 133.782 226.926ZM157.844 223.754C158.277 223.026 158.849 222.463 159.56 222.064C160.288 221.648 161.146 221.44 162.134 221.44V224.508H161.38C160.218 224.508 159.334 224.803 158.728 225.392C158.138 225.981 157.844 227.004 157.844 228.46V236H154.88V221.674H157.844V223.754Z" fill="#242552"/>
</g>
<rect x="2" y="171" width="248" height="89" rx="13" stroke="#242552" stroke-opacity="0.23" stroke-width="4"/>
<rect x="104" y="276" width="252" height="93" rx="15" fill="white"/>
<rect x="106" y="278" width="248" height="89" rx="13" stroke="#242552" stroke-opacity="0.23" stroke-width="4"/>
<path d="M321.229 316.631L329.68 318.14L328.171 326.59" stroke="#22AD57" stroke-width="1.5" stroke-miterlimit="10" stroke-linecap="round" stroke-linejoin="round"/>
<path d="M315.733 327.86L329.54 318.237" stroke="#22AD57" stroke-width="1.5" stroke-miterlimit="10" stroke-linecap="round" stroke-linejoin="round"/>
<path d="M163.159 303C100.159 383 138.8 285.4 152 319C165.2 352.6 140.232 329 125 301" stroke="#FF4405" stroke-width="4"/>
<path d="M177.516 298.812C177.516 297.996 177.7 297.264 178.068 296.616C178.436 295.96 178.936 295.448 179.568 295.08C180.208 294.712 180.916 294.528 181.692 294.528C182.604 294.528 183.4 294.748 184.08 295.188C184.76 295.628 185.256 296.252 185.568 297.06H184.26C184.028 296.556 183.692 296.168 183.252 295.896C182.82 295.624 182.3 295.488 181.692 295.488C181.108 295.488 180.584 295.624 180.12 295.896C179.656 296.168 179.292 296.556 179.028 297.06C178.764 297.556 178.632 298.14 178.632 298.812C178.632 299.476 178.764 300.06 179.028 300.564C179.292 301.06 179.656 301.444 180.12 301.716C180.584 301.988 181.108 302.124 181.692 302.124C182.3 302.124 182.82 301.992 183.252 301.728C183.692 301.456 184.028 301.068 184.26 300.564H185.568C185.256 301.364 184.76 301.984 184.08 302.424C183.4 302.856 182.604 303.072 181.692 303.072C180.916 303.072 180.208 302.892 179.568 302.532C178.936 302.164 178.436 301.656 178.068 301.008C177.7 300.36 177.516 299.628 177.516 298.812ZM193.026 296.424V303H191.934V302.028C191.726 302.364 191.434 302.628 191.058 302.82C190.69 303.004 190.282 303.096 189.834 303.096C189.322 303.096 188.862 302.992 188.454 302.784C188.046 302.568 187.722 302.248 187.482 301.824C187.25 301.4 187.134 300.884 187.134 300.276V296.424H188.214V300.132C188.214 300.78 188.378 301.28 188.706 301.632C189.034 301.976 189.482 302.148 190.05 302.148C190.634 302.148 191.094 301.968 191.43 301.608C191.766 301.248 191.934 300.724 191.934 300.036V296.424H193.026ZM195.961 297.492C196.153 297.116 196.425 296.824 196.777 296.616C197.137 296.408 197.573 296.304 198.085 296.304V297.432H197.797C196.573 297.432 195.961 298.096 195.961 299.424V303H194.869V296.424H195.961V297.492ZM200.438 297.492C200.63 297.116 200.902 296.824 201.254 296.616C201.614 296.408 202.05 296.304 202.562 296.304V297.432H202.274C201.05 297.432 200.438 298.096 200.438 299.424V303H199.346V296.424H200.438V297.492ZM209.822 299.46C209.822 299.668 209.81 299.888 209.786 300.12H204.53C204.57 300.768 204.79 301.276 205.19 301.644C205.598 302.004 206.09 302.184 206.666 302.184C207.138 302.184 207.53 302.076 207.842 301.86C208.162 301.636 208.386 301.34 208.514 300.972H209.69C209.514 301.604 209.162 302.12 208.634 302.52C208.106 302.912 207.45 303.108 206.666 303.108C206.042 303.108 205.482 302.968 204.986 302.688C204.498 302.408 204.114 302.012 203.834 301.5C203.554 300.98 203.414 300.38 203.414 299.7C203.414 299.02 203.55 298.424 203.822 297.912C204.094 297.4 204.474 297.008 204.962 296.736C205.458 296.456 206.026 296.316 206.666 296.316C207.29 296.316 207.842 296.452 208.322 296.724C208.802 296.996 209.17 297.372 209.426 297.852C209.69 298.324 209.822 298.86 209.822 299.46ZM208.694 299.232C208.694 298.816 208.602 298.46 208.418 298.164C208.234 297.86 207.982 297.632 207.662 297.48C207.35 297.32 207.002 297.24 206.618 297.24C206.066 297.24 205.594 297.416 205.202 297.768C204.818 298.12 204.598 298.608 204.542 299.232H208.694ZM214.468 296.304C215.268 296.304 215.916 296.548 216.412 297.036C216.908 297.516 217.156 298.212 217.156 299.124V303H216.076V299.28C216.076 298.624 215.912 298.124 215.584 297.78C215.256 297.428 214.808 297.252 214.24 297.252C213.664 297.252 213.204 297.432 212.86 297.792C212.524 298.152 212.356 298.676 212.356 299.364V303H211.264V296.424H212.356V297.36C212.572 297.024 212.864 296.764 213.232 296.58C213.608 296.396 214.02 296.304 214.468 296.304ZM220.272 297.324V301.2C220.272 301.52 220.34 301.748 220.476 301.884C220.612 302.012 220.848 302.076 221.184 302.076H221.988V303H221.004C220.396 303 219.94 302.86 219.636 302.58C219.332 302.3 219.18 301.84 219.18 301.2V297.324H218.328V296.424H219.18V294.768H220.272V296.424H221.988V297.324H220.272ZM233.422 294.636L230.266 303H229.006L225.85 294.636H227.014L229.642 301.848L232.27 294.636H233.422ZM234.211 299.688C234.211 299.016 234.347 298.428 234.619 297.924C234.891 297.412 235.263 297.016 235.735 296.736C236.215 296.456 236.747 296.316 237.331 296.316C237.907 296.316 238.407 296.44 238.831 296.688C239.255 296.936 239.571 297.248 239.779 297.624V296.424H240.883V303H239.779V301.776C239.563 302.16 239.239 302.48 238.807 302.736C238.383 302.984 237.887 303.108 237.319 303.108C236.735 303.108 236.207 302.964 235.735 302.676C235.263 302.388 234.891 301.984 234.619 301.464C234.347 300.944 234.211 300.352 234.211 299.688ZM239.779 299.7C239.779 299.204 239.679 298.772 239.479 298.404C239.279 298.036 239.007 297.756 238.663 297.564C238.327 297.364 237.955 297.264 237.547 297.264C237.139 297.264 236.767 297.36 236.431 297.552C236.095 297.744 235.827 298.024 235.627 298.392C235.427 298.76 235.327 299.192 235.327 299.688C235.327 300.192 235.427 300.632 235.627 301.008C235.827 301.376 236.095 301.66 236.431 301.86C236.767 302.052 237.139 302.148 237.547 302.148C237.955 302.148 238.327 302.052 238.663 301.86C239.007 301.66 239.279 301.376 239.479 301.008C239.679 300.632 239.779 300.196 239.779 299.7ZM243.821 294.12V303H242.729V294.12H243.821ZM251.514 296.424V303H250.422V302.028C250.214 302.364 249.922 302.628 249.546 302.82C249.178 303.004 248.77 303.096 248.322 303.096C247.81 303.096 247.35 302.992 246.942 302.784C246.534 302.568 246.21 302.248 245.97 301.824C245.738 301.4 245.622 300.884 245.622 300.276V296.424H246.702V300.132C246.702 300.78 246.866 301.28 247.194 301.632C247.522 301.976 247.97 302.148 248.538 302.148C249.122 302.148 249.582 301.968 249.918 301.608C250.254 301.248 250.422 300.724 250.422 300.036V296.424H251.514ZM252.95 299.688C252.95 299.016 253.086 298.428 253.358 297.924C253.63 297.412 254.002 297.016 254.474 296.736C254.954 296.456 255.486 296.316 256.07 296.316C256.646 296.316 257.146 296.44 257.57 296.688C257.994 296.936 258.31 297.248 258.518 297.624V296.424H259.622V303H258.518V301.776C258.302 302.16 257.978 302.48 257.546 302.736C257.122 302.984 256.626 303.108 256.058 303.108C255.474 303.108 254.946 302.964 254.474 302.676C254.002 302.388 253.63 301.984 253.358 301.464C253.086 300.944 252.95 300.352 252.95 299.688ZM258.518 299.7C258.518 299.204 258.418 298.772 258.218 298.404C258.018 298.036 257.746 297.756 257.402 297.564C257.066 297.364 256.694 297.264 256.286 297.264C255.878 297.264 255.506 297.36 255.17 297.552C254.834 297.744 254.566 298.024 254.366 298.392C254.166 298.76 254.066 299.192 254.066 299.688C254.066 300.192 254.166 300.632 254.366 301.008C254.566 301.376 254.834 301.66 255.17 301.86C255.506 302.052 255.878 302.148 256.286 302.148C256.694 302.148 257.066 302.052 257.402 301.86C257.746 301.66 258.018 301.376 258.218 301.008C258.418 300.632 258.518 300.196 258.518 299.7ZM262.799 297.324V301.2C262.799 301.52 262.867 301.748 263.003 301.884C263.139 302.012 263.375 302.076 263.711 302.076H264.515V303H263.531C262.923 303 262.467 302.86 262.163 302.58C261.859 302.3 261.707 301.84 261.707 301.2V297.324H260.855V296.424H261.707V294.768H262.799V296.424H264.515V297.324H262.799ZM266.402 295.356C266.194 295.356 266.018 295.284 265.874 295.14C265.73 294.996 265.658 294.82 265.658 294.612C265.658 294.404 265.73 294.228 265.874 294.084C266.018 293.94 266.194 293.868 266.402 293.868C266.602 293.868 266.77 293.94 266.906 294.084C267.05 294.228 267.122 294.404 267.122 294.612C267.122 294.82 267.05 294.996 266.906 295.14C266.77 295.284 266.602 295.356 266.402 295.356ZM266.93 296.424V303H265.838V296.424H266.93ZM271.659 303.108C271.043 303.108 270.483 302.968 269.979 302.688C269.483 302.408 269.091 302.012 268.803 301.5C268.523 300.98 268.383 300.38 268.383 299.7C268.383 299.028 268.527 298.436 268.815 297.924C269.111 297.404 269.511 297.008 270.015 296.736C270.519 296.456 271.083 296.316 271.707 296.316C272.331 296.316 272.895 296.456 273.399 296.736C273.903 297.008 274.299 297.4 274.587 297.912C274.883 298.424 275.031 299.02 275.031 299.7C275.031 300.38 274.879 300.98 274.575 301.5C274.279 302.012 273.875 302.408 273.363 302.688C272.851 302.968 272.283 303.108 271.659 303.108ZM271.659 302.148C272.051 302.148 272.419 302.056 272.763 301.872C273.107 301.688 273.383 301.412 273.591 301.044C273.807 300.676 273.915 300.228 273.915 299.7C273.915 299.172 273.811 298.724 273.603 298.356C273.395 297.988 273.123 297.716 272.787 297.54C272.451 297.356 272.087 297.264 271.695 297.264C271.295 297.264 270.927 297.356 270.591 297.54C270.263 297.716 269.999 297.988 269.799 298.356C269.599 298.724 269.499 299.172 269.499 299.7C269.499 300.236 269.595 300.688 269.787 301.056C269.987 301.424 270.251 301.7 270.579 301.884C270.907 302.06 271.267 302.148 271.659 302.148ZM279.671 296.304C280.471 296.304 281.119 296.548 281.615 297.036C282.111 297.516 282.359 298.212 282.359 299.124V303H281.279V299.28C281.279 298.624 281.115 298.124 280.787 297.78C280.459 297.428 280.011 297.252 279.443 297.252C278.867 297.252 278.407 297.432 278.063 297.792C277.727 298.152 277.559 298.676 277.559 299.364V303H276.467V296.424H277.559V297.36C277.775 297.024 278.067 296.764 278.435 296.58C278.811 296.396 279.223 296.304 279.671 296.304Z" fill="#242552"/>
<path d="M192.168 325.784V326.232H195.88V328.856H191.976C191.741 330.285 191.293 331.427 190.632 332.28C189.992 333.112 189.075 333.72 187.88 334.104C186.685 334.467 185.139 334.648 183.24 334.648V336.664C183.24 337.837 183.485 338.765 183.976 339.448C184.488 340.131 185.341 340.472 186.536 340.472C188.712 340.472 189.8 339.245 189.8 336.792H193.16C193.139 338.947 192.552 340.579 191.4 341.688C190.269 342.776 188.627 343.32 186.472 343.32C184.317 343.32 182.664 342.723 181.512 341.528C180.381 340.333 179.816 338.659 179.816 336.504V332.12C182.184 332.12 183.923 332.056 185.032 331.928C186.141 331.779 186.963 331.48 187.496 331.032C188.051 330.584 188.413 329.859 188.584 328.856H178.472V326.232H188.744V325.784V323.384H178.472V320.728H195.88V323.384H192.168V325.784ZM202.158 337.852C202.332 338.719 202.704 339.377 203.276 339.828C203.848 340.279 204.62 340.504 205.59 340.504C206.821 340.504 207.722 340.019 208.294 339.048C208.866 338.077 209.152 336.422 209.152 334.082C208.736 334.671 208.147 335.131 207.384 335.46C206.639 335.772 205.824 335.928 204.94 335.928C203.814 335.928 202.791 335.703 201.872 335.252C200.954 334.784 200.226 334.099 199.688 333.198C199.168 332.279 198.908 331.17 198.908 329.87C198.908 327.963 199.463 326.447 200.572 325.32C201.699 324.176 203.242 323.604 205.2 323.604C207.558 323.604 209.23 324.393 210.218 325.97C211.224 327.53 211.726 329.931 211.726 333.172C211.726 335.408 211.536 337.237 211.154 338.658C210.79 340.079 210.149 341.154 209.23 341.882C208.312 342.61 207.038 342.974 205.408 342.974C203.554 342.974 202.124 342.489 201.118 341.518C200.113 340.547 199.55 339.325 199.428 337.852H202.158ZM205.46 333.432C206.5 333.432 207.315 333.111 207.904 332.47C208.511 331.811 208.814 330.945 208.814 329.87C208.814 328.674 208.494 327.747 207.852 327.088C207.228 326.412 206.37 326.074 205.278 326.074C204.186 326.074 203.32 326.421 202.678 327.114C202.054 327.79 201.742 328.683 201.742 329.792C201.742 330.849 202.046 331.725 202.652 332.418C203.276 333.094 204.212 333.432 205.46 333.432ZM214.97 333.276C214.97 330.277 215.473 327.937 216.478 326.256C217.501 324.557 219.251 323.708 221.73 323.708C224.209 323.708 225.951 324.557 226.956 326.256C227.979 327.937 228.49 330.277 228.49 333.276C228.49 336.309 227.979 338.684 226.956 340.4C225.951 342.099 224.209 342.948 221.73 342.948C219.251 342.948 217.501 342.099 216.478 340.4C215.473 338.684 214.97 336.309 214.97 333.276ZM225.578 333.276C225.578 331.872 225.483 330.685 225.292 329.714C225.119 328.743 224.755 327.955 224.2 327.348C223.645 326.724 222.822 326.412 221.73 326.412C220.638 326.412 219.815 326.724 219.26 327.348C218.705 327.955 218.333 328.743 218.142 329.714C217.969 330.685 217.882 331.872 217.882 333.276C217.882 334.732 217.969 335.954 218.142 336.942C218.315 337.93 218.679 338.727 219.234 339.334C219.806 339.941 220.638 340.244 221.73 340.244C222.822 340.244 223.645 339.941 224.2 339.334C224.772 338.727 225.145 337.93 225.318 336.942C225.491 335.954 225.578 334.732 225.578 333.276ZM237.782 333.926C237.782 332.158 238.19 330.572 239.004 329.168C239.836 327.764 240.954 326.672 242.358 325.892C243.78 325.095 245.331 324.696 247.012 324.696C248.936 324.696 250.644 325.173 252.134 326.126C253.642 327.062 254.734 328.397 255.41 330.13H251.848C251.38 329.177 250.73 328.466 249.898 327.998C249.066 327.53 248.104 327.296 247.012 327.296C245.816 327.296 244.75 327.565 243.814 328.102C242.878 328.639 242.142 329.411 241.604 330.416C241.084 331.421 240.824 332.591 240.824 333.926C240.824 335.261 241.084 336.431 241.604 337.436C242.142 338.441 242.878 339.221 243.814 339.776C244.75 340.313 245.816 340.582 247.012 340.582C248.104 340.582 249.066 340.348 249.898 339.88C250.73 339.412 251.38 338.701 251.848 337.748H255.41C254.734 339.481 253.642 340.816 252.134 341.752C250.644 342.688 248.936 343.156 247.012 343.156C245.314 343.156 243.762 342.766 242.358 341.986C240.954 341.189 239.836 340.088 239.004 338.684C238.19 337.28 237.782 335.694 237.782 333.926ZM261.844 330.754C262.277 330.026 262.849 329.463 263.56 329.064C264.288 328.648 265.146 328.44 266.134 328.44V331.508H265.38C264.218 331.508 263.334 331.803 262.728 332.392C262.138 332.981 261.844 334.004 261.844 335.46V343H258.88V328.674H261.844V330.754Z" fill="#242552"/>
<path d="M241.057 168.064C240.302 167.929 239.536 167.872 238.77 167.893C221.698 168.355 207.619 207.352 207.619 207.352L203.238 205.739C203.238 205.739 208.006 188.534 210.766 162.5C213.241 139.074 242.529 128.047 248.382 126.067C249.039 125.848 249.4 125.736 249.4 125.736C268.746 142.198 241.057 168.064 241.057 168.064Z" fill="url(#paint0_linear_228_822)"/>
<path opacity="0.2" d="M250.778 127.012C250.349 126.585 249.9 126.162 249.41 125.747C249.41 125.747 249.055 125.861 248.393 126.077C242.54 128.058 213.252 139.085 210.777 162.511C208.017 188.545 203.237 205.739 203.237 205.739L205.701 206.646C205.701 206.646 210.483 189.447 213.229 163.407C215.69 140.089 244.736 129.055 250.778 127.012Z" fill="#BBBCFF"/>
<path d="M313.062 200.178C298.263 221.779 290.759 237.97 290.759 237.97L286.37 236.353C286.37 236.353 301.619 195.795 287.361 185.39C287.054 185.159 286.733 184.948 286.4 184.757C286.4 184.757 282.091 147.107 307.5 147.133C307.5 147.133 307.664 147.385 307.951 147.863C310.876 152.71 326.522 180.515 313.062 200.178Z" fill="url(#paint1_linear_228_822)"/>
<path opacity="0.1" d="M241.055 168.065C240.3 167.93 239.534 167.872 238.768 167.893C240.927 153.733 244.139 139.754 248.378 126.072C249.035 125.854 249.396 125.742 249.396 125.742C268.744 142.199 241.055 168.065 241.055 168.065Z" fill="black"/>
<path opacity="0.1" d="M307.957 147.871C302.116 160.919 295.229 173.472 287.362 185.408C287.056 185.178 286.735 184.966 286.402 184.776C286.402 184.776 282.092 147.126 307.501 147.152C307.497 147.138 307.661 147.389 307.957 147.871Z" fill="black"/>
<path d="M283.01 190.351C279.22 195.878 275.106 201.466 270.668 207.113C270.668 207.113 257.031 213.751 237.005 194.717C237.005 194.717 237.095 187.136 238.677 174.775C242.148 147.592 252.829 97.2886 285.609 53.6507C295.422 40.5169 306.855 28.676 319.637 18.4093C319.637 18.4093 326.893 37.4722 325.947 68.4957C325.001 99.5191 315.839 142.504 283.01 190.351Z" fill="#E3E8F4"/>
<path d="M284.526 119.923C295.441 123.942 307.549 118.352 311.569 107.436C315.588 96.5208 309.998 84.4133 299.082 80.3936C288.167 76.374 276.059 81.9642 272.04 92.8799C268.02 103.796 273.61 115.903 284.526 119.923Z" fill="#BBBCFF"/>
<path d="M305.819 105.331C304.842 107.985 303.131 110.307 300.885 112.027C298.639 113.747 295.951 114.794 293.134 115.046C290.317 115.299 287.486 114.746 284.97 113.452C282.455 112.158 280.359 110.177 278.925 107.738C278.227 106.544 277.696 105.259 277.348 103.921C277.191 103.322 277.071 102.714 276.991 102.1C276.678 99.7065 276.952 97.2728 277.788 95.0083C277.83 94.8951 277.87 94.7848 277.911 94.6744C279.087 91.7034 281.183 89.1871 283.893 87.4941C286.603 85.8011 289.783 85.0206 292.969 85.2668C294.182 85.3689 295.379 85.614 296.535 85.9973L296.955 86.1517C298.796 86.8287 300.486 87.8618 301.929 89.1921C303.371 90.5224 304.537 92.1238 305.36 93.9048C306.183 95.6859 306.648 97.6116 306.726 99.5721C306.805 101.533 306.497 103.489 305.819 105.331Z" fill="#3C3E86"/>
<path d="M325.945 68.4948C299.567 70.9733 285.6 53.6375 285.6 53.6375C295.416 40.5078 306.853 28.6713 319.638 18.4095C319.638 18.4095 326.894 37.4724 325.945 68.4948Z" fill="url(#paint2_linear_228_822)"/>
<path d="M283.009 190.352C280.44 194.093 277.726 197.862 274.866 201.657C273.506 203.469 272.106 205.284 270.667 207.104C270.667 207.104 257.03 213.742 237.004 194.708C237.004 194.708 237.033 192.247 237.341 187.838C237.582 184.512 237.987 180.083 238.668 174.763C238.668 174.763 246.138 181.809 258.717 186.442C266.479 189.33 274.733 190.659 283.009 190.352V190.352Z" fill="#3C3E86"/>
<path d="M274.869 201.657C273.508 203.468 272.108 205.284 270.669 207.104C270.669 207.104 257.032 213.742 237.006 194.708C237.006 194.708 237.035 192.246 237.343 187.838C237.34 187.837 259.034 203.753 274.869 201.657Z" fill="#E3E8F4"/>
<path opacity="0.2" d="M292.982 85.2507L292.944 85.2616L277.921 94.6573C277.881 94.7677 277.84 94.878 277.798 94.9912C276.962 97.2557 276.689 99.6894 277.001 102.083L296.554 85.9832L292.982 85.2507Z" fill="#BBBCFF"/>
<path opacity="0.2" d="M291.868 98.3123L278.932 107.727C278.233 106.533 277.703 105.248 277.354 103.91L291.214 96.9059L291.868 98.3123Z" fill="#BBBCFF"/>
<path opacity="0.2" d="M242.332 196.673C242.332 196.673 242.424 189.089 244.004 176.73C247.476 149.545 258.157 99.2416 290.937 55.6037C299.781 43.7867 309.936 33.0103 321.207 23.4809C320.303 20.1745 319.628 18.4092 319.628 18.4092C306.846 28.6716 295.412 40.5082 285.598 53.6376C252.818 97.2754 242.137 147.579 238.665 174.764C237.085 187.123 236.993 194.707 236.993 194.707C244.907 202.224 251.82 205.735 257.29 207.235C252.886 205.222 247.855 201.918 242.332 196.673Z" fill="#BBBCFF"/>
<path d="M255.627 47.763V48.099H258.411V50.067H255.483C255.307 51.139 254.971 51.995 254.475 52.635C253.995 53.259 253.307 53.715 252.411 54.003C251.515 54.275 250.355 54.411 248.931 54.411V55.923C248.931 56.803 249.115 57.499 249.483 58.011C249.867 58.523 250.507 58.779 251.403 58.779C253.035 58.779 253.851 57.859 253.851 56.019H256.371C256.355 57.635 255.915 58.859 255.051 59.691C254.203 60.507 252.971 60.915 251.355 60.915C249.739 60.915 248.499 60.467 247.635 59.571C246.787 58.675 246.363 57.419 246.363 55.803V52.515C248.139 52.515 249.443 52.467 250.275 52.371C251.107 52.259 251.723 52.035 252.123 51.699C252.539 51.363 252.811 50.819 252.939 50.067H245.355V48.099H253.059V47.763V45.963H245.355V43.971H258.411V45.963H255.627V47.763Z" fill="#3C3E86"/>
<path d="M358.206 121.284C356.638 121.284 355.334 121.06 354.294 120.612C353.254 120.148 352.47 119.5 351.942 118.668C351.414 117.82 351.15 116.828 351.15 115.692H354.678C354.678 116.14 354.798 116.564 355.038 116.964C355.278 117.348 355.662 117.66 356.19 117.9C356.718 118.124 357.39 118.236 358.206 118.236C359.294 118.236 360.126 118.044 360.702 117.66C361.294 117.276 361.59 116.764 361.59 116.124C361.59 115.564 361.342 115.108 360.846 114.756C360.35 114.388 359.558 114.148 358.47 114.036L357.246 113.94C355.534 113.78 354.174 113.268 353.166 112.404C352.158 111.524 351.654 110.284 351.654 108.684C351.654 107.58 351.902 106.66 352.398 105.924C352.894 105.172 353.606 104.612 354.534 104.244C355.462 103.86 356.574 103.668 357.87 103.668C359.262 103.668 360.43 103.884 361.374 104.316C362.318 104.748 363.03 105.372 363.51 106.188C364.006 107.004 364.254 107.996 364.254 109.164H360.726C360.726 108.7 360.614 108.292 360.39 107.94C360.182 107.572 359.87 107.276 359.454 107.052C359.038 106.828 358.51 106.716 357.87 106.716C357.31 106.716 356.83 106.796 356.43 106.956C356.03 107.116 355.726 107.348 355.518 107.652C355.31 107.94 355.206 108.284 355.206 108.684C355.206 109.18 355.39 109.628 355.758 110.028C356.126 110.412 356.734 110.652 357.582 110.748L358.806 110.844C360.726 111.004 362.262 111.524 363.414 112.404C364.566 113.284 365.142 114.524 365.142 116.124C365.142 117.228 364.87 118.164 364.326 118.932C363.782 119.7 362.99 120.284 361.95 120.684C360.926 121.084 359.678 121.284 358.206 121.284ZM356.502 124.284V120.78H359.646V124.284H356.502ZM356.406 104.844V101.34H359.55V104.844H356.406Z" fill="#3C3E86"/>
<path d="M358.206 121.284C356.638 121.284 355.334 121.06 354.294 120.612C353.254 120.148 352.47 119.5 351.942 118.668C351.414 117.82 351.15 116.828 351.15 115.692H354.678C354.678 116.14 354.798 116.564 355.038 116.964C355.278 117.348 355.662 117.66 356.19 117.9C356.718 118.124 357.39 118.236 358.206 118.236C359.294 118.236 360.126 118.044 360.702 117.66C361.294 117.276 361.59 116.764 361.59 116.124C361.59 115.564 361.342 115.108 360.846 114.756C360.35 114.388 359.558 114.148 358.47 114.036L357.246 113.94C355.534 113.78 354.174 113.268 353.166 112.404C352.158 111.524 351.654 110.284 351.654 108.684C351.654 107.58 351.902 106.66 352.398 105.924C352.894 105.172 353.606 104.612 354.534 104.244C355.462 103.86 356.574 103.668 357.87 103.668C359.262 103.668 360.43 103.884 361.374 104.316C362.318 104.748 363.03 105.372 363.51 106.188C364.006 107.004 364.254 107.996 364.254 109.164H360.726C360.726 108.7 360.614 108.292 360.39 107.94C360.182 107.572 359.87 107.276 359.454 107.052C359.038 106.828 358.51 106.716 357.87 106.716C357.31 106.716 356.83 106.796 356.43 106.956C356.03 107.116 355.726 107.348 355.518 107.652C355.31 107.94 355.206 108.284 355.206 108.684C355.206 109.18 355.39 109.628 355.758 110.028C356.126 110.412 356.734 110.652 357.582 110.748L358.806 110.844C360.726 111.004 362.262 111.524 363.414 112.404C364.566 113.284 365.142 114.524 365.142 116.124C365.142 117.228 364.87 118.164 364.326 118.932C363.782 119.7 362.99 120.284 361.95 120.684C360.926 121.084 359.678 121.284 358.206 121.284ZM356.502 124.284V120.78H359.646V124.284H356.502ZM356.406 104.844V101.34H359.55V104.844H356.406Z" fill="#3C3E86"/>
<path d="M358.206 121.284C356.638 121.284 355.334 121.06 354.294 120.612C353.254 120.148 352.47 119.5 351.942 118.668C351.414 117.82 351.15 116.828 351.15 115.692H354.678C354.678 116.14 354.798 116.564 355.038 116.964C355.278 117.348 355.662 117.66 356.19 117.9C356.718 118.124 357.39 118.236 358.206 118.236C359.294 118.236 360.126 118.044 360.702 117.66C361.294 117.276 361.59 116.764 361.59 116.124C361.59 115.564 361.342 115.108 360.846 114.756C360.35 114.388 359.558 114.148 358.47 114.036L357.246 113.94C355.534 113.78 354.174 113.268 353.166 112.404C352.158 111.524 351.654 110.284 351.654 108.684C351.654 107.58 351.902 106.66 352.398 105.924C352.894 105.172 353.606 104.612 354.534 104.244C355.462 103.86 356.574 103.668 357.87 103.668C359.262 103.668 360.43 103.884 361.374 104.316C362.318 104.748 363.03 105.372 363.51 106.188C364.006 107.004 364.254 107.996 364.254 109.164H360.726C360.726 108.7 360.614 108.292 360.39 107.94C360.182 107.572 359.87 107.276 359.454 107.052C359.038 106.828 358.51 106.716 357.87 106.716C357.31 106.716 356.83 106.796 356.43 106.956C356.03 107.116 355.726 107.348 355.518 107.652C355.31 107.94 355.206 108.284 355.206 108.684C355.206 109.18 355.39 109.628 355.758 110.028C356.126 110.412 356.734 110.652 357.582 110.748L358.806 110.844C360.726 111.004 362.262 111.524 363.414 112.404C364.566 113.284 365.142 114.524 365.142 116.124C365.142 117.228 364.87 118.164 364.326 118.932C363.782 119.7 362.99 120.284 361.95 120.684C360.926 121.084 359.678 121.284 358.206 121.284ZM356.502 124.284V120.78H359.646V124.284H356.502ZM356.406 104.844V101.34H359.55V104.844H356.406Z" fill="#3C3E86"/>
<ellipse cx="353.677" cy="166.812" rx="18.3709" ry="9.32683" transform="rotate(18.7567 353.677 166.812)" fill="#3C3E86"/>
<path d="M371.223 169.977C370.579 171.871 368.379 173.312 364.812 173.823C361.307 174.326 356.783 173.867 352.097 172.276C347.411 170.684 343.543 168.293 341.069 165.76C338.551 163.183 337.683 160.7 338.326 158.806C338.969 156.911 341.17 155.471 344.737 154.959C348.241 154.457 352.765 154.915 357.452 156.507C362.138 158.098 366.006 160.489 368.48 163.022C370.998 165.599 371.866 168.082 371.223 169.977Z" fill="#BBBCFF" stroke="#8F92FF" stroke-width="2"/>
<path d="M352.101 167.465L354.584 160.151L355.456 160.447L352.973 167.761L352.101 167.465ZM356.305 163.345C356.34 163.078 356.197 162.813 355.875 162.549C355.557 162.286 355.106 162.055 354.521 161.857C354.11 161.717 353.746 161.63 353.429 161.597C353.112 161.564 352.856 161.578 352.662 161.639C352.467 161.701 352.343 161.804 352.29 161.949C352.248 162.071 352.264 162.195 352.336 162.319C352.412 162.445 352.53 162.569 352.689 162.694C352.849 162.816 353.032 162.936 353.238 163.052C353.443 163.169 353.653 163.279 353.866 163.383L354.841 163.867C355.234 164.058 355.606 164.262 355.955 164.478C356.308 164.696 356.613 164.923 356.869 165.158C357.129 165.395 357.315 165.638 357.428 165.887C357.541 166.135 357.555 166.386 357.469 166.64C357.353 166.982 357.087 167.229 356.672 167.379C356.258 167.527 355.718 167.57 355.051 167.507C354.389 167.444 353.622 167.264 352.75 166.968C351.903 166.68 351.191 166.36 350.615 166.007C350.043 165.656 349.627 165.285 349.368 164.895C349.112 164.507 349.036 164.114 349.14 163.716L351.081 164.375C351.04 164.588 351.099 164.797 351.259 165.002C351.418 165.207 351.652 165.399 351.959 165.578C352.269 165.758 352.63 165.917 353.041 166.057C353.47 166.203 353.858 166.296 354.203 166.337C354.554 166.377 354.842 166.367 355.068 166.305C355.295 166.242 355.439 166.128 355.499 165.961C355.547 165.808 355.507 165.654 355.377 165.499C355.249 165.343 355.048 165.182 354.777 165.015C354.51 164.848 354.19 164.671 353.818 164.485L352.638 163.893C351.783 163.465 351.138 163.037 350.702 162.608C350.27 162.179 350.126 161.755 350.268 161.336C350.385 160.992 350.661 160.749 351.097 160.608C351.536 160.468 352.081 160.429 352.732 160.491C353.383 160.55 354.09 160.71 354.852 160.969C355.625 161.231 356.278 161.533 356.81 161.875C357.346 162.217 357.737 162.572 357.984 162.94C358.231 163.307 358.304 163.656 358.203 163.989L356.305 163.345Z" fill="#242552"/>
<path d="M352.455 166.42L354.939 159.106L355.811 159.402L353.327 166.716L352.455 166.42ZM356.659 162.3C356.694 162.034 356.551 161.768 356.23 161.504C355.912 161.241 355.46 161.01 354.876 160.812C354.464 160.672 354.1 160.586 353.784 160.552C353.467 160.519 353.211 160.533 353.016 160.595C352.821 160.656 352.697 160.759 352.644 160.905C352.603 161.027 352.618 161.15 352.691 161.274C352.766 161.4 352.884 161.525 353.044 161.649C353.204 161.771 353.386 161.891 353.592 162.007C353.798 162.124 354.007 162.234 354.221 162.339L355.195 162.822C355.589 163.013 355.96 163.217 356.31 163.434C356.663 163.651 356.967 163.878 357.224 164.113C357.483 164.35 357.669 164.593 357.783 164.842C357.896 165.091 357.909 165.342 357.823 165.595C357.707 165.938 357.441 166.184 357.027 166.334C356.613 166.483 356.072 166.525 355.406 166.463C354.743 166.399 353.976 166.219 353.104 165.923C352.257 165.636 351.546 165.315 350.97 164.962C350.397 164.611 349.981 164.24 349.722 163.851C349.467 163.462 349.391 163.069 349.494 162.671L351.435 163.33C351.394 163.543 351.454 163.753 351.613 163.958C351.773 164.163 352.006 164.354 352.313 164.533C352.624 164.713 352.985 164.873 353.396 165.012C353.825 165.158 354.212 165.251 354.558 165.292C354.908 165.332 355.196 165.322 355.423 165.261C355.65 165.198 355.793 165.083 355.854 164.916C355.902 164.763 355.861 164.609 355.732 164.454C355.603 164.298 355.403 164.137 355.131 163.97C354.864 163.803 354.544 163.626 354.173 163.441L352.992 162.849C352.137 162.42 351.492 161.992 351.056 161.564C350.625 161.135 350.48 160.71 350.623 160.292C350.74 159.947 351.016 159.704 351.451 159.563C351.89 159.423 352.435 159.384 353.086 159.446C353.738 159.506 354.445 159.665 355.207 159.924C355.98 160.186 356.632 160.488 357.164 160.831C357.701 161.172 358.092 161.527 358.338 161.895C358.586 162.262 358.659 162.612 358.557 162.945L356.659 162.3Z" fill="white"/>
<ellipse cx="217.027" cy="110.163" rx="18.3709" ry="9.32683" transform="rotate(-11.5072 217.027 110.163)" fill="#3C3E86"/>
<path d="M233.775 104.055C234.174 106.016 232.999 108.369 230.176 110.608C227.403 112.809 223.264 114.693 218.414 115.68C213.564 116.668 209.019 116.551 205.605 115.611C202.132 114.653 200.131 112.947 199.731 110.986C199.332 109.026 200.507 106.672 203.33 104.433C206.104 102.233 210.242 100.349 215.092 99.3613C219.942 98.374 224.488 98.4901 227.901 99.4309C231.374 100.388 233.376 102.095 233.775 104.055Z" fill="#BBBCFF" stroke="#8789FF" stroke-width="2"/>
<path d="M215.993 111.523L214.452 103.954L215.354 103.771L216.895 111.339L215.993 111.523ZM217.547 105.846C217.443 105.598 217.186 105.441 216.775 105.375C216.368 105.308 215.862 105.336 215.257 105.459C214.831 105.546 214.473 105.655 214.183 105.786C213.892 105.917 213.679 106.058 213.541 106.209C213.404 106.36 213.349 106.512 213.376 106.664C213.402 106.79 213.477 106.889 213.602 106.96C213.731 107.03 213.896 107.079 214.096 107.106C214.296 107.131 214.514 107.142 214.751 107.139C214.987 107.136 215.223 107.126 215.461 107.108L216.546 107.035C216.982 107.002 217.406 106.99 217.817 107.001C218.231 107.011 218.609 107.053 218.949 107.128C219.292 107.201 219.576 107.317 219.799 107.475C220.022 107.633 220.16 107.843 220.213 108.105C220.286 108.46 220.18 108.806 219.898 109.145C219.615 109.482 219.17 109.791 218.563 110.073C217.958 110.352 217.205 110.583 216.303 110.767C215.426 110.945 214.65 111.027 213.975 111.013C213.303 110.998 212.757 110.887 212.337 110.681C211.921 110.475 211.657 110.173 211.546 109.777L213.554 109.368C213.626 109.573 213.783 109.724 214.024 109.821C214.266 109.917 214.564 109.965 214.919 109.965C215.278 109.964 215.67 109.92 216.096 109.833C216.539 109.743 216.921 109.628 217.24 109.489C217.563 109.347 217.807 109.193 217.971 109.026C218.136 108.857 218.202 108.686 218.17 108.512C218.134 108.355 218.022 108.242 217.832 108.174C217.642 108.104 217.388 108.065 217.069 108.058C216.754 108.049 216.389 108.057 215.974 108.084L214.656 108.168C213.702 108.229 212.929 108.184 212.337 108.033C211.748 107.88 211.409 107.587 211.321 107.153C211.248 106.797 211.365 106.448 211.67 106.106C211.978 105.764 212.429 105.456 213.023 105.181C213.616 104.905 214.307 104.686 215.095 104.525C215.895 104.363 216.611 104.295 217.243 104.322C217.878 104.347 218.395 104.456 218.794 104.65C219.192 104.842 219.431 105.107 219.512 105.446L217.547 105.846Z" fill="#242552"/>
<path d="M215.773 110.442L214.232 102.873L215.134 102.689L216.675 110.258L215.773 110.442ZM217.328 104.765C217.224 104.517 216.966 104.36 216.556 104.294C216.148 104.227 215.642 104.255 215.037 104.378C214.611 104.465 214.254 104.574 213.963 104.704C213.673 104.835 213.459 104.976 213.321 105.128C213.184 105.279 213.129 105.431 213.156 105.583C213.182 105.709 213.257 105.808 213.383 105.879C213.512 105.949 213.676 105.998 213.877 106.024C214.076 106.049 214.295 106.06 214.531 106.058C214.767 106.055 215.004 106.044 215.241 106.027L216.326 105.954C216.763 105.92 217.186 105.909 217.597 105.92C218.012 105.93 218.389 105.972 218.729 106.047C219.072 106.12 219.356 106.236 219.579 106.394C219.802 106.552 219.94 106.762 219.994 107.024C220.066 107.378 219.961 107.725 219.678 108.064C219.395 108.401 218.95 108.71 218.343 108.992C217.739 109.271 216.986 109.502 216.083 109.686C215.206 109.864 214.43 109.946 213.755 109.932C213.084 109.917 212.538 109.806 212.118 109.6C211.701 109.393 211.437 109.092 211.326 108.696L213.334 108.287C213.407 108.492 213.563 108.643 213.805 108.739C214.046 108.836 214.344 108.884 214.699 108.884C215.058 108.882 215.45 108.838 215.876 108.752C216.32 108.661 216.701 108.547 217.021 108.408C217.343 108.266 217.587 108.112 217.752 107.945C217.916 107.776 217.982 107.605 217.951 107.43C217.915 107.273 217.802 107.161 217.612 107.093C217.422 107.023 217.168 106.984 216.85 106.977C216.534 106.967 216.169 106.976 215.755 107.003L214.437 107.087C213.482 107.147 212.709 107.103 212.117 106.952C211.528 106.799 211.19 106.506 211.101 106.072C211.029 105.715 211.145 105.366 211.45 105.025C211.758 104.683 212.209 104.375 212.803 104.1C213.396 103.823 214.087 103.605 214.876 103.444C215.675 103.281 216.391 103.214 217.023 103.241C217.658 103.266 218.175 103.375 218.574 103.569C218.972 103.761 219.211 104.026 219.292 104.365L217.328 104.765Z" fill="white"/>
<ellipse cx="362.457" cy="64.6461" rx="18.3709" ry="9.32683" transform="rotate(-39.4097 362.457 64.6461)" fill="#513C86"/>
<path d="M374.398 51.4103C375.668 52.9562 375.731 55.5858 374.284 58.8855C372.862 62.1281 370.087 65.7299 366.263 68.872C362.439 72.0141 358.367 74.0387 354.91 74.8046C351.393 75.584 348.825 75.0124 347.555 73.4666C346.285 71.9207 346.222 69.2911 347.669 65.9914C349.09 62.7488 351.866 59.147 355.69 56.0049C359.514 52.8628 363.586 50.8382 367.042 50.0723C370.56 49.2929 373.127 49.8645 374.398 51.4103Z" fill="#BBBCFF" stroke="#8C8EFF" stroke-width="2"/>
<path d="M362.176 66.3318L357.272 60.3644L357.984 59.7798L362.887 65.7472L362.176 66.3318ZM360.893 60.5873C360.685 60.417 360.385 60.3987 359.991 60.5325C359.599 60.6638 359.165 60.9255 358.688 61.3177C358.353 61.5933 358.087 61.857 357.892 62.1087C357.696 62.3603 357.573 62.585 357.523 62.7828C357.472 62.9806 357.494 63.1406 357.59 63.2626C357.672 63.3621 357.784 63.4139 357.928 63.418C358.075 63.4197 358.243 63.3856 358.433 63.3157C358.621 63.2442 358.819 63.1519 359.027 63.0388C359.234 62.9256 359.438 62.8058 359.64 62.6794L360.565 62.1068C360.935 61.8731 361.304 61.6649 361.672 61.4821C362.043 61.2969 362.396 61.1577 362.731 61.0644C363.07 60.9688 363.374 60.9386 363.645 60.9736C363.916 61.0086 364.137 61.1294 364.306 61.3361C364.536 61.6159 364.606 61.9715 364.515 62.403C364.422 62.833 364.173 63.3146 363.768 63.8478C363.365 64.377 362.808 64.934 362.096 65.5186C361.405 66.0866 360.758 66.5222 360.154 66.8255C359.553 67.1264 359.019 67.2842 358.552 67.2988C358.087 67.311 357.713 67.1681 357.429 66.8701L359.013 65.5689C359.172 65.7162 359.381 65.7761 359.64 65.7486C359.898 65.7211 360.184 65.624 360.498 65.4574C360.815 65.2884 361.141 65.066 361.476 64.7904C361.826 64.5028 362.11 64.2229 362.327 63.9507C362.546 63.6746 362.689 63.4242 362.756 63.1996C362.822 62.9735 362.801 62.7908 362.691 62.6517C362.586 62.5297 362.434 62.483 362.234 62.5115C362.034 62.5385 361.791 62.6234 361.506 62.7663C361.223 62.9052 360.905 63.0836 360.551 63.3015L359.425 63.9923C358.61 64.4925 357.906 64.8148 357.312 64.959C356.72 65.0993 356.284 64.9985 356.003 64.6566C355.772 64.3753 355.711 64.0125 355.821 63.5683C355.933 63.1217 356.188 62.6381 356.584 62.1175C356.978 61.5954 357.486 61.0789 358.108 60.5679C358.739 60.0498 359.34 59.6549 359.911 59.3833C360.484 59.1077 360.992 58.9623 361.435 58.9472C361.877 58.9305 362.212 59.053 362.442 59.3147L360.893 60.5873Z" fill="#242552"/>
<path d="M361.476 65.4792L356.572 59.5117L357.284 58.9271L362.187 64.8946L361.476 65.4792ZM360.193 59.7347C359.985 59.5644 359.684 59.5461 359.29 59.6798C358.899 59.8111 358.465 60.0729 357.988 60.465C357.652 60.7407 357.387 61.0043 357.192 61.256C356.996 61.5076 356.873 61.7324 356.822 61.9302C356.772 62.128 356.794 62.2879 356.89 62.4099C356.971 62.5094 357.084 62.5612 357.228 62.5653C357.375 62.5671 357.543 62.533 357.733 62.463C357.921 62.3916 358.119 62.2993 358.326 62.1861C358.534 62.0729 358.738 61.9532 358.94 61.8267L359.864 61.2542C360.234 61.0205 360.604 60.8122 360.972 60.6294C361.343 60.4442 361.696 60.305 362.031 60.2118C362.369 60.1162 362.674 60.0859 362.945 60.1209C363.216 60.1559 363.436 60.2768 363.606 60.4835C363.836 60.7632 363.905 61.1188 363.814 61.5504C363.722 61.9804 363.473 62.462 363.068 62.9951C362.665 63.5244 362.108 64.0813 361.396 64.666C360.705 65.2339 360.057 65.6696 359.454 65.9729C358.853 66.2738 358.319 66.4315 357.851 66.4461C357.387 66.4583 357.012 66.3155 356.729 66.0174L358.312 64.7163C358.472 64.8636 358.681 64.9234 358.94 64.8959C359.198 64.8684 359.484 64.7714 359.798 64.6047C360.114 64.4357 360.44 64.2134 360.776 63.9377C361.126 63.6501 361.409 63.3703 361.627 63.098C361.846 62.8219 361.989 62.5715 362.056 62.3469C362.122 62.1208 362.1 61.9382 361.991 61.799C361.886 61.6771 361.734 61.6304 361.534 61.6589C361.334 61.6858 361.091 61.7707 360.806 61.9136C360.523 62.0525 360.204 62.231 359.85 62.4489L358.725 63.1396C357.91 63.6399 357.206 63.9621 356.612 64.1063C356.02 64.2466 355.583 64.1458 355.302 63.8039C355.071 63.5227 355.011 63.1599 355.12 62.7156C355.233 62.269 355.487 61.7854 355.883 61.2649C356.278 60.7427 356.786 60.2262 357.408 59.7152C358.039 59.1971 358.64 58.8023 359.211 58.5306C359.784 58.2551 360.292 58.1097 360.735 58.0945C361.177 58.0778 361.512 58.2003 361.742 58.462L360.193 59.7347Z" fill="white"/>
<defs>
<linearGradient id="paint0_linear_228_822" x1="243.887" y1="123.706" x2="212.431" y2="209.124" gradientUnits="userSpaceOnUse">
<stop stop-color="#BBBCFF"/>
<stop offset="1" stop-color="#3C3E86"/>
</linearGradient>
<linearGradient id="paint1_linear_228_822" x1="313.011" y1="149.162" x2="281.555" y2="234.58" gradientUnits="userSpaceOnUse">
<stop stop-color="#BBBCFF"/>
<stop offset="1" stop-color="#3C3E86"/>
</linearGradient>
<linearGradient id="paint2_linear_228_822" x1="321.261" y1="19.0069" x2="297" y2="83.0001" gradientUnits="userSpaceOnUse">
<stop stop-color="#8385ED"/>
<stop offset="1" stop-color="#3C3E86"/>
</linearGradient>
<clipPath id="clip0_228_822">
<rect y="169" width="252" height="93" rx="15" fill="white"/>
</clipPath>
</defs>
</svg>
