<svg width="164" height="90" viewBox="0 0 164 90" fill="none" xmlns="http://www.w3.org/2000/svg">
<path d="M75.277 69.7938C96.0994 75.3731 115.656 77.8302 130.445 77.2872C137.838 77.0158 144.055 75.9942 148.647 74.2284C153.232 72.4651 156.249 69.9378 157.137 66.6227C158.025 63.3076 156.676 59.6105 153.587 55.7907C150.493 51.9657 145.62 47.9727 139.354 44.041C126.817 36.176 108.652 28.5257 87.8298 22.9464C67.0074 17.3671 47.451 14.91 32.6616 15.453C25.2684 15.7244 19.0517 16.746 14.4601 18.5118C9.87476 20.2751 6.85799 22.8024 5.96971 26.1175C5.08144 29.4326 6.43037 33.1297 9.51972 36.9495C12.6133 40.7745 17.4863 44.7675 23.7533 48.6992C36.2898 56.5642 54.4547 64.2145 75.277 69.7938Z" stroke="url(#paint0_linear_226_481)" stroke-width="0.5"/>
<circle cx="96.5" cy="32.5" r="32.5" fill="#BBBCFF"/>
<path d="M97.0741 43.128C94.9835 43.128 93.2448 42.8293 91.8581 42.232C90.4715 41.6133 89.4261 40.7493 88.7221 39.64C88.0181 38.5093 87.6661 37.1867 87.6661 35.672H92.3701C92.3701 36.2693 92.5301 36.8347 92.8501 37.368C93.1701 37.88 93.6821 38.296 94.3861 38.616C95.0901 38.9147 95.9861 39.064 97.0741 39.064C98.5248 39.064 99.6341 38.808 100.402 38.296C101.191 37.784 101.586 37.1013 101.586 36.248C101.586 35.5013 101.255 34.8933 100.594 34.424C99.9328 33.9333 98.8768 33.6133 97.4261 33.464L95.7941 33.336C93.5115 33.1227 91.6981 32.44 90.3541 31.288C89.0101 30.1147 88.3381 28.4613 88.3381 26.328C88.3381 24.856 88.6688 23.6293 89.3301 22.648C89.9915 21.6453 90.9408 20.8987 92.1781 20.408C93.4155 19.896 94.8981 19.64 96.6261 19.64C98.4821 19.64 100.039 19.928 101.298 20.504C102.557 21.08 103.506 21.912 104.146 23C104.807 24.088 105.138 25.4107 105.138 26.968H100.434C100.434 26.3493 100.285 25.8053 99.9861 25.336C99.7088 24.8453 99.2928 24.4507 98.7381 24.152C98.1835 23.8533 97.4795 23.704 96.6261 23.704C95.8795 23.704 95.2395 23.8107 94.7061 24.024C94.1728 24.2373 93.7675 24.5467 93.4901 24.952C93.2128 25.336 93.0741 25.7947 93.0741 26.328C93.0741 26.9893 93.3195 27.5867 93.8101 28.12C94.3008 28.632 95.1115 28.952 96.2421 29.08L97.8741 29.208C100.434 29.4213 102.482 30.1147 104.018 31.288C105.554 32.4613 106.322 34.1147 106.322 36.248C106.322 37.72 105.959 38.968 105.234 39.992C104.509 41.016 103.453 41.7947 102.066 42.328C100.701 42.8613 99.0368 43.128 97.0741 43.128ZM94.8021 47.128V42.456H98.9941V47.128H94.8021ZM94.6741 21.208V16.536H98.8661V21.208H94.6741Z" fill="white"/>
<circle cx="64.5" cy="53.5" r="32.5" fill="#5153B8"/>
<path d="M64.0741 65.128C61.9835 65.128 60.2448 64.8293 58.8581 64.232C57.4715 63.6133 56.4261 62.7493 55.7221 61.64C55.0181 60.5093 54.6661 59.1867 54.6661 57.672H59.3701C59.3701 58.2693 59.5301 58.8347 59.8501 59.368C60.1701 59.88 60.6821 60.296 61.3861 60.616C62.0901 60.9147 62.9861 61.064 64.0741 61.064C65.5248 61.064 66.6341 60.808 67.4021 60.296C68.1915 59.784 68.5861 59.1013 68.5861 58.248C68.5861 57.5013 68.2555 56.8933 67.5941 56.424C66.9328 55.9333 65.8768 55.6133 64.4261 55.464L62.7941 55.336C60.5115 55.1227 58.6981 54.44 57.3541 53.288C56.0101 52.1147 55.3381 50.4613 55.3381 48.328C55.3381 46.856 55.6688 45.6293 56.3301 44.648C56.9915 43.6453 57.9408 42.8987 59.1781 42.408C60.4155 41.896 61.8981 41.64 63.6261 41.64C65.4821 41.64 67.0395 41.928 68.2981 42.504C69.5568 43.08 70.5061 43.912 71.1461 45C71.8075 46.088 72.1381 47.4107 72.1381 48.968H67.4341C67.4341 48.3493 67.2848 47.8053 66.9861 47.336C66.7088 46.8453 66.2928 46.4507 65.7381 46.152C65.1835 45.8533 64.4795 45.704 63.6261 45.704C62.8795 45.704 62.2395 45.8107 61.7061 46.024C61.1728 46.2373 60.7675 46.5467 60.4901 46.952C60.2128 47.336 60.0741 47.7947 60.0741 48.328C60.0741 48.9893 60.3195 49.5867 60.8101 50.12C61.3008 50.632 62.1115 50.952 63.2421 51.08L64.8741 51.208C67.4341 51.4213 69.4821 52.1147 71.0181 53.288C72.5541 54.4613 73.3221 56.1147 73.3221 58.248C73.3221 59.72 72.9595 60.968 72.2341 61.992C71.5088 63.016 70.4528 63.7947 69.0661 64.328C67.7008 64.8613 66.0368 65.128 64.0741 65.128ZM61.8021 69.128V64.456H65.9941V69.128H61.8021ZM61.6741 43.208V38.536H65.8661V43.208H61.6741Z" fill="white"/>
<path d="M25.5 47.5L26.5 50.5L23.5 51" stroke="#BBBCFF" stroke-width="0.5"/>
<path d="M121 79L118.129 77.2591L121 74.9998" stroke="#BBBCFF" stroke-width="0.5"/>
<defs>
<linearGradient id="paint0_linear_226_481" x1="6.21119" y1="26.1822" x2="175" y2="79" gradientUnits="userSpaceOnUse">
<stop stop-color="#5153B8"/>
<stop offset="0.100864" stop-color="#D2DCFF"/>
<stop offset="0.166094" stop-color="white"/>
<stop offset="0.224593" stop-color="white"/>
<stop offset="0.690651" stop-color="white"/>
<stop offset="0.731628" stop-color="#BBBCFF"/>
<stop offset="0.878017" stop-color="#5153B8"/>
</linearGradient>
</defs>
</svg>
