<svg width="155" height="90" viewBox="0 0 155 90" fill="none" xmlns="http://www.w3.org/2000/svg">
<circle cx="23" cy="23" r="23" fill="#BBBCFF"/>
<path d="M23.5556 31.096C21.9876 31.096 20.6836 30.872 19.6436 30.424C18.6036 29.96 17.8196 29.312 17.2916 28.48C16.7636 27.632 16.4996 26.64 16.4996 25.504H20.0276C20.0276 25.952 20.1476 26.376 20.3876 26.776C20.6276 27.16 21.0116 27.472 21.5396 27.712C22.0676 27.936 22.7396 28.048 23.5556 28.048C24.6436 28.048 25.4756 27.856 26.0516 27.472C26.6436 27.088 26.9396 26.576 26.9396 25.936C26.9396 25.376 26.6916 24.92 26.1956 24.568C25.6996 24.2 24.9076 23.96 23.8196 23.848L22.5956 23.752C20.8836 23.592 19.5236 23.08 18.5156 22.216C17.5076 21.336 17.0036 20.096 17.0036 18.496C17.0036 17.392 17.2516 16.472 17.7476 15.736C18.2436 14.984 18.9556 14.424 19.8836 14.056C20.8116 13.672 21.9236 13.48 23.2196 13.48C24.6116 13.48 25.7796 13.696 26.7236 14.128C27.6676 14.56 28.3796 15.184 28.8596 16C29.3556 16.816 29.6036 17.808 29.6036 18.976H26.0756C26.0756 18.512 25.9636 18.104 25.7396 17.752C25.5316 17.384 25.2196 17.088 24.8036 16.864C24.3876 16.64 23.8596 16.528 23.2196 16.528C22.6596 16.528 22.1796 16.608 21.7796 16.768C21.3796 16.928 21.0756 17.16 20.8676 17.464C20.6596 17.752 20.5556 18.096 20.5556 18.496C20.5556 18.992 20.7396 19.44 21.1076 19.84C21.4756 20.224 22.0836 20.464 22.9316 20.56L24.1556 20.656C26.0756 20.816 27.6116 21.336 28.7636 22.216C29.9156 23.096 30.4916 24.336 30.4916 25.936C30.4916 27.04 30.2196 27.976 29.6756 28.744C29.1316 29.512 28.3396 30.096 27.2996 30.496C26.2756 30.896 25.0276 31.096 23.5556 31.096ZM21.8516 34.096V30.592H24.9956V34.096H21.8516ZM21.7556 14.656V11.152H24.8996V14.656H21.7556Z" fill="white"/>
<path d="M108.75 22.1667C100.672 22.1667 94.1045 28.7342 94.1045 36.8126C94.1045 44.7367 100.302 51.1501 108.38 51.4276C108.627 51.3967 108.874 51.3967 109.059 51.4276C109.12 51.4276 109.151 51.4276 109.213 51.4276C109.244 51.4276 109.244 51.4276 109.274 51.4276C117.168 51.1501 123.365 44.7367 123.396 36.8126C123.396 28.7342 116.829 22.1667 108.75 22.1667Z" fill="#5153B8"/>
<path d="M124.413 59.6291C115.81 53.8941 101.781 53.8941 93.1171 59.6291C89.2013 62.25 87.043 65.7958 87.043 69.5883C87.043 73.3808 89.2013 76.8958 93.0863 79.4858C97.403 82.3841 103.076 83.8333 108.75 83.8333C114.423 83.8333 120.096 82.3841 124.413 79.4858C128.298 76.865 130.456 73.35 130.456 69.5266C130.425 65.7341 128.298 62.2191 124.413 59.6291Z" fill="#5153B8"/>
<path d="M142.636 38.6316C143.129 44.6132 138.874 49.8549 132.985 50.5641C132.954 50.5641 132.954 50.5641 132.923 50.5641H132.831C132.646 50.5641 132.461 50.5641 132.307 50.6257C129.316 50.7799 126.572 49.8241 124.506 48.0666C127.682 45.2299 129.501 40.9749 129.131 36.3499C128.915 33.8524 128.052 31.5707 126.757 29.6282C127.928 29.0424 129.285 28.6724 130.673 28.5491C136.716 28.0249 142.112 32.5266 142.636 38.6316Z" fill="#BBBCFF"/>
<path d="M148.802 67.1526C148.556 70.1434 146.644 72.7334 143.437 74.4909C140.354 76.1867 136.469 76.9884 132.615 76.8959C134.835 74.8917 136.13 72.3942 136.377 69.7426C136.685 65.9192 134.866 62.2501 131.227 59.3209C129.162 57.6867 126.757 56.3917 124.136 55.4359C130.95 53.4626 139.522 54.7884 144.794 59.0434C147.631 61.3251 149.08 64.1926 148.802 67.1526Z" fill="#BBBCFF"/>
</svg>
