<svg width="95" height="95" viewBox="0 0 95 95" fill="none" xmlns="http://www.w3.org/2000/svg">
<path d="M48.0741 58.128C45.9835 58.128 44.2448 57.8293 42.8581 57.232C41.4715 56.6133 40.4261 55.7493 39.7221 54.64C39.0181 53.5093 38.6661 52.1867 38.6661 50.672H43.3701C43.3701 51.2693 43.5301 51.8347 43.8501 52.368C44.1701 52.88 44.6821 53.296 45.3861 53.616C46.0901 53.9147 46.9861 54.064 48.0741 54.064C49.5248 54.064 50.6341 53.808 51.4021 53.296C52.1915 52.784 52.5861 52.1013 52.5861 51.248C52.5861 50.5013 52.2555 49.8933 51.5941 49.424C50.9328 48.9333 49.8768 48.6133 48.4261 48.464L46.7941 48.336C44.5115 48.1227 42.6981 47.44 41.3541 46.288C40.0101 45.1147 39.3381 43.4613 39.3381 41.328C39.3381 39.856 39.6688 38.6293 40.3301 37.648C40.9915 36.6453 41.9408 35.8987 43.1781 35.408C44.4155 34.896 45.8981 34.64 47.6261 34.64C49.4821 34.64 51.0395 34.928 52.2981 35.504C53.5568 36.08 54.5061 36.912 55.1461 38C55.8075 39.088 56.1381 40.4107 56.1381 41.968H51.4341C51.4341 41.3493 51.2848 40.8053 50.9861 40.336C50.7088 39.8453 50.2928 39.4507 49.7381 39.152C49.1835 38.8533 48.4795 38.704 47.6261 38.704C46.8795 38.704 46.2395 38.8107 45.7061 39.024C45.1728 39.2373 44.7675 39.5467 44.4901 39.952C44.2128 40.336 44.0741 40.7947 44.0741 41.328C44.0741 41.9893 44.3195 42.5867 44.8101 43.12C45.3008 43.632 46.1115 43.952 47.2421 44.08L48.8741 44.208C51.4341 44.4213 53.4821 45.1147 55.0181 46.288C56.5541 47.4613 57.3221 49.1147 57.3221 51.248C57.3221 52.72 56.9595 53.968 56.2341 54.992C55.5088 56.016 54.4528 56.7947 53.0661 57.328C51.7008 57.8613 50.0368 58.128 48.0741 58.128ZM45.8021 62.128V57.456H49.9941V62.128H45.8021ZM45.6741 36.208V31.536H49.8661V36.208H45.6741Z" fill="#242552"/>
<path d="M28.0897 4.14475C35.956 0.62359 44.6322 -0.690735 53.1885 0.342633C61.7448 1.376 69.8586 4.71811 76.6604 10.0108C83.4623 15.3035 88.6958 22.3472 91.8 30.3872C94.9043 38.4272 95.7623 47.1603 94.2821 55.6507C92.8019 64.1411 89.0394 72.0687 83.3977 78.5839C77.7559 85.0992 70.4477 89.9565 62.2561 92.6353C54.0646 95.3141 45.2985 95.7135 36.8973 93.7906C28.4961 91.8677 20.7765 87.695 14.5657 81.7197L20.9053 75.1303C25.9203 79.9552 32.1537 83.3245 38.9374 84.8772C45.7212 86.4299 52.7995 86.1074 59.414 83.9444C66.0285 81.7813 71.9297 77.8592 76.4852 72.5983C81.0408 67.3374 84.0789 60.9361 85.2741 54.0803C86.4693 47.2245 85.7765 40.1728 83.2699 33.6807C80.7633 27.1886 76.5374 21.501 71.0451 17.2273C65.5528 12.9536 59.0011 10.2549 52.0921 9.42052C45.1832 8.58611 38.1774 9.64739 31.8255 12.4906L28.0897 4.14475Z" fill="#333575"/>
<path d="M4.4903 67.6523C6.09174 71.0686 8.09459 74.282 10.4565 77.2243L17.5872 71.5004C15.68 69.1245 14.0628 66.5299 12.7696 63.7712L4.4903 67.6523Z" fill="#5153B8"/>
<path d="M0.165414 51.4543C0.459577 54.9697 1.14448 58.4413 2.20744 61.805L10.9263 59.0497C10.068 56.3336 9.51495 53.5304 9.27742 50.6918L0.165414 51.4543Z" fill="#9698F8"/>
<path d="M1.78443 34.5976C0.826553 37.9927 0.249907 41.4839 0.06517 45.0067L9.19648 45.4856C9.34565 42.641 9.81127 39.8219 10.5847 37.0805L1.78443 34.5976Z" fill="#BBBCFF"/>
<path d="M8.99737 19.6787C6.93138 22.538 5.19038 25.6186 3.8066 28.8635L12.2176 32.4504C13.3349 29.8302 14.7408 27.3427 16.409 25.0338L8.99737 19.6787Z" fill="#E9EAFF"/>
<path d="M22.2529 7.26256C19.2647 9.13735 16.4946 11.3392 13.994 13.8275L20.4437 20.3091C22.4628 18.3 24.6995 16.522 27.1124 15.0082L22.2529 7.26256Z" fill="#F4F4FF"/>
</svg>
